%TF.GenerationSoftware,KiCad,Pcbnew,(6.0.2)*%
%TF.CreationDate,2022-04-08T17:55:27+02:00*%
%TF.ProjectId,main,6d61696e-2e6b-4696-9361-645f70636258,rev?*%
%TF.SameCoordinates,Original*%
%TF.FileFunction,Legend,Top*%
%TF.FilePolarity,Positive*%
%FSLAX46Y46*%
G04 Gerber Fmt 4.6, Leading zero omitted, Abs format (unit mm)*
G04 Created by KiCad (PCBNEW (6.0.2)) date 2022-04-08 17:55:27*
%MOMM*%
%LPD*%
G01*
G04 APERTURE LIST*
%ADD10C,0.100000*%
%ADD11C,0.300000*%
%ADD12C,0.254000*%
%ADD13C,0.150000*%
%ADD14C,0.098425*%
%ADD15C,0.200000*%
%ADD16C,0.120000*%
%ADD17C,0.127000*%
%ADD18C,0.203200*%
G04 APERTURE END LIST*
D10*
X173536000Y-116459000D02*
X183696000Y-116459000D01*
X183696000Y-116459000D02*
X183696000Y-126619000D01*
X183696000Y-126619000D02*
X173536000Y-126619000D01*
X173536000Y-126619000D02*
X173536000Y-116459000D01*
D11*
X180024761Y-115733809D02*
X181643809Y-115733809D01*
X181834285Y-115638571D01*
X181929523Y-115543333D01*
X182024761Y-115352857D01*
X182024761Y-114971904D01*
X181929523Y-114781428D01*
X181834285Y-114686190D01*
X181643809Y-114590952D01*
X180024761Y-114590952D01*
X181929523Y-113733809D02*
X182024761Y-113448095D01*
X182024761Y-112971904D01*
X181929523Y-112781428D01*
X181834285Y-112686190D01*
X181643809Y-112590952D01*
X181453333Y-112590952D01*
X181262857Y-112686190D01*
X181167619Y-112781428D01*
X181072380Y-112971904D01*
X180977142Y-113352857D01*
X180881904Y-113543333D01*
X180786666Y-113638571D01*
X180596190Y-113733809D01*
X180405714Y-113733809D01*
X180215238Y-113638571D01*
X180120000Y-113543333D01*
X180024761Y-113352857D01*
X180024761Y-112876666D01*
X180120000Y-112590952D01*
X180977142Y-111067142D02*
X181072380Y-110781428D01*
X181167619Y-110686190D01*
X181358095Y-110590952D01*
X181643809Y-110590952D01*
X181834285Y-110686190D01*
X181929523Y-110781428D01*
X182024761Y-110971904D01*
X182024761Y-111733809D01*
X180024761Y-111733809D01*
X180024761Y-111067142D01*
X180120000Y-110876666D01*
X180215238Y-110781428D01*
X180405714Y-110686190D01*
X180596190Y-110686190D01*
X180786666Y-110781428D01*
X180881904Y-110876666D01*
X180977142Y-111067142D01*
X180977142Y-111733809D01*
D12*
%TO.C,R4*%
X140924523Y-78531666D02*
X140319761Y-78955000D01*
X140924523Y-79257380D02*
X139654523Y-79257380D01*
X139654523Y-78773571D01*
X139715000Y-78652619D01*
X139775476Y-78592142D01*
X139896428Y-78531666D01*
X140077857Y-78531666D01*
X140198809Y-78592142D01*
X140259285Y-78652619D01*
X140319761Y-78773571D01*
X140319761Y-79257380D01*
X140077857Y-77443095D02*
X140924523Y-77443095D01*
X139594047Y-77745476D02*
X140501190Y-78047857D01*
X140501190Y-77261666D01*
%TO.C,D3*%
X165574523Y-119357380D02*
X164304523Y-119357380D01*
X164304523Y-119055000D01*
X164365000Y-118873571D01*
X164485952Y-118752619D01*
X164606904Y-118692142D01*
X164848809Y-118631666D01*
X165030238Y-118631666D01*
X165272142Y-118692142D01*
X165393095Y-118752619D01*
X165514047Y-118873571D01*
X165574523Y-119055000D01*
X165574523Y-119357380D01*
X164304523Y-118208333D02*
X164304523Y-117422142D01*
X164788333Y-117845476D01*
X164788333Y-117664047D01*
X164848809Y-117543095D01*
X164909285Y-117482619D01*
X165030238Y-117422142D01*
X165332619Y-117422142D01*
X165453571Y-117482619D01*
X165514047Y-117543095D01*
X165574523Y-117664047D01*
X165574523Y-118026904D01*
X165514047Y-118147857D01*
X165453571Y-118208333D01*
%TO.C,J7*%
X176794523Y-72433333D02*
X177701666Y-72433333D01*
X177883095Y-72493809D01*
X178004047Y-72614761D01*
X178064523Y-72796190D01*
X178064523Y-72917142D01*
X176794523Y-71949523D02*
X176794523Y-71102857D01*
X178064523Y-71647142D01*
D13*
%TO.C,J14*%
X175520476Y-113867380D02*
X175520476Y-114581666D01*
X175472857Y-114724523D01*
X175377619Y-114819761D01*
X175234761Y-114867380D01*
X175139523Y-114867380D01*
X176520476Y-114867380D02*
X175949047Y-114867380D01*
X176234761Y-114867380D02*
X176234761Y-113867380D01*
X176139523Y-114010238D01*
X176044285Y-114105476D01*
X175949047Y-114153095D01*
X177377619Y-114200714D02*
X177377619Y-114867380D01*
X177139523Y-113819761D02*
X176901428Y-114534047D01*
X177520476Y-114534047D01*
%TO.C,TP9*%
X131648095Y-112872380D02*
X132219523Y-112872380D01*
X131933809Y-113872380D02*
X131933809Y-112872380D01*
X132552857Y-113872380D02*
X132552857Y-112872380D01*
X132933809Y-112872380D01*
X133029047Y-112920000D01*
X133076666Y-112967619D01*
X133124285Y-113062857D01*
X133124285Y-113205714D01*
X133076666Y-113300952D01*
X133029047Y-113348571D01*
X132933809Y-113396190D01*
X132552857Y-113396190D01*
X133600476Y-113872380D02*
X133790952Y-113872380D01*
X133886190Y-113824761D01*
X133933809Y-113777142D01*
X134029047Y-113634285D01*
X134076666Y-113443809D01*
X134076666Y-113062857D01*
X134029047Y-112967619D01*
X133981428Y-112920000D01*
X133886190Y-112872380D01*
X133695714Y-112872380D01*
X133600476Y-112920000D01*
X133552857Y-112967619D01*
X133505238Y-113062857D01*
X133505238Y-113300952D01*
X133552857Y-113396190D01*
X133600476Y-113443809D01*
X133695714Y-113491428D01*
X133886190Y-113491428D01*
X133981428Y-113443809D01*
X134029047Y-113396190D01*
X134076666Y-113300952D01*
D12*
%TO.C,C10*%
X86896571Y-116553571D02*
X86836095Y-116614047D01*
X86654666Y-116674523D01*
X86533714Y-116674523D01*
X86352285Y-116614047D01*
X86231333Y-116493095D01*
X86170857Y-116372142D01*
X86110380Y-116130238D01*
X86110380Y-115948809D01*
X86170857Y-115706904D01*
X86231333Y-115585952D01*
X86352285Y-115465000D01*
X86533714Y-115404523D01*
X86654666Y-115404523D01*
X86836095Y-115465000D01*
X86896571Y-115525476D01*
X88106095Y-116674523D02*
X87380380Y-116674523D01*
X87743238Y-116674523D02*
X87743238Y-115404523D01*
X87622285Y-115585952D01*
X87501333Y-115706904D01*
X87380380Y-115767380D01*
X88892285Y-115404523D02*
X89013238Y-115404523D01*
X89134190Y-115465000D01*
X89194666Y-115525476D01*
X89255142Y-115646428D01*
X89315619Y-115888333D01*
X89315619Y-116190714D01*
X89255142Y-116432619D01*
X89194666Y-116553571D01*
X89134190Y-116614047D01*
X89013238Y-116674523D01*
X88892285Y-116674523D01*
X88771333Y-116614047D01*
X88710857Y-116553571D01*
X88650380Y-116432619D01*
X88589904Y-116190714D01*
X88589904Y-115888333D01*
X88650380Y-115646428D01*
X88710857Y-115525476D01*
X88771333Y-115465000D01*
X88892285Y-115404523D01*
D13*
%TO.C,J8*%
X180935380Y-87709333D02*
X181649666Y-87709333D01*
X181792523Y-87756952D01*
X181887761Y-87852190D01*
X181935380Y-87995047D01*
X181935380Y-88090285D01*
X181363952Y-87090285D02*
X181316333Y-87185523D01*
X181268714Y-87233142D01*
X181173476Y-87280761D01*
X181125857Y-87280761D01*
X181030619Y-87233142D01*
X180983000Y-87185523D01*
X180935380Y-87090285D01*
X180935380Y-86899809D01*
X180983000Y-86804571D01*
X181030619Y-86756952D01*
X181125857Y-86709333D01*
X181173476Y-86709333D01*
X181268714Y-86756952D01*
X181316333Y-86804571D01*
X181363952Y-86899809D01*
X181363952Y-87090285D01*
X181411571Y-87185523D01*
X181459190Y-87233142D01*
X181554428Y-87280761D01*
X181744904Y-87280761D01*
X181840142Y-87233142D01*
X181887761Y-87185523D01*
X181935380Y-87090285D01*
X181935380Y-86899809D01*
X181887761Y-86804571D01*
X181840142Y-86756952D01*
X181744904Y-86709333D01*
X181554428Y-86709333D01*
X181459190Y-86756952D01*
X181411571Y-86804571D01*
X181363952Y-86899809D01*
D12*
%TO.C,D4*%
X167544523Y-110286380D02*
X166274523Y-110286380D01*
X166274523Y-109984000D01*
X166335000Y-109802571D01*
X166455952Y-109681619D01*
X166576904Y-109621142D01*
X166818809Y-109560666D01*
X167000238Y-109560666D01*
X167242142Y-109621142D01*
X167363095Y-109681619D01*
X167484047Y-109802571D01*
X167544523Y-109984000D01*
X167544523Y-110286380D01*
X166697857Y-108472095D02*
X167544523Y-108472095D01*
X166214047Y-108774476D02*
X167121190Y-109076857D01*
X167121190Y-108290666D01*
D13*
%TO.C,TP11*%
X95461904Y-105742380D02*
X96033333Y-105742380D01*
X95747619Y-106742380D02*
X95747619Y-105742380D01*
X96366666Y-106742380D02*
X96366666Y-105742380D01*
X96747619Y-105742380D01*
X96842857Y-105790000D01*
X96890476Y-105837619D01*
X96938095Y-105932857D01*
X96938095Y-106075714D01*
X96890476Y-106170952D01*
X96842857Y-106218571D01*
X96747619Y-106266190D01*
X96366666Y-106266190D01*
X97890476Y-106742380D02*
X97319047Y-106742380D01*
X97604761Y-106742380D02*
X97604761Y-105742380D01*
X97509523Y-105885238D01*
X97414285Y-105980476D01*
X97319047Y-106028095D01*
X98842857Y-106742380D02*
X98271428Y-106742380D01*
X98557142Y-106742380D02*
X98557142Y-105742380D01*
X98461904Y-105885238D01*
X98366666Y-105980476D01*
X98271428Y-106028095D01*
D12*
%TO.C,R6*%
X167764523Y-126101666D02*
X167159761Y-126525000D01*
X167764523Y-126827380D02*
X166494523Y-126827380D01*
X166494523Y-126343571D01*
X166555000Y-126222619D01*
X166615476Y-126162142D01*
X166736428Y-126101666D01*
X166917857Y-126101666D01*
X167038809Y-126162142D01*
X167099285Y-126222619D01*
X167159761Y-126343571D01*
X167159761Y-126827380D01*
X166494523Y-125013095D02*
X166494523Y-125255000D01*
X166555000Y-125375952D01*
X166615476Y-125436428D01*
X166796904Y-125557380D01*
X167038809Y-125617857D01*
X167522619Y-125617857D01*
X167643571Y-125557380D01*
X167704047Y-125496904D01*
X167764523Y-125375952D01*
X167764523Y-125134047D01*
X167704047Y-125013095D01*
X167643571Y-124952619D01*
X167522619Y-124892142D01*
X167220238Y-124892142D01*
X167099285Y-124952619D01*
X167038809Y-125013095D01*
X166978333Y-125134047D01*
X166978333Y-125375952D01*
X167038809Y-125496904D01*
X167099285Y-125557380D01*
X167220238Y-125617857D01*
%TO.C,C2*%
X180158333Y-77533571D02*
X180097857Y-77594047D01*
X179916428Y-77654523D01*
X179795476Y-77654523D01*
X179614047Y-77594047D01*
X179493095Y-77473095D01*
X179432619Y-77352142D01*
X179372142Y-77110238D01*
X179372142Y-76928809D01*
X179432619Y-76686904D01*
X179493095Y-76565952D01*
X179614047Y-76445000D01*
X179795476Y-76384523D01*
X179916428Y-76384523D01*
X180097857Y-76445000D01*
X180158333Y-76505476D01*
X180642142Y-76505476D02*
X180702619Y-76445000D01*
X180823571Y-76384523D01*
X181125952Y-76384523D01*
X181246904Y-76445000D01*
X181307380Y-76505476D01*
X181367857Y-76626428D01*
X181367857Y-76747380D01*
X181307380Y-76928809D01*
X180581666Y-77654523D01*
X181367857Y-77654523D01*
D13*
%TO.C,TP5*%
X151208095Y-130772380D02*
X151779523Y-130772380D01*
X151493809Y-131772380D02*
X151493809Y-130772380D01*
X152112857Y-131772380D02*
X152112857Y-130772380D01*
X152493809Y-130772380D01*
X152589047Y-130820000D01*
X152636666Y-130867619D01*
X152684285Y-130962857D01*
X152684285Y-131105714D01*
X152636666Y-131200952D01*
X152589047Y-131248571D01*
X152493809Y-131296190D01*
X152112857Y-131296190D01*
X153589047Y-130772380D02*
X153112857Y-130772380D01*
X153065238Y-131248571D01*
X153112857Y-131200952D01*
X153208095Y-131153333D01*
X153446190Y-131153333D01*
X153541428Y-131200952D01*
X153589047Y-131248571D01*
X153636666Y-131343809D01*
X153636666Y-131581904D01*
X153589047Y-131677142D01*
X153541428Y-131724761D01*
X153446190Y-131772380D01*
X153208095Y-131772380D01*
X153112857Y-131724761D01*
X153065238Y-131677142D01*
D12*
%TO.C,R3*%
X172808333Y-79014523D02*
X172385000Y-78409761D01*
X172082619Y-79014523D02*
X172082619Y-77744523D01*
X172566428Y-77744523D01*
X172687380Y-77805000D01*
X172747857Y-77865476D01*
X172808333Y-77986428D01*
X172808333Y-78167857D01*
X172747857Y-78288809D01*
X172687380Y-78349285D01*
X172566428Y-78409761D01*
X172082619Y-78409761D01*
X173231666Y-77744523D02*
X174017857Y-77744523D01*
X173594523Y-78228333D01*
X173775952Y-78228333D01*
X173896904Y-78288809D01*
X173957380Y-78349285D01*
X174017857Y-78470238D01*
X174017857Y-78772619D01*
X173957380Y-78893571D01*
X173896904Y-78954047D01*
X173775952Y-79014523D01*
X173413095Y-79014523D01*
X173292142Y-78954047D01*
X173231666Y-78893571D01*
%TO.C,R1*%
X177133523Y-64728666D02*
X176528761Y-65152000D01*
X177133523Y-65454380D02*
X175863523Y-65454380D01*
X175863523Y-64970571D01*
X175924000Y-64849619D01*
X175984476Y-64789142D01*
X176105428Y-64728666D01*
X176286857Y-64728666D01*
X176407809Y-64789142D01*
X176468285Y-64849619D01*
X176528761Y-64970571D01*
X176528761Y-65454380D01*
X177133523Y-63519142D02*
X177133523Y-64244857D01*
X177133523Y-63882000D02*
X175863523Y-63882000D01*
X176044952Y-64002952D01*
X176165904Y-64123904D01*
X176226380Y-64244857D01*
%TO.C,R2*%
X171934523Y-65641666D02*
X171329761Y-66065000D01*
X171934523Y-66367380D02*
X170664523Y-66367380D01*
X170664523Y-65883571D01*
X170725000Y-65762619D01*
X170785476Y-65702142D01*
X170906428Y-65641666D01*
X171087857Y-65641666D01*
X171208809Y-65702142D01*
X171269285Y-65762619D01*
X171329761Y-65883571D01*
X171329761Y-66367380D01*
X170785476Y-65157857D02*
X170725000Y-65097380D01*
X170664523Y-64976428D01*
X170664523Y-64674047D01*
X170725000Y-64553095D01*
X170785476Y-64492619D01*
X170906428Y-64432142D01*
X171027380Y-64432142D01*
X171208809Y-64492619D01*
X171934523Y-65218333D01*
X171934523Y-64432142D01*
%TO.C,D2*%
X165462619Y-64564523D02*
X165462619Y-63294523D01*
X165765000Y-63294523D01*
X165946428Y-63355000D01*
X166067380Y-63475952D01*
X166127857Y-63596904D01*
X166188333Y-63838809D01*
X166188333Y-64020238D01*
X166127857Y-64262142D01*
X166067380Y-64383095D01*
X165946428Y-64504047D01*
X165765000Y-64564523D01*
X165462619Y-64564523D01*
X166672142Y-63415476D02*
X166732619Y-63355000D01*
X166853571Y-63294523D01*
X167155952Y-63294523D01*
X167276904Y-63355000D01*
X167337380Y-63415476D01*
X167397857Y-63536428D01*
X167397857Y-63657380D01*
X167337380Y-63838809D01*
X166611666Y-64564523D01*
X167397857Y-64564523D01*
%TO.C,D1*%
X175563619Y-62237523D02*
X175563619Y-60967523D01*
X175866000Y-60967523D01*
X176047428Y-61028000D01*
X176168380Y-61148952D01*
X176228857Y-61269904D01*
X176289333Y-61511809D01*
X176289333Y-61693238D01*
X176228857Y-61935142D01*
X176168380Y-62056095D01*
X176047428Y-62177047D01*
X175866000Y-62237523D01*
X175563619Y-62237523D01*
X177498857Y-62237523D02*
X176773142Y-62237523D01*
X177136000Y-62237523D02*
X177136000Y-60967523D01*
X177015047Y-61148952D01*
X176894095Y-61269904D01*
X176773142Y-61330380D01*
D13*
%TO.C,J4*%
X103231666Y-85722380D02*
X103231666Y-86436666D01*
X103184047Y-86579523D01*
X103088809Y-86674761D01*
X102945952Y-86722380D01*
X102850714Y-86722380D01*
X104136428Y-86055714D02*
X104136428Y-86722380D01*
X103898333Y-85674761D02*
X103660238Y-86389047D01*
X104279285Y-86389047D01*
D12*
%TO.C,R5*%
X137528333Y-74484523D02*
X137105000Y-73879761D01*
X136802619Y-74484523D02*
X136802619Y-73214523D01*
X137286428Y-73214523D01*
X137407380Y-73275000D01*
X137467857Y-73335476D01*
X137528333Y-73456428D01*
X137528333Y-73637857D01*
X137467857Y-73758809D01*
X137407380Y-73819285D01*
X137286428Y-73879761D01*
X136802619Y-73879761D01*
X138677380Y-73214523D02*
X138072619Y-73214523D01*
X138012142Y-73819285D01*
X138072619Y-73758809D01*
X138193571Y-73698333D01*
X138495952Y-73698333D01*
X138616904Y-73758809D01*
X138677380Y-73819285D01*
X138737857Y-73940238D01*
X138737857Y-74242619D01*
X138677380Y-74363571D01*
X138616904Y-74424047D01*
X138495952Y-74484523D01*
X138193571Y-74484523D01*
X138072619Y-74424047D01*
X138012142Y-74363571D01*
%TO.C,R12*%
X171971523Y-109196428D02*
X171366761Y-109619761D01*
X171971523Y-109922142D02*
X170701523Y-109922142D01*
X170701523Y-109438333D01*
X170762000Y-109317380D01*
X170822476Y-109256904D01*
X170943428Y-109196428D01*
X171124857Y-109196428D01*
X171245809Y-109256904D01*
X171306285Y-109317380D01*
X171366761Y-109438333D01*
X171366761Y-109922142D01*
X171971523Y-107986904D02*
X171971523Y-108712619D01*
X171971523Y-108349761D02*
X170701523Y-108349761D01*
X170882952Y-108470714D01*
X171003904Y-108591666D01*
X171064380Y-108712619D01*
X170822476Y-107503095D02*
X170762000Y-107442619D01*
X170701523Y-107321666D01*
X170701523Y-107019285D01*
X170762000Y-106898333D01*
X170822476Y-106837857D01*
X170943428Y-106777380D01*
X171064380Y-106777380D01*
X171245809Y-106837857D01*
X171971523Y-107563571D01*
X171971523Y-106777380D01*
D13*
%TO.C,J3*%
X170497380Y-150066333D02*
X171211666Y-150066333D01*
X171354523Y-150113952D01*
X171449761Y-150209190D01*
X171497380Y-150352047D01*
X171497380Y-150447285D01*
X170497380Y-149685380D02*
X170497380Y-149066333D01*
X170878333Y-149399666D01*
X170878333Y-149256809D01*
X170925952Y-149161571D01*
X170973571Y-149113952D01*
X171068809Y-149066333D01*
X171306904Y-149066333D01*
X171402142Y-149113952D01*
X171449761Y-149161571D01*
X171497380Y-149256809D01*
X171497380Y-149542523D01*
X171449761Y-149637761D01*
X171402142Y-149685380D01*
%TO.C,J1*%
X168986666Y-97792380D02*
X168986666Y-98506666D01*
X168939047Y-98649523D01*
X168843809Y-98744761D01*
X168700952Y-98792380D01*
X168605714Y-98792380D01*
X169986666Y-98792380D02*
X169415238Y-98792380D01*
X169700952Y-98792380D02*
X169700952Y-97792380D01*
X169605714Y-97935238D01*
X169510476Y-98030476D01*
X169415238Y-98078095D01*
D12*
%TO.C,C7*%
X149103571Y-117851666D02*
X149164047Y-117912142D01*
X149224523Y-118093571D01*
X149224523Y-118214523D01*
X149164047Y-118395952D01*
X149043095Y-118516904D01*
X148922142Y-118577380D01*
X148680238Y-118637857D01*
X148498809Y-118637857D01*
X148256904Y-118577380D01*
X148135952Y-118516904D01*
X148015000Y-118395952D01*
X147954523Y-118214523D01*
X147954523Y-118093571D01*
X148015000Y-117912142D01*
X148075476Y-117851666D01*
X147954523Y-117428333D02*
X147954523Y-116581666D01*
X149224523Y-117125952D01*
%TO.C,IC2*%
X159570238Y-126064523D02*
X159570238Y-124794523D01*
X160900714Y-125943571D02*
X160840238Y-126004047D01*
X160658809Y-126064523D01*
X160537857Y-126064523D01*
X160356428Y-126004047D01*
X160235476Y-125883095D01*
X160175000Y-125762142D01*
X160114523Y-125520238D01*
X160114523Y-125338809D01*
X160175000Y-125096904D01*
X160235476Y-124975952D01*
X160356428Y-124855000D01*
X160537857Y-124794523D01*
X160658809Y-124794523D01*
X160840238Y-124855000D01*
X160900714Y-124915476D01*
X161384523Y-124915476D02*
X161445000Y-124855000D01*
X161565952Y-124794523D01*
X161868333Y-124794523D01*
X161989285Y-124855000D01*
X162049761Y-124915476D01*
X162110238Y-125036428D01*
X162110238Y-125157380D01*
X162049761Y-125338809D01*
X161324047Y-126064523D01*
X162110238Y-126064523D01*
D13*
%TO.C,TP10*%
X102401904Y-108291380D02*
X102973333Y-108291380D01*
X102687619Y-109291380D02*
X102687619Y-108291380D01*
X103306666Y-109291380D02*
X103306666Y-108291380D01*
X103687619Y-108291380D01*
X103782857Y-108339000D01*
X103830476Y-108386619D01*
X103878095Y-108481857D01*
X103878095Y-108624714D01*
X103830476Y-108719952D01*
X103782857Y-108767571D01*
X103687619Y-108815190D01*
X103306666Y-108815190D01*
X104830476Y-109291380D02*
X104259047Y-109291380D01*
X104544761Y-109291380D02*
X104544761Y-108291380D01*
X104449523Y-108434238D01*
X104354285Y-108529476D01*
X104259047Y-108577095D01*
X105449523Y-108291380D02*
X105544761Y-108291380D01*
X105640000Y-108339000D01*
X105687619Y-108386619D01*
X105735238Y-108481857D01*
X105782857Y-108672333D01*
X105782857Y-108910428D01*
X105735238Y-109100904D01*
X105687619Y-109196142D01*
X105640000Y-109243761D01*
X105544761Y-109291380D01*
X105449523Y-109291380D01*
X105354285Y-109243761D01*
X105306666Y-109196142D01*
X105259047Y-109100904D01*
X105211428Y-108910428D01*
X105211428Y-108672333D01*
X105259047Y-108481857D01*
X105306666Y-108386619D01*
X105354285Y-108339000D01*
X105449523Y-108291380D01*
%TO.C,TP6*%
X162148095Y-131692380D02*
X162719523Y-131692380D01*
X162433809Y-132692380D02*
X162433809Y-131692380D01*
X163052857Y-132692380D02*
X163052857Y-131692380D01*
X163433809Y-131692380D01*
X163529047Y-131740000D01*
X163576666Y-131787619D01*
X163624285Y-131882857D01*
X163624285Y-132025714D01*
X163576666Y-132120952D01*
X163529047Y-132168571D01*
X163433809Y-132216190D01*
X163052857Y-132216190D01*
X164481428Y-131692380D02*
X164290952Y-131692380D01*
X164195714Y-131740000D01*
X164148095Y-131787619D01*
X164052857Y-131930476D01*
X164005238Y-132120952D01*
X164005238Y-132501904D01*
X164052857Y-132597142D01*
X164100476Y-132644761D01*
X164195714Y-132692380D01*
X164386190Y-132692380D01*
X164481428Y-132644761D01*
X164529047Y-132597142D01*
X164576666Y-132501904D01*
X164576666Y-132263809D01*
X164529047Y-132168571D01*
X164481428Y-132120952D01*
X164386190Y-132073333D01*
X164195714Y-132073333D01*
X164100476Y-132120952D01*
X164052857Y-132168571D01*
X164005238Y-132263809D01*
D12*
%TO.C,C3*%
X157738333Y-85513571D02*
X157677857Y-85574047D01*
X157496428Y-85634523D01*
X157375476Y-85634523D01*
X157194047Y-85574047D01*
X157073095Y-85453095D01*
X157012619Y-85332142D01*
X156952142Y-85090238D01*
X156952142Y-84908809D01*
X157012619Y-84666904D01*
X157073095Y-84545952D01*
X157194047Y-84425000D01*
X157375476Y-84364523D01*
X157496428Y-84364523D01*
X157677857Y-84425000D01*
X157738333Y-84485476D01*
X158161666Y-84364523D02*
X158947857Y-84364523D01*
X158524523Y-84848333D01*
X158705952Y-84848333D01*
X158826904Y-84908809D01*
X158887380Y-84969285D01*
X158947857Y-85090238D01*
X158947857Y-85392619D01*
X158887380Y-85513571D01*
X158826904Y-85574047D01*
X158705952Y-85634523D01*
X158343095Y-85634523D01*
X158222142Y-85574047D01*
X158161666Y-85513571D01*
%TO.C,R11*%
X171988523Y-123402428D02*
X171383761Y-123825761D01*
X171988523Y-124128142D02*
X170718523Y-124128142D01*
X170718523Y-123644333D01*
X170779000Y-123523380D01*
X170839476Y-123462904D01*
X170960428Y-123402428D01*
X171141857Y-123402428D01*
X171262809Y-123462904D01*
X171323285Y-123523380D01*
X171383761Y-123644333D01*
X171383761Y-124128142D01*
X171988523Y-122192904D02*
X171988523Y-122918619D01*
X171988523Y-122555761D02*
X170718523Y-122555761D01*
X170899952Y-122676714D01*
X171020904Y-122797666D01*
X171081380Y-122918619D01*
X171988523Y-120983380D02*
X171988523Y-121709095D01*
X171988523Y-121346238D02*
X170718523Y-121346238D01*
X170899952Y-121467190D01*
X171020904Y-121588142D01*
X171081380Y-121709095D01*
%TO.C,R9*%
X153609523Y-77681666D02*
X153004761Y-78105000D01*
X153609523Y-78407380D02*
X152339523Y-78407380D01*
X152339523Y-77923571D01*
X152400000Y-77802619D01*
X152460476Y-77742142D01*
X152581428Y-77681666D01*
X152762857Y-77681666D01*
X152883809Y-77742142D01*
X152944285Y-77802619D01*
X153004761Y-77923571D01*
X153004761Y-78407380D01*
X153609523Y-77076904D02*
X153609523Y-76835000D01*
X153549047Y-76714047D01*
X153488571Y-76653571D01*
X153307142Y-76532619D01*
X153065238Y-76472142D01*
X152581428Y-76472142D01*
X152460476Y-76532619D01*
X152400000Y-76593095D01*
X152339523Y-76714047D01*
X152339523Y-76955952D01*
X152400000Y-77076904D01*
X152460476Y-77137380D01*
X152581428Y-77197857D01*
X152883809Y-77197857D01*
X153004761Y-77137380D01*
X153065238Y-77076904D01*
X153125714Y-76955952D01*
X153125714Y-76714047D01*
X153065238Y-76593095D01*
X153004761Y-76532619D01*
X152883809Y-76472142D01*
D13*
%TO.C,TP7*%
X144103095Y-74172380D02*
X144674523Y-74172380D01*
X144388809Y-75172380D02*
X144388809Y-74172380D01*
X145007857Y-75172380D02*
X145007857Y-74172380D01*
X145388809Y-74172380D01*
X145484047Y-74220000D01*
X145531666Y-74267619D01*
X145579285Y-74362857D01*
X145579285Y-74505714D01*
X145531666Y-74600952D01*
X145484047Y-74648571D01*
X145388809Y-74696190D01*
X145007857Y-74696190D01*
X145912619Y-74172380D02*
X146579285Y-74172380D01*
X146150714Y-75172380D01*
D12*
%TO.C,IC1*%
X131144523Y-78089761D02*
X129874523Y-78089761D01*
X131023571Y-76759285D02*
X131084047Y-76819761D01*
X131144523Y-77001190D01*
X131144523Y-77122142D01*
X131084047Y-77303571D01*
X130963095Y-77424523D01*
X130842142Y-77485000D01*
X130600238Y-77545476D01*
X130418809Y-77545476D01*
X130176904Y-77485000D01*
X130055952Y-77424523D01*
X129935000Y-77303571D01*
X129874523Y-77122142D01*
X129874523Y-77001190D01*
X129935000Y-76819761D01*
X129995476Y-76759285D01*
X131144523Y-75549761D02*
X131144523Y-76275476D01*
X131144523Y-75912619D02*
X129874523Y-75912619D01*
X130055952Y-76033571D01*
X130176904Y-76154523D01*
X130237380Y-76275476D01*
%TO.C,C6*%
X170563571Y-127671666D02*
X170624047Y-127732142D01*
X170684523Y-127913571D01*
X170684523Y-128034523D01*
X170624047Y-128215952D01*
X170503095Y-128336904D01*
X170382142Y-128397380D01*
X170140238Y-128457857D01*
X169958809Y-128457857D01*
X169716904Y-128397380D01*
X169595952Y-128336904D01*
X169475000Y-128215952D01*
X169414523Y-128034523D01*
X169414523Y-127913571D01*
X169475000Y-127732142D01*
X169535476Y-127671666D01*
X169414523Y-126583095D02*
X169414523Y-126825000D01*
X169475000Y-126945952D01*
X169535476Y-127006428D01*
X169716904Y-127127380D01*
X169958809Y-127187857D01*
X170442619Y-127187857D01*
X170563571Y-127127380D01*
X170624047Y-127066904D01*
X170684523Y-126945952D01*
X170684523Y-126704047D01*
X170624047Y-126583095D01*
X170563571Y-126522619D01*
X170442619Y-126462142D01*
X170140238Y-126462142D01*
X170019285Y-126522619D01*
X169958809Y-126583095D01*
X169898333Y-126704047D01*
X169898333Y-126945952D01*
X169958809Y-127066904D01*
X170019285Y-127127380D01*
X170140238Y-127187857D01*
%TO.C,U2*%
X157655380Y-52771523D02*
X157655380Y-53799619D01*
X157715857Y-53920571D01*
X157776333Y-53981047D01*
X157897285Y-54041523D01*
X158139190Y-54041523D01*
X158260142Y-53981047D01*
X158320619Y-53920571D01*
X158381095Y-53799619D01*
X158381095Y-52771523D01*
X158925380Y-52892476D02*
X158985857Y-52832000D01*
X159106809Y-52771523D01*
X159409190Y-52771523D01*
X159530142Y-52832000D01*
X159590619Y-52892476D01*
X159651095Y-53013428D01*
X159651095Y-53134380D01*
X159590619Y-53315809D01*
X158864904Y-54041523D01*
X159651095Y-54041523D01*
D13*
%TO.C,J6*%
X173782380Y-121823333D02*
X174496666Y-121823333D01*
X174639523Y-121870952D01*
X174734761Y-121966190D01*
X174782380Y-122109047D01*
X174782380Y-122204285D01*
X173782380Y-120918571D02*
X173782380Y-121109047D01*
X173830000Y-121204285D01*
X173877619Y-121251904D01*
X174020476Y-121347142D01*
X174210952Y-121394761D01*
X174591904Y-121394761D01*
X174687142Y-121347142D01*
X174734761Y-121299523D01*
X174782380Y-121204285D01*
X174782380Y-121013809D01*
X174734761Y-120918571D01*
X174687142Y-120870952D01*
X174591904Y-120823333D01*
X174353809Y-120823333D01*
X174258571Y-120870952D01*
X174210952Y-120918571D01*
X174163333Y-121013809D01*
X174163333Y-121204285D01*
X174210952Y-121299523D01*
X174258571Y-121347142D01*
X174353809Y-121394761D01*
%TO.C,TP1*%
X180328095Y-128362380D02*
X180899523Y-128362380D01*
X180613809Y-129362380D02*
X180613809Y-128362380D01*
X181232857Y-129362380D02*
X181232857Y-128362380D01*
X181613809Y-128362380D01*
X181709047Y-128410000D01*
X181756666Y-128457619D01*
X181804285Y-128552857D01*
X181804285Y-128695714D01*
X181756666Y-128790952D01*
X181709047Y-128838571D01*
X181613809Y-128886190D01*
X181232857Y-128886190D01*
X182756666Y-129362380D02*
X182185238Y-129362380D01*
X182470952Y-129362380D02*
X182470952Y-128362380D01*
X182375714Y-128505238D01*
X182280476Y-128600476D01*
X182185238Y-128648095D01*
D12*
%TO.C,C5*%
X141933333Y-71934571D02*
X141872857Y-71995047D01*
X141691428Y-72055523D01*
X141570476Y-72055523D01*
X141389047Y-71995047D01*
X141268095Y-71874095D01*
X141207619Y-71753142D01*
X141147142Y-71511238D01*
X141147142Y-71329809D01*
X141207619Y-71087904D01*
X141268095Y-70966952D01*
X141389047Y-70846000D01*
X141570476Y-70785523D01*
X141691428Y-70785523D01*
X141872857Y-70846000D01*
X141933333Y-70906476D01*
X143082380Y-70785523D02*
X142477619Y-70785523D01*
X142417142Y-71390285D01*
X142477619Y-71329809D01*
X142598571Y-71269333D01*
X142900952Y-71269333D01*
X143021904Y-71329809D01*
X143082380Y-71390285D01*
X143142857Y-71511238D01*
X143142857Y-71813619D01*
X143082380Y-71934571D01*
X143021904Y-71995047D01*
X142900952Y-72055523D01*
X142598571Y-72055523D01*
X142477619Y-71995047D01*
X142417142Y-71934571D01*
D13*
%TO.C,TP4*%
X168337095Y-131558380D02*
X168908523Y-131558380D01*
X168622809Y-132558380D02*
X168622809Y-131558380D01*
X169241857Y-132558380D02*
X169241857Y-131558380D01*
X169622809Y-131558380D01*
X169718047Y-131606000D01*
X169765666Y-131653619D01*
X169813285Y-131748857D01*
X169813285Y-131891714D01*
X169765666Y-131986952D01*
X169718047Y-132034571D01*
X169622809Y-132082190D01*
X169241857Y-132082190D01*
X170670428Y-131891714D02*
X170670428Y-132558380D01*
X170432333Y-131510761D02*
X170194238Y-132225047D01*
X170813285Y-132225047D01*
%TO.C,U4*%
X93430962Y-123064878D02*
X94242583Y-123064878D01*
X94338068Y-123017136D01*
X94385810Y-122969394D01*
X94433553Y-122873909D01*
X94433553Y-122682939D01*
X94385810Y-122587454D01*
X94338068Y-122539712D01*
X94242583Y-122491969D01*
X93430962Y-122491969D01*
X93765159Y-121584863D02*
X94433553Y-121584863D01*
X93383219Y-121823575D02*
X94099356Y-122062287D01*
X94099356Y-121441636D01*
D12*
%TO.C,C1*%
X159488333Y-72533571D02*
X159427857Y-72594047D01*
X159246428Y-72654523D01*
X159125476Y-72654523D01*
X158944047Y-72594047D01*
X158823095Y-72473095D01*
X158762619Y-72352142D01*
X158702142Y-72110238D01*
X158702142Y-71928809D01*
X158762619Y-71686904D01*
X158823095Y-71565952D01*
X158944047Y-71445000D01*
X159125476Y-71384523D01*
X159246428Y-71384523D01*
X159427857Y-71445000D01*
X159488333Y-71505476D01*
X160697857Y-72654523D02*
X159972142Y-72654523D01*
X160335000Y-72654523D02*
X160335000Y-71384523D01*
X160214047Y-71565952D01*
X160093095Y-71686904D01*
X159972142Y-71747380D01*
D13*
%TO.C,J5*%
X168327380Y-137137333D02*
X169041666Y-137137333D01*
X169184523Y-137184952D01*
X169279761Y-137280190D01*
X169327380Y-137423047D01*
X169327380Y-137518285D01*
X168327380Y-136184952D02*
X168327380Y-136661142D01*
X168803571Y-136708761D01*
X168755952Y-136661142D01*
X168708333Y-136565904D01*
X168708333Y-136327809D01*
X168755952Y-136232571D01*
X168803571Y-136184952D01*
X168898809Y-136137333D01*
X169136904Y-136137333D01*
X169232142Y-136184952D01*
X169279761Y-136232571D01*
X169327380Y-136327809D01*
X169327380Y-136565904D01*
X169279761Y-136661142D01*
X169232142Y-136708761D01*
%TO.C,TP2*%
X179958095Y-97764380D02*
X180529523Y-97764380D01*
X180243809Y-98764380D02*
X180243809Y-97764380D01*
X180862857Y-98764380D02*
X180862857Y-97764380D01*
X181243809Y-97764380D01*
X181339047Y-97812000D01*
X181386666Y-97859619D01*
X181434285Y-97954857D01*
X181434285Y-98097714D01*
X181386666Y-98192952D01*
X181339047Y-98240571D01*
X181243809Y-98288190D01*
X180862857Y-98288190D01*
X181815238Y-97859619D02*
X181862857Y-97812000D01*
X181958095Y-97764380D01*
X182196190Y-97764380D01*
X182291428Y-97812000D01*
X182339047Y-97859619D01*
X182386666Y-97954857D01*
X182386666Y-98050095D01*
X182339047Y-98192952D01*
X181767619Y-98764380D01*
X182386666Y-98764380D01*
%TO.C,TP8*%
X129188095Y-119182380D02*
X129759523Y-119182380D01*
X129473809Y-120182380D02*
X129473809Y-119182380D01*
X130092857Y-120182380D02*
X130092857Y-119182380D01*
X130473809Y-119182380D01*
X130569047Y-119230000D01*
X130616666Y-119277619D01*
X130664285Y-119372857D01*
X130664285Y-119515714D01*
X130616666Y-119610952D01*
X130569047Y-119658571D01*
X130473809Y-119706190D01*
X130092857Y-119706190D01*
X131235714Y-119610952D02*
X131140476Y-119563333D01*
X131092857Y-119515714D01*
X131045238Y-119420476D01*
X131045238Y-119372857D01*
X131092857Y-119277619D01*
X131140476Y-119230000D01*
X131235714Y-119182380D01*
X131426190Y-119182380D01*
X131521428Y-119230000D01*
X131569047Y-119277619D01*
X131616666Y-119372857D01*
X131616666Y-119420476D01*
X131569047Y-119515714D01*
X131521428Y-119563333D01*
X131426190Y-119610952D01*
X131235714Y-119610952D01*
X131140476Y-119658571D01*
X131092857Y-119706190D01*
X131045238Y-119801428D01*
X131045238Y-119991904D01*
X131092857Y-120087142D01*
X131140476Y-120134761D01*
X131235714Y-120182380D01*
X131426190Y-120182380D01*
X131521428Y-120134761D01*
X131569047Y-120087142D01*
X131616666Y-119991904D01*
X131616666Y-119801428D01*
X131569047Y-119706190D01*
X131521428Y-119658571D01*
X131426190Y-119610952D01*
%TO.C,U1*%
X164018095Y-75552380D02*
X164018095Y-76361904D01*
X164065714Y-76457142D01*
X164113333Y-76504761D01*
X164208571Y-76552380D01*
X164399047Y-76552380D01*
X164494285Y-76504761D01*
X164541904Y-76457142D01*
X164589523Y-76361904D01*
X164589523Y-75552380D01*
X165589523Y-76552380D02*
X165018095Y-76552380D01*
X165303809Y-76552380D02*
X165303809Y-75552380D01*
X165208571Y-75695238D01*
X165113333Y-75790476D01*
X165018095Y-75838095D01*
D12*
%TO.C,R8*%
X162448333Y-123744523D02*
X162025000Y-123139761D01*
X161722619Y-123744523D02*
X161722619Y-122474523D01*
X162206428Y-122474523D01*
X162327380Y-122535000D01*
X162387857Y-122595476D01*
X162448333Y-122716428D01*
X162448333Y-122897857D01*
X162387857Y-123018809D01*
X162327380Y-123079285D01*
X162206428Y-123139761D01*
X161722619Y-123139761D01*
X163174047Y-123018809D02*
X163053095Y-122958333D01*
X162992619Y-122897857D01*
X162932142Y-122776904D01*
X162932142Y-122716428D01*
X162992619Y-122595476D01*
X163053095Y-122535000D01*
X163174047Y-122474523D01*
X163415952Y-122474523D01*
X163536904Y-122535000D01*
X163597380Y-122595476D01*
X163657857Y-122716428D01*
X163657857Y-122776904D01*
X163597380Y-122897857D01*
X163536904Y-122958333D01*
X163415952Y-123018809D01*
X163174047Y-123018809D01*
X163053095Y-123079285D01*
X162992619Y-123139761D01*
X162932142Y-123260714D01*
X162932142Y-123502619D01*
X162992619Y-123623571D01*
X163053095Y-123684047D01*
X163174047Y-123744523D01*
X163415952Y-123744523D01*
X163536904Y-123684047D01*
X163597380Y-123623571D01*
X163657857Y-123502619D01*
X163657857Y-123260714D01*
X163597380Y-123139761D01*
X163536904Y-123079285D01*
X163415952Y-123018809D01*
D13*
%TO.C,J2*%
X170228380Y-89639333D02*
X170942666Y-89639333D01*
X171085523Y-89686952D01*
X171180761Y-89782190D01*
X171228380Y-89925047D01*
X171228380Y-90020285D01*
X170323619Y-89210761D02*
X170276000Y-89163142D01*
X170228380Y-89067904D01*
X170228380Y-88829809D01*
X170276000Y-88734571D01*
X170323619Y-88686952D01*
X170418857Y-88639333D01*
X170514095Y-88639333D01*
X170656952Y-88686952D01*
X171228380Y-89258380D01*
X171228380Y-88639333D01*
D12*
%TO.C,R10*%
X146503571Y-78552523D02*
X146080238Y-77947761D01*
X145777857Y-78552523D02*
X145777857Y-77282523D01*
X146261666Y-77282523D01*
X146382619Y-77343000D01*
X146443095Y-77403476D01*
X146503571Y-77524428D01*
X146503571Y-77705857D01*
X146443095Y-77826809D01*
X146382619Y-77887285D01*
X146261666Y-77947761D01*
X145777857Y-77947761D01*
X147713095Y-78552523D02*
X146987380Y-78552523D01*
X147350238Y-78552523D02*
X147350238Y-77282523D01*
X147229285Y-77463952D01*
X147108333Y-77584904D01*
X146987380Y-77645380D01*
X148499285Y-77282523D02*
X148620238Y-77282523D01*
X148741190Y-77343000D01*
X148801666Y-77403476D01*
X148862142Y-77524428D01*
X148922619Y-77766333D01*
X148922619Y-78068714D01*
X148862142Y-78310619D01*
X148801666Y-78431571D01*
X148741190Y-78492047D01*
X148620238Y-78552523D01*
X148499285Y-78552523D01*
X148378333Y-78492047D01*
X148317857Y-78431571D01*
X148257380Y-78310619D01*
X148196904Y-78068714D01*
X148196904Y-77766333D01*
X148257380Y-77524428D01*
X148317857Y-77403476D01*
X148378333Y-77343000D01*
X148499285Y-77282523D01*
%TO.C,Q1*%
X135639047Y-85636476D02*
X135518095Y-85576000D01*
X135397142Y-85455047D01*
X135215714Y-85273619D01*
X135094761Y-85213142D01*
X134973809Y-85213142D01*
X135034285Y-85515523D02*
X134913333Y-85455047D01*
X134792380Y-85334095D01*
X134731904Y-85092190D01*
X134731904Y-84668857D01*
X134792380Y-84426952D01*
X134913333Y-84306000D01*
X135034285Y-84245523D01*
X135276190Y-84245523D01*
X135397142Y-84306000D01*
X135518095Y-84426952D01*
X135578571Y-84668857D01*
X135578571Y-85092190D01*
X135518095Y-85334095D01*
X135397142Y-85455047D01*
X135276190Y-85515523D01*
X135034285Y-85515523D01*
X136788095Y-85515523D02*
X136062380Y-85515523D01*
X136425238Y-85515523D02*
X136425238Y-84245523D01*
X136304285Y-84426952D01*
X136183333Y-84547904D01*
X136062380Y-84608380D01*
D13*
%TO.C,J9*%
X149566666Y-70922380D02*
X149566666Y-71636666D01*
X149519047Y-71779523D01*
X149423809Y-71874761D01*
X149280952Y-71922380D01*
X149185714Y-71922380D01*
X150090476Y-71922380D02*
X150280952Y-71922380D01*
X150376190Y-71874761D01*
X150423809Y-71827142D01*
X150519047Y-71684285D01*
X150566666Y-71493809D01*
X150566666Y-71112857D01*
X150519047Y-71017619D01*
X150471428Y-70970000D01*
X150376190Y-70922380D01*
X150185714Y-70922380D01*
X150090476Y-70970000D01*
X150042857Y-71017619D01*
X149995238Y-71112857D01*
X149995238Y-71350952D01*
X150042857Y-71446190D01*
X150090476Y-71493809D01*
X150185714Y-71541428D01*
X150376190Y-71541428D01*
X150471428Y-71493809D01*
X150519047Y-71446190D01*
X150566666Y-71350952D01*
D14*
%TO.C,C8*%
X154640607Y-120325616D02*
X154659355Y-120344364D01*
X154678102Y-120400607D01*
X154678102Y-120438102D01*
X154659355Y-120494345D01*
X154621859Y-120531841D01*
X154584364Y-120550588D01*
X154509373Y-120569336D01*
X154453130Y-120569336D01*
X154378140Y-120550588D01*
X154340644Y-120531841D01*
X154303149Y-120494345D01*
X154284401Y-120438102D01*
X154284401Y-120400607D01*
X154303149Y-120344364D01*
X154321897Y-120325616D01*
X154453130Y-120100644D02*
X154434383Y-120138140D01*
X154415635Y-120156887D01*
X154378140Y-120175635D01*
X154359392Y-120175635D01*
X154321897Y-120156887D01*
X154303149Y-120138140D01*
X154284401Y-120100644D01*
X154284401Y-120025654D01*
X154303149Y-119988158D01*
X154321897Y-119969411D01*
X154359392Y-119950663D01*
X154378140Y-119950663D01*
X154415635Y-119969411D01*
X154434383Y-119988158D01*
X154453130Y-120025654D01*
X154453130Y-120100644D01*
X154471878Y-120138140D01*
X154490626Y-120156887D01*
X154528121Y-120175635D01*
X154603112Y-120175635D01*
X154640607Y-120156887D01*
X154659355Y-120138140D01*
X154678102Y-120100644D01*
X154678102Y-120025654D01*
X154659355Y-119988158D01*
X154640607Y-119969411D01*
X154603112Y-119950663D01*
X154528121Y-119950663D01*
X154490626Y-119969411D01*
X154471878Y-119988158D01*
X154453130Y-120025654D01*
D12*
%TO.C,C9*%
X151723571Y-117851666D02*
X151784047Y-117912142D01*
X151844523Y-118093571D01*
X151844523Y-118214523D01*
X151784047Y-118395952D01*
X151663095Y-118516904D01*
X151542142Y-118577380D01*
X151300238Y-118637857D01*
X151118809Y-118637857D01*
X150876904Y-118577380D01*
X150755952Y-118516904D01*
X150635000Y-118395952D01*
X150574523Y-118214523D01*
X150574523Y-118093571D01*
X150635000Y-117912142D01*
X150695476Y-117851666D01*
X151844523Y-117246904D02*
X151844523Y-117005000D01*
X151784047Y-116884047D01*
X151723571Y-116823571D01*
X151542142Y-116702619D01*
X151300238Y-116642142D01*
X150816428Y-116642142D01*
X150695476Y-116702619D01*
X150635000Y-116763095D01*
X150574523Y-116884047D01*
X150574523Y-117125952D01*
X150635000Y-117246904D01*
X150695476Y-117307380D01*
X150816428Y-117367857D01*
X151118809Y-117367857D01*
X151239761Y-117307380D01*
X151300238Y-117246904D01*
X151360714Y-117125952D01*
X151360714Y-116884047D01*
X151300238Y-116763095D01*
X151239761Y-116702619D01*
X151118809Y-116642142D01*
D13*
%TO.C,TP3*%
X169788095Y-82042380D02*
X170359523Y-82042380D01*
X170073809Y-83042380D02*
X170073809Y-82042380D01*
X170692857Y-83042380D02*
X170692857Y-82042380D01*
X171073809Y-82042380D01*
X171169047Y-82090000D01*
X171216666Y-82137619D01*
X171264285Y-82232857D01*
X171264285Y-82375714D01*
X171216666Y-82470952D01*
X171169047Y-82518571D01*
X171073809Y-82566190D01*
X170692857Y-82566190D01*
X171597619Y-82042380D02*
X172216666Y-82042380D01*
X171883333Y-82423333D01*
X172026190Y-82423333D01*
X172121428Y-82470952D01*
X172169047Y-82518571D01*
X172216666Y-82613809D01*
X172216666Y-82851904D01*
X172169047Y-82947142D01*
X172121428Y-82994761D01*
X172026190Y-83042380D01*
X171740476Y-83042380D01*
X171645238Y-82994761D01*
X171597619Y-82947142D01*
D12*
%TO.C,R7*%
X153254523Y-128021666D02*
X152649761Y-128445000D01*
X153254523Y-128747380D02*
X151984523Y-128747380D01*
X151984523Y-128263571D01*
X152045000Y-128142619D01*
X152105476Y-128082142D01*
X152226428Y-128021666D01*
X152407857Y-128021666D01*
X152528809Y-128082142D01*
X152589285Y-128142619D01*
X152649761Y-128263571D01*
X152649761Y-128747380D01*
X151984523Y-127598333D02*
X151984523Y-126751666D01*
X153254523Y-127295952D01*
D13*
%TO.C,J12*%
X179750476Y-141497380D02*
X179750476Y-142211666D01*
X179702857Y-142354523D01*
X179607619Y-142449761D01*
X179464761Y-142497380D01*
X179369523Y-142497380D01*
X180750476Y-142497380D02*
X180179047Y-142497380D01*
X180464761Y-142497380D02*
X180464761Y-141497380D01*
X180369523Y-141640238D01*
X180274285Y-141735476D01*
X180179047Y-141783095D01*
X181131428Y-141592619D02*
X181179047Y-141545000D01*
X181274285Y-141497380D01*
X181512380Y-141497380D01*
X181607619Y-141545000D01*
X181655238Y-141592619D01*
X181702857Y-141687857D01*
X181702857Y-141783095D01*
X181655238Y-141925952D01*
X181083809Y-142497380D01*
X181702857Y-142497380D01*
%TO.C,U3*%
X140327143Y-112509916D02*
X140327143Y-113320791D01*
X140374842Y-113416188D01*
X140422540Y-113463887D01*
X140517937Y-113511585D01*
X140708731Y-113511585D01*
X140804128Y-113463887D01*
X140851827Y-113416188D01*
X140899525Y-113320791D01*
X140899525Y-112509916D01*
X141281114Y-112509916D02*
X141901194Y-112509916D01*
X141567305Y-112891505D01*
X141710400Y-112891505D01*
X141805797Y-112939203D01*
X141853496Y-112986902D01*
X141901194Y-113082299D01*
X141901194Y-113320791D01*
X141853496Y-113416188D01*
X141805797Y-113463887D01*
X141710400Y-113511585D01*
X141424209Y-113511585D01*
X141328812Y-113463887D01*
X141281114Y-113416188D01*
%TO.C,J15*%
X171350476Y-104082380D02*
X171350476Y-104796666D01*
X171302857Y-104939523D01*
X171207619Y-105034761D01*
X171064761Y-105082380D01*
X170969523Y-105082380D01*
X172350476Y-105082380D02*
X171779047Y-105082380D01*
X172064761Y-105082380D02*
X172064761Y-104082380D01*
X171969523Y-104225238D01*
X171874285Y-104320476D01*
X171779047Y-104368095D01*
X173255238Y-104082380D02*
X172779047Y-104082380D01*
X172731428Y-104558571D01*
X172779047Y-104510952D01*
X172874285Y-104463333D01*
X173112380Y-104463333D01*
X173207619Y-104510952D01*
X173255238Y-104558571D01*
X173302857Y-104653809D01*
X173302857Y-104891904D01*
X173255238Y-104987142D01*
X173207619Y-105034761D01*
X173112380Y-105082380D01*
X172874285Y-105082380D01*
X172779047Y-105034761D01*
X172731428Y-104987142D01*
D12*
%TO.C,C4*%
X181059571Y-69133666D02*
X181120047Y-69194142D01*
X181180523Y-69375571D01*
X181180523Y-69496523D01*
X181120047Y-69677952D01*
X180999095Y-69798904D01*
X180878142Y-69859380D01*
X180636238Y-69919857D01*
X180454809Y-69919857D01*
X180212904Y-69859380D01*
X180091952Y-69798904D01*
X179971000Y-69677952D01*
X179910523Y-69496523D01*
X179910523Y-69375571D01*
X179971000Y-69194142D01*
X180031476Y-69133666D01*
X180333857Y-68045095D02*
X181180523Y-68045095D01*
X179850047Y-68347476D02*
X180757190Y-68649857D01*
X180757190Y-67863666D01*
D15*
%TO.C,D3*%
X167330000Y-117245000D02*
X165930000Y-117245000D01*
X165930000Y-117245000D02*
X165930000Y-119020000D01*
X167330000Y-119020000D02*
X167330000Y-117245000D01*
%TO.C,J7*%
X170877000Y-74214000D02*
X170877000Y-72689000D01*
D16*
%TO.C,J14*%
X175000000Y-110815000D02*
X175000000Y-108215000D01*
X177660000Y-110815000D02*
X175000000Y-110815000D01*
X177660000Y-112085000D02*
X177660000Y-113415000D01*
X177660000Y-113415000D02*
X176330000Y-113415000D01*
X177660000Y-110815000D02*
X177660000Y-108215000D01*
X177660000Y-108215000D02*
X175000000Y-108215000D01*
%TO.C,TP9*%
X132269000Y-115889000D02*
X132269000Y-114489000D01*
X132269000Y-114489000D02*
X133669000Y-114489000D01*
X133669000Y-115889000D02*
X132269000Y-115889000D01*
X133669000Y-114489000D02*
X133669000Y-115889000D01*
%TO.C,J8*%
X182559000Y-89099000D02*
X179899000Y-89099000D01*
X182559000Y-94299000D02*
X181229000Y-94299000D01*
X182559000Y-92969000D02*
X182559000Y-94299000D01*
X179899000Y-91699000D02*
X179899000Y-89099000D01*
X182559000Y-91699000D02*
X182559000Y-89099000D01*
X182559000Y-91699000D02*
X179899000Y-91699000D01*
D15*
%TO.C,D4*%
X167670000Y-113495000D02*
X167670000Y-111720000D01*
X166270000Y-111720000D02*
X166270000Y-113495000D01*
X166270000Y-113495000D02*
X167670000Y-113495000D01*
D16*
%TO.C,TP11*%
X96328000Y-109285000D02*
X96328000Y-107885000D01*
X97728000Y-109285000D02*
X96328000Y-109285000D01*
X96328000Y-107885000D02*
X97728000Y-107885000D01*
X97728000Y-107885000D02*
X97728000Y-109285000D01*
D15*
%TO.C,R6*%
X165855000Y-124380000D02*
X164805000Y-124380000D01*
D16*
%TO.C,TP5*%
X155640000Y-131380000D02*
X155640000Y-132780000D01*
X155640000Y-132780000D02*
X154240000Y-132780000D01*
X154240000Y-132780000D02*
X154240000Y-131380000D01*
X154240000Y-131380000D02*
X155640000Y-131380000D01*
D15*
%TO.C,D2*%
X168430000Y-64710000D02*
X170205000Y-64710000D01*
X170205000Y-63310000D02*
X168430000Y-63310000D01*
X170205000Y-64710000D02*
X170205000Y-63310000D01*
%TO.C,D1*%
X174825000Y-62340000D02*
X174825000Y-60940000D01*
X174825000Y-60940000D02*
X173050000Y-60940000D01*
X173050000Y-62340000D02*
X174825000Y-62340000D01*
D16*
%TO.C,J4*%
X127785000Y-85140000D02*
X127785000Y-82480000D01*
X104865000Y-85140000D02*
X127785000Y-85140000D01*
X102265000Y-85140000D02*
X102265000Y-83810000D01*
X103595000Y-85140000D02*
X102265000Y-85140000D01*
X104865000Y-82480000D02*
X127785000Y-82480000D01*
X104865000Y-85140000D02*
X104865000Y-82480000D01*
D15*
%TO.C,R5*%
X134960000Y-72375000D02*
X134960000Y-73025000D01*
D16*
%TO.C,J3*%
X85665000Y-148403000D02*
X85665000Y-151063000D01*
X167005000Y-148403000D02*
X167005000Y-151063000D01*
X167005000Y-148403000D02*
X85665000Y-148403000D01*
X169605000Y-151063000D02*
X168275000Y-151063000D01*
X167005000Y-151063000D02*
X85665000Y-151063000D01*
X169605000Y-149733000D02*
X169605000Y-151063000D01*
%TO.C,J1*%
X169463000Y-102193000D02*
X168133000Y-102193000D01*
X166863000Y-99533000D02*
X85523000Y-99533000D01*
X166863000Y-99533000D02*
X166863000Y-102193000D01*
X85523000Y-99533000D02*
X85523000Y-102193000D01*
X169463000Y-100863000D02*
X169463000Y-102193000D01*
X166863000Y-102193000D02*
X85523000Y-102193000D01*
D15*
%TO.C,IC2*%
X160765400Y-129046736D02*
X160765400Y-127446736D01*
X161265400Y-129046736D02*
X160765400Y-129046736D01*
X159940400Y-127346736D02*
X160415400Y-127346736D01*
X161265400Y-127446736D02*
X161265400Y-129046736D01*
X160765400Y-127446736D02*
X161265400Y-127446736D01*
D16*
%TO.C,TP10*%
X100265000Y-108012000D02*
X101665000Y-108012000D01*
X101665000Y-108012000D02*
X101665000Y-109412000D01*
X101665000Y-109412000D02*
X100265000Y-109412000D01*
X100265000Y-109412000D02*
X100265000Y-108012000D01*
%TO.C,TP6*%
X161588400Y-132780000D02*
X160188400Y-132780000D01*
X161588400Y-131380000D02*
X161588400Y-132780000D01*
X160188400Y-132780000D02*
X160188400Y-131380000D01*
X160188400Y-131380000D02*
X161588400Y-131380000D01*
D15*
%TO.C,R9*%
X151782000Y-83566000D02*
X150732000Y-83566000D01*
D16*
%TO.C,TP7*%
X143590000Y-75270000D02*
X142190000Y-75270000D01*
X143590000Y-73870000D02*
X143590000Y-75270000D01*
X142190000Y-75270000D02*
X142190000Y-73870000D01*
X142190000Y-73870000D02*
X143590000Y-73870000D01*
D15*
%TO.C,IC1*%
X132595000Y-78690000D02*
X132595000Y-77490000D01*
X132795000Y-77140000D02*
X132795000Y-76540000D01*
X135645000Y-77140000D02*
X132795000Y-77140000D01*
X132795000Y-76540000D02*
X135645000Y-76540000D01*
X135645000Y-76540000D02*
X135645000Y-77140000D01*
D10*
%TO.C,U2*%
X89942000Y-68984000D02*
X145307000Y-68984000D01*
X149872000Y-56134000D02*
X149872000Y-53444000D01*
X149872000Y-53444000D02*
X89942000Y-53444000D01*
X89942000Y-66294000D02*
X89942000Y-68984000D01*
X149872000Y-68984000D02*
X149872000Y-66294000D01*
X89942000Y-53444000D02*
X89942000Y-56134000D01*
D15*
X155307000Y-61014000D02*
X155307000Y-61014000D01*
X155307000Y-61214000D02*
X155307000Y-61214000D01*
X155307000Y-61014000D02*
G75*
G03*
X155307000Y-61214000I0J-100000D01*
G01*
X155307000Y-61214000D02*
G75*
G03*
X155307000Y-61014000I0J100000D01*
G01*
D16*
%TO.C,J6*%
X177650000Y-117680000D02*
X175920000Y-117680000D01*
X175920000Y-125300000D02*
X175920000Y-124640000D01*
X180220000Y-117680000D02*
X180010000Y-117680000D01*
X175220000Y-123250000D02*
X175220000Y-122800000D01*
X180220000Y-125300000D02*
X180010000Y-125300000D01*
X175220000Y-123250000D02*
X175610000Y-123250000D01*
X177650000Y-125300000D02*
X175920000Y-125300000D01*
X175920000Y-117680000D02*
X175920000Y-118330000D01*
%TO.C,TP1*%
X179490000Y-129410000D02*
X178090000Y-129410000D01*
X178090000Y-129410000D02*
X178090000Y-128010000D01*
X179490000Y-128010000D02*
X179490000Y-129410000D01*
X178090000Y-128010000D02*
X179490000Y-128010000D01*
%TO.C,TP4*%
X166410000Y-133060000D02*
X166410000Y-131660000D01*
X167810000Y-131660000D02*
X167810000Y-133060000D01*
X167810000Y-133060000D02*
X166410000Y-133060000D01*
X166410000Y-131660000D02*
X167810000Y-131660000D01*
D15*
%TO.C,U4*%
X99859000Y-120314000D02*
X99859000Y-116414000D01*
X94959000Y-120314000D02*
X94959000Y-116414000D01*
D17*
X94972500Y-121864000D02*
G75*
G03*
X94972500Y-121864000I-63500J0D01*
G01*
D16*
%TO.C,J5*%
X166990000Y-138014000D02*
X166990000Y-140674000D01*
X169590000Y-140674000D02*
X168260000Y-140674000D01*
X85650000Y-138014000D02*
X85650000Y-140674000D01*
X166990000Y-138014000D02*
X85650000Y-138014000D01*
X166990000Y-140674000D02*
X85650000Y-140674000D01*
X169590000Y-139344000D02*
X169590000Y-140674000D01*
%TO.C,TP2*%
X181920000Y-100460000D02*
X180520000Y-100460000D01*
X181920000Y-99060000D02*
X181920000Y-100460000D01*
X180520000Y-100460000D02*
X180520000Y-99060000D01*
X180520000Y-99060000D02*
X181920000Y-99060000D01*
%TO.C,TP8*%
X131129000Y-118556000D02*
X129729000Y-118556000D01*
X129729000Y-117156000D02*
X131129000Y-117156000D01*
X131129000Y-117156000D02*
X131129000Y-118556000D01*
X129729000Y-118556000D02*
X129729000Y-117156000D01*
%TO.C,U1*%
X164650000Y-81790000D02*
X161930000Y-81790000D01*
X161930000Y-77070000D02*
X164650000Y-77070000D01*
X161930000Y-81790000D02*
X161930000Y-81560000D01*
X160790000Y-77300000D02*
X161930000Y-77300000D01*
X161930000Y-77070000D02*
X161930000Y-77300000D01*
X164650000Y-77070000D02*
X164650000Y-78380000D01*
X164650000Y-80480000D02*
X164650000Y-81790000D01*
D15*
%TO.C,R8*%
X161032400Y-122870000D02*
X159982400Y-122870000D01*
D16*
%TO.C,J2*%
X169336000Y-89306000D02*
X169336000Y-90636000D01*
X166736000Y-90636000D02*
X85396000Y-90636000D01*
X166736000Y-87976000D02*
X166736000Y-90636000D01*
X166736000Y-87976000D02*
X85396000Y-87976000D01*
X85396000Y-87976000D02*
X85396000Y-90636000D01*
X169336000Y-90636000D02*
X168006000Y-90636000D01*
D15*
%TO.C,R10*%
X146423000Y-80069000D02*
X145423000Y-80069000D01*
X145423000Y-80069000D02*
X145423000Y-80069000D01*
X146423000Y-84269000D02*
X146423000Y-84269000D01*
X145423000Y-84269000D02*
X146423000Y-84269000D01*
X146423000Y-84269000D02*
G75*
G03*
X146423000Y-80069000I0J2100000D01*
G01*
X145423000Y-80069000D02*
G75*
G03*
X145423000Y-84269000I0J-2100000D01*
G01*
%TO.C,Q1*%
X139435000Y-83570000D02*
X137960000Y-83570000D01*
X137610000Y-80555000D02*
X137610000Y-83485000D01*
X137610000Y-83485000D02*
X133910000Y-83485000D01*
X133910000Y-83485000D02*
X133910000Y-80555000D01*
X133910000Y-80555000D02*
X137610000Y-80555000D01*
D16*
%TO.C,J9*%
X151130000Y-75244000D02*
X153730000Y-75244000D01*
X151130000Y-75244000D02*
X151130000Y-72584000D01*
X148530000Y-75244000D02*
X148530000Y-73914000D01*
X153730000Y-75244000D02*
X153730000Y-72584000D01*
X149860000Y-75244000D02*
X148530000Y-75244000D01*
X151130000Y-72584000D02*
X153730000Y-72584000D01*
%TO.C,TP3*%
X170500000Y-83750000D02*
X171900000Y-83750000D01*
X171900000Y-83750000D02*
X171900000Y-85150000D01*
X170500000Y-85150000D02*
X170500000Y-83750000D01*
X171900000Y-85150000D02*
X170500000Y-85150000D01*
D15*
%TO.C,R7*%
X155465000Y-127000000D02*
X154415000Y-127000000D01*
D16*
%TO.C,J12*%
X179140000Y-137930000D02*
X179140000Y-140530000D01*
X179140000Y-135330000D02*
X180470000Y-135330000D01*
X179140000Y-136660000D02*
X179140000Y-135330000D01*
X179140000Y-140530000D02*
X181800000Y-140530000D01*
X181800000Y-137930000D02*
X181800000Y-140530000D01*
X179140000Y-137930000D02*
X181800000Y-137930000D01*
D18*
%TO.C,U3*%
X140148000Y-114280000D02*
X140148000Y-124480000D01*
X145348000Y-124480000D02*
X145348000Y-114280000D01*
X145348000Y-114280000D02*
X140148000Y-114280000D01*
X140148000Y-124480000D02*
X145348000Y-124480000D01*
D12*
X138775000Y-114380000D02*
G75*
G03*
X138775000Y-114380000I-127000J0D01*
G01*
D17*
X141508553Y-115180000D02*
G75*
G03*
X141508553Y-115180000I-360553J0D01*
G01*
D16*
%TO.C,J15*%
X175720000Y-97680000D02*
X173060000Y-97680000D01*
X175720000Y-100280000D02*
X175720000Y-97680000D01*
X173060000Y-100280000D02*
X173060000Y-97680000D01*
X175720000Y-102880000D02*
X174390000Y-102880000D01*
X175720000Y-101550000D02*
X175720000Y-102880000D01*
X175720000Y-100280000D02*
X173060000Y-100280000D01*
%TD*%
M02*
