%TF.GenerationSoftware,KiCad,Pcbnew,(6.0.2)*%
%TF.CreationDate,2022-04-11T18:55:53+02:00*%
%TF.ProjectId,main,6d61696e-2e6b-4696-9361-645f70636258,rev?*%
%TF.SameCoordinates,Original*%
%TF.FileFunction,Paste,Top*%
%TF.FilePolarity,Positive*%
%FSLAX46Y46*%
G04 Gerber Fmt 4.6, Leading zero omitted, Abs format (unit mm)*
G04 Created by KiCad (PCBNEW (6.0.2)) date 2022-04-11 18:55:53*
%MOMM*%
%LPD*%
G01*
G04 APERTURE LIST*
G04 Aperture macros list*
%AMFreePoly0*
4,1,9,3.862500,-0.866500,0.737500,-0.866500,0.737500,-0.450000,-0.737500,-0.450000,-0.737500,0.450000,0.737500,0.450000,0.737500,0.866500,3.862500,0.866500,3.862500,-0.866500,3.862500,-0.866500,$1*%
G04 Aperture macros list end*
%ADD10R,0.600000X0.750000*%
%ADD11R,0.650000X0.700000*%
%ADD12R,0.700000X1.525000*%
%ADD13R,3.402000X2.513000*%
%ADD14R,0.620000X0.600000*%
%ADD15R,1.400000X1.000000*%
%ADD16R,0.790000X1.020000*%
%ADD17R,0.750000X0.600000*%
%ADD18R,0.700000X0.650000*%
%ADD19R,0.800000X1.000000*%
%ADD20R,0.475000X0.300000*%
%ADD21R,0.650000X1.200000*%
%ADD22R,7.340000X6.350000*%
%ADD23R,1.400000X0.400000*%
%ADD24R,1.450000X1.150000*%
%ADD25R,1.900000X1.750000*%
%ADD26R,0.600000X1.600000*%
%ADD27R,0.600000X1.550000*%
%ADD28R,1.300000X0.900000*%
%ADD29FreePoly0,0.000000*%
%ADD30R,1.475000X0.450000*%
%ADD31R,0.930000X0.870000*%
%ADD32R,1.500000X0.400000*%
%ADD33R,1.020000X0.790000*%
G04 APERTURE END LIST*
D10*
%TO.C,R4*%
X138730000Y-79000000D03*
X138730000Y-77900000D03*
%TD*%
D11*
%TO.C,D3*%
X166630000Y-117920000D03*
X166630000Y-119020000D03*
%TD*%
D12*
%TO.C,J7*%
X171577000Y-73451000D03*
X172847000Y-73451000D03*
X174117000Y-73451000D03*
X175387000Y-73451000D03*
X175387000Y-68027000D03*
X174117000Y-68027000D03*
X172847000Y-68027000D03*
X171577000Y-68027000D03*
D13*
X173482000Y-70739000D03*
%TD*%
D14*
%TO.C,C10*%
X90380000Y-115640000D03*
X90380000Y-116560000D03*
%TD*%
D11*
%TO.C,D4*%
X166970000Y-112820000D03*
X166970000Y-111720000D03*
%TD*%
D15*
%TO.C,R6*%
X165330000Y-123430000D03*
X165330000Y-125330000D03*
%TD*%
D16*
%TO.C,C2*%
X176953000Y-76962000D03*
X178393000Y-76962000D03*
%TD*%
D17*
%TO.C,R3*%
X173651000Y-76708000D03*
X172551000Y-76708000D03*
%TD*%
D10*
%TO.C,R1*%
X174730000Y-64150000D03*
X174730000Y-65250000D03*
%TD*%
%TO.C,R2*%
X172720000Y-64093000D03*
X172720000Y-65193000D03*
%TD*%
D18*
%TO.C,D2*%
X169530000Y-64010000D03*
X168430000Y-64010000D03*
%TD*%
%TO.C,D1*%
X174150000Y-61640000D03*
X173050000Y-61640000D03*
%TD*%
D19*
%TO.C,R5*%
X134160000Y-72700000D03*
X135760000Y-72700000D03*
%TD*%
D10*
%TO.C,R12*%
X171270000Y-112740000D03*
X171270000Y-111640000D03*
%TD*%
D14*
%TO.C,C7*%
X148717000Y-121999000D03*
X148717000Y-121079000D03*
%TD*%
D20*
%TO.C,IC2*%
X160177400Y-127746736D03*
X160177400Y-128246736D03*
X160177400Y-128746736D03*
X161853400Y-128746736D03*
X161853400Y-128246736D03*
X161853400Y-127746736D03*
%TD*%
D16*
%TO.C,C3*%
X161400000Y-84670000D03*
X159960000Y-84670000D03*
%TD*%
D10*
%TO.C,R11*%
X171560000Y-117940000D03*
X171560000Y-119040000D03*
%TD*%
D15*
%TO.C,R9*%
X151257000Y-82616000D03*
X151257000Y-84516000D03*
%TD*%
D21*
%TO.C,IC1*%
X133270000Y-78090000D03*
X134220000Y-78090000D03*
X135170000Y-78090000D03*
X135170000Y-75590000D03*
X134220000Y-75590000D03*
X133270000Y-75590000D03*
%TD*%
D14*
%TO.C,C6*%
X168440000Y-127890000D03*
X168440000Y-126970000D03*
%TD*%
D22*
%TO.C,U2*%
X151012000Y-61214000D03*
X88802000Y-61214000D03*
%TD*%
D23*
%TO.C,J6*%
X176180000Y-122790000D03*
X176180000Y-122140000D03*
X176180000Y-121490000D03*
X176180000Y-120840000D03*
X176180000Y-120190000D03*
D24*
X176600000Y-123810000D03*
D25*
X178830000Y-122615000D03*
D24*
X176600000Y-119170000D03*
D25*
X178830000Y-120365000D03*
%TD*%
D16*
%TO.C,C5*%
X140190000Y-71310000D03*
X138750000Y-71310000D03*
%TD*%
D26*
%TO.C,U4*%
X95504000Y-121064000D03*
D27*
X96774000Y-121064000D03*
X98044000Y-121064000D03*
X99314000Y-121064000D03*
X99314000Y-115664000D03*
X98044000Y-115664000D03*
X96774000Y-115664000D03*
X95504000Y-115664000D03*
%TD*%
D16*
%TO.C,C1*%
X159030000Y-74140000D03*
X160470000Y-74140000D03*
%TD*%
D28*
%TO.C,U1*%
X161340000Y-77930000D03*
D29*
X161427500Y-79430000D03*
D28*
X161340000Y-80930000D03*
%TD*%
D15*
%TO.C,R8*%
X160507400Y-121920000D03*
X160507400Y-123820000D03*
%TD*%
D30*
%TO.C,Q1*%
X138698000Y-82995000D03*
X138698000Y-82345000D03*
X138698000Y-81695000D03*
X138698000Y-81045000D03*
X132822000Y-81045000D03*
X132822000Y-81695000D03*
X132822000Y-82345000D03*
X132822000Y-82995000D03*
%TD*%
D31*
%TO.C,C8*%
X153289000Y-120251000D03*
X153289000Y-121811000D03*
%TD*%
D14*
%TO.C,C9*%
X151257000Y-120317000D03*
X151257000Y-121237000D03*
%TD*%
D15*
%TO.C,R7*%
X154940000Y-126050000D03*
X154940000Y-127950000D03*
%TD*%
D32*
%TO.C,U3*%
X139123000Y-115155000D03*
X139123000Y-115805000D03*
X139123000Y-116455000D03*
X139123000Y-117105000D03*
X139123000Y-117755000D03*
X139123000Y-118405000D03*
X139123000Y-119055000D03*
X139123000Y-119705000D03*
X139123000Y-120355000D03*
X139123000Y-121005000D03*
X139123000Y-121655000D03*
X139123000Y-122305000D03*
X139123000Y-122955000D03*
X139123000Y-123605000D03*
X146373000Y-123605000D03*
X146373000Y-122955000D03*
X146373000Y-122305000D03*
X146373000Y-121655000D03*
X146373000Y-121005000D03*
X146373000Y-120355000D03*
X146373000Y-119705000D03*
X146373000Y-119055000D03*
X146373000Y-118405000D03*
X146373000Y-117755000D03*
X146373000Y-117105000D03*
X146373000Y-116455000D03*
X146373000Y-115805000D03*
X146373000Y-115155000D03*
%TD*%
D33*
%TO.C,C4*%
X178320000Y-69600000D03*
X178320000Y-68160000D03*
%TD*%
M02*
