%TF.GenerationSoftware,KiCad,Pcbnew,(6.0.2)*%
%TF.CreationDate,2022-04-18T04:53:36+02:00*%
%TF.ProjectId,main,6d61696e-2e6b-4696-9361-645f70636258,rev?*%
%TF.SameCoordinates,Original*%
%TF.FileFunction,Soldermask,Bot*%
%TF.FilePolarity,Negative*%
%FSLAX46Y46*%
G04 Gerber Fmt 4.6, Leading zero omitted, Abs format (unit mm)*
G04 Created by KiCad (PCBNEW (6.0.2)) date 2022-04-18 04:53:36*
%MOMM*%
%LPD*%
G01*
G04 APERTURE LIST*
%ADD10R,1.700000X1.700000*%
%ADD11O,1.700000X1.700000*%
%ADD12O,1.900000X1.050000*%
%ADD13C,1.980000*%
%ADD14R,1.200000X1.200000*%
%ADD15C,1.200000*%
G04 APERTURE END LIST*
D10*
%TO.C,J9*%
X180230000Y-105070000D03*
D11*
X180230000Y-107610000D03*
%TD*%
D10*
%TO.C,J8*%
X181030000Y-88530000D03*
D11*
X181030000Y-91070000D03*
%TD*%
D10*
%TO.C,J4*%
X103595000Y-83810000D03*
D11*
X106135000Y-83810000D03*
X108675000Y-83810000D03*
X111215000Y-83810000D03*
X113755000Y-83810000D03*
X116295000Y-83810000D03*
X118835000Y-83810000D03*
X121375000Y-83810000D03*
X123915000Y-83810000D03*
X126455000Y-83810000D03*
%TD*%
D10*
%TO.C,J3*%
X168275000Y-149733000D03*
D11*
X165735000Y-149733000D03*
X163195000Y-149733000D03*
X160655000Y-149733000D03*
X158115000Y-149733000D03*
X155575000Y-149733000D03*
X153035000Y-149733000D03*
X150495000Y-149733000D03*
X147955000Y-149733000D03*
X145415000Y-149733000D03*
X142875000Y-149733000D03*
X140335000Y-149733000D03*
X137795000Y-149733000D03*
X135255000Y-149733000D03*
X132715000Y-149733000D03*
X130175000Y-149733000D03*
X127635000Y-149733000D03*
X125095000Y-149733000D03*
X122555000Y-149733000D03*
X120015000Y-149733000D03*
X117475000Y-149733000D03*
X114935000Y-149733000D03*
X112395000Y-149733000D03*
X109855000Y-149733000D03*
X107315000Y-149733000D03*
X104775000Y-149733000D03*
X102235000Y-149733000D03*
X99695000Y-149733000D03*
X97155000Y-149733000D03*
X94615000Y-149733000D03*
X92075000Y-149733000D03*
X89535000Y-149733000D03*
X86995000Y-149733000D03*
%TD*%
D10*
%TO.C,J1*%
X168133000Y-100863000D03*
D11*
X165593000Y-100863000D03*
X163053000Y-100863000D03*
X160513000Y-100863000D03*
X157973000Y-100863000D03*
X155433000Y-100863000D03*
X152893000Y-100863000D03*
X150353000Y-100863000D03*
X147813000Y-100863000D03*
X145273000Y-100863000D03*
X142733000Y-100863000D03*
X140193000Y-100863000D03*
X137653000Y-100863000D03*
X135113000Y-100863000D03*
X132573000Y-100863000D03*
X130033000Y-100863000D03*
X127493000Y-100863000D03*
X124953000Y-100863000D03*
X122413000Y-100863000D03*
X119873000Y-100863000D03*
X117333000Y-100863000D03*
X114793000Y-100863000D03*
X112253000Y-100863000D03*
X109713000Y-100863000D03*
X107173000Y-100863000D03*
X104633000Y-100863000D03*
X102093000Y-100863000D03*
X99553000Y-100863000D03*
X97013000Y-100863000D03*
X94473000Y-100863000D03*
X91933000Y-100863000D03*
X89393000Y-100863000D03*
X86853000Y-100863000D03*
%TD*%
D12*
%TO.C,J6*%
X178620000Y-117895000D03*
X178620000Y-125045000D03*
%TD*%
D13*
%TO.C,U2*%
X147342000Y-67944000D03*
%TD*%
D10*
%TO.C,J5*%
X168260000Y-139344000D03*
D11*
X165720000Y-139344000D03*
X163180000Y-139344000D03*
X160640000Y-139344000D03*
X158100000Y-139344000D03*
X155560000Y-139344000D03*
X153020000Y-139344000D03*
X150480000Y-139344000D03*
X147940000Y-139344000D03*
X145400000Y-139344000D03*
X142860000Y-139344000D03*
X140320000Y-139344000D03*
X137780000Y-139344000D03*
X135240000Y-139344000D03*
X132700000Y-139344000D03*
X130160000Y-139344000D03*
X127620000Y-139344000D03*
X125080000Y-139344000D03*
X122540000Y-139344000D03*
X120000000Y-139344000D03*
X117460000Y-139344000D03*
X114920000Y-139344000D03*
X112380000Y-139344000D03*
X109840000Y-139344000D03*
X107300000Y-139344000D03*
X104760000Y-139344000D03*
X102220000Y-139344000D03*
X99680000Y-139344000D03*
X97140000Y-139344000D03*
X94600000Y-139344000D03*
X92060000Y-139344000D03*
X89520000Y-139344000D03*
X86980000Y-139344000D03*
%TD*%
D10*
%TO.C,J2*%
X168006000Y-89306000D03*
D11*
X165466000Y-89306000D03*
X162926000Y-89306000D03*
X160386000Y-89306000D03*
X157846000Y-89306000D03*
X155306000Y-89306000D03*
X152766000Y-89306000D03*
X150226000Y-89306000D03*
X147686000Y-89306000D03*
X145146000Y-89306000D03*
X142606000Y-89306000D03*
X140066000Y-89306000D03*
X137526000Y-89306000D03*
X134986000Y-89306000D03*
X132446000Y-89306000D03*
X129906000Y-89306000D03*
X127366000Y-89306000D03*
X124826000Y-89306000D03*
X122286000Y-89306000D03*
X119746000Y-89306000D03*
X117206000Y-89306000D03*
X114666000Y-89306000D03*
X112126000Y-89306000D03*
X109586000Y-89306000D03*
X107046000Y-89306000D03*
X104506000Y-89306000D03*
X101966000Y-89306000D03*
X99426000Y-89306000D03*
X96886000Y-89306000D03*
X94346000Y-89306000D03*
X91806000Y-89306000D03*
X89266000Y-89306000D03*
X86726000Y-89306000D03*
%TD*%
D14*
%TO.C,R10*%
X144423000Y-82169000D03*
D15*
X147423000Y-82169000D03*
%TD*%
D10*
%TO.C,J7*%
X181060000Y-81765000D03*
D11*
X181060000Y-84305000D03*
%TD*%
D10*
%TO.C,J11*%
X181030000Y-139025000D03*
D11*
X181030000Y-136485000D03*
%TD*%
M02*
