M48
; DRILL file {KiCad (6.0.2)} date Mon Apr 11 18:55:53 2022
; FORMAT={-:-/ absolute / inch / decimal}
; #@! TF.CreationDate,2022-04-11T18:55:53+02:00
; #@! TF.GenerationSoftware,Kicad,Pcbnew,(6.0.2)
; #@! TF.FileFunction,Plated,1,2,PTH
FMAT,2
INCH
; #@! TA.AperFunction,Plated,PTH,ViaDrill
T1C0.0157
; #@! TA.AperFunction,Plated,PTH,ComponentDrill
T2C0.0177
; #@! TA.AperFunction,Plated,PTH,ComponentDrill
T3C0.0276
; #@! TA.AperFunction,Plated,PTH,ComponentDrill
T4C0.0394
%
G90
G05
T1
X3.637Y-3.4332
X3.6984Y-3.3748
X3.8764Y-4.4394
X3.9752Y-4.3244
X4.0681Y-3.2
X4.5453Y-3.4332
X4.5594Y-3.3762
X4.8051Y-4.8701
X4.8394Y-3.4106
X4.9299Y-3.4106
X5.1902Y-4.1669
X5.5748Y-4.6461
X5.6417Y-4.5913
X5.6913Y-4.9232
X5.7571Y-5.376
X5.763Y-4.9311
X5.861Y-5.389
X5.8634Y-4.8437
X5.9012Y-4.8031
X6.0421Y-4.652
X6.1524Y-5.3791
X6.1677Y-4.6461
X6.2559Y-5.0402
X6.4008Y-5.1075
X6.585Y-5.1146
X6.5917Y-4.81
X6.6854Y-2.6827
X6.6984Y-4.7445
X6.6992Y-3.163
X6.7287Y-5.4173
X6.7414Y-2.7262
X6.763Y-4.0567
X6.802Y-5.478
X6.8654Y-4.6693
X6.8657Y-4.8335
X6.9Y-2.6283
X6.9209Y-2.8476
X7.0224Y-3.9858
T3
X5.6859Y-3.235
X5.8041Y-3.235
T4
X3.4144Y-3.516
X3.4194Y-3.971
X3.4244Y-5.486
X3.425Y-5.895
X3.5144Y-3.516
X3.5194Y-3.971
X3.5244Y-5.486
X3.525Y-5.895
X3.6144Y-3.516
X3.6194Y-3.971
X3.6244Y-5.486
X3.625Y-5.895
X3.7144Y-3.516
X3.7194Y-3.971
X3.7244Y-5.486
X3.725Y-5.895
X3.8144Y-3.516
X3.8194Y-3.971
X3.8244Y-5.486
X3.825Y-5.895
X3.9144Y-3.516
X3.9194Y-3.971
X3.9244Y-5.486
X3.925Y-5.895
X4.0144Y-3.516
X4.0194Y-3.971
X4.0244Y-5.486
X4.025Y-5.895
X4.0785Y-3.2996
X4.1144Y-3.516
X4.1194Y-3.971
X4.1244Y-5.486
X4.125Y-5.895
X4.1785Y-3.2996
X4.2144Y-3.516
X4.2194Y-3.971
X4.2244Y-5.486
X4.225Y-5.895
X4.2785Y-3.2996
X4.3144Y-3.516
X4.3194Y-3.971
X4.3244Y-5.486
X4.325Y-5.895
X4.3785Y-3.2996
X4.4144Y-3.516
X4.4194Y-3.971
X4.4244Y-5.486
X4.425Y-5.895
X4.4785Y-3.2996
X4.5144Y-3.516
X4.5194Y-3.971
X4.5244Y-5.486
X4.525Y-5.895
X4.5785Y-3.2996
X4.6144Y-3.516
X4.6194Y-3.971
X4.6244Y-5.486
X4.625Y-5.895
X4.6785Y-3.2996
X4.7144Y-3.516
X4.7194Y-3.971
X4.7244Y-5.486
X4.725Y-5.895
X4.7785Y-3.2996
X4.8144Y-3.516
X4.8194Y-3.971
X4.8244Y-5.486
X4.825Y-5.895
X4.8785Y-3.2996
X4.9144Y-3.516
X4.9194Y-3.971
X4.9244Y-5.486
X4.925Y-5.895
X4.9785Y-3.2996
X5.0144Y-3.516
X5.0194Y-3.971
X5.0244Y-5.486
X5.025Y-5.895
X5.1144Y-3.516
X5.1194Y-3.971
X5.1244Y-5.486
X5.125Y-5.895
X5.2144Y-3.516
X5.2194Y-3.971
X5.2244Y-5.486
X5.225Y-5.895
X5.3144Y-3.516
X5.3194Y-3.971
X5.3244Y-5.486
X5.325Y-5.895
X5.4144Y-3.516
X5.4194Y-3.971
X5.4244Y-5.486
X5.425Y-5.895
X5.5144Y-3.516
X5.5194Y-3.971
X5.5244Y-5.486
X5.525Y-5.895
X5.6144Y-3.516
X5.6194Y-3.971
X5.6244Y-5.486
X5.625Y-5.895
X5.7144Y-3.516
X5.7194Y-3.971
X5.7244Y-5.486
X5.725Y-5.895
X5.8144Y-3.516
X5.8194Y-3.971
X5.8244Y-5.486
X5.825Y-5.895
X5.9Y-2.91
X5.9144Y-3.516
X5.9194Y-3.971
X5.9244Y-5.486
X5.925Y-5.895
X6.0Y-2.91
X6.0144Y-3.516
X6.0194Y-3.971
X6.0244Y-5.486
X6.025Y-5.895
X6.1144Y-3.516
X6.1194Y-3.971
X6.1244Y-5.486
X6.125Y-5.895
X6.2144Y-3.516
X6.2194Y-3.971
X6.2244Y-5.486
X6.225Y-5.895
X6.3144Y-3.516
X6.3194Y-3.971
X6.3244Y-5.486
X6.325Y-5.895
X6.4144Y-3.516
X6.4194Y-3.971
X6.4244Y-5.486
X6.425Y-5.895
X6.5144Y-3.516
X6.5194Y-3.971
X6.5244Y-5.486
X6.525Y-5.895
X6.6144Y-3.516
X6.6194Y-3.971
X6.6244Y-5.486
X6.625Y-5.895
X6.8657Y-3.898
X6.8657Y-3.998
X6.9421Y-4.3128
X6.9421Y-4.4128
X7.1051Y-5.3803
X7.1051Y-5.4803
X7.135Y-3.5602
X7.135Y-3.6602
T2
G00X7.0248Y-4.6423
M15
G01X7.0563Y-4.6423
M16
G05
G00X7.0563Y-4.9238
M15
G01X7.0248Y-4.9238
M16
G05
T0
M30
