%TF.GenerationSoftware,KiCad,Pcbnew,(6.0.2)*%
%TF.CreationDate,2022-04-08T17:55:27+02:00*%
%TF.ProjectId,main,6d61696e-2e6b-4696-9361-645f70636258,rev?*%
%TF.SameCoordinates,Original*%
%TF.FileFunction,Soldermask,Top*%
%TF.FilePolarity,Negative*%
%FSLAX46Y46*%
G04 Gerber Fmt 4.6, Leading zero omitted, Abs format (unit mm)*
G04 Created by KiCad (PCBNEW (6.0.2)) date 2022-04-08 17:55:27*
%MOMM*%
%LPD*%
G01*
G04 APERTURE LIST*
G04 Aperture macros list*
%AMFreePoly0*
4,1,9,3.862500,-0.866500,0.737500,-0.866500,0.737500,-0.450000,-0.737500,-0.450000,-0.737500,0.450000,0.737500,0.450000,0.737500,0.866500,3.862500,0.866500,3.862500,-0.866500,3.862500,-0.866500,$1*%
G04 Aperture macros list end*
%ADD10R,0.600000X0.750000*%
%ADD11R,0.650000X0.700000*%
%ADD12R,0.700000X1.525000*%
%ADD13R,3.402000X2.513000*%
%ADD14R,1.700000X1.700000*%
%ADD15O,1.700000X1.700000*%
%ADD16R,1.000000X1.000000*%
%ADD17R,0.620000X0.600000*%
%ADD18R,1.400000X1.000000*%
%ADD19R,0.790000X1.020000*%
%ADD20R,0.750000X0.600000*%
%ADD21R,0.700000X0.650000*%
%ADD22R,0.800000X1.000000*%
%ADD23R,0.475000X0.300000*%
%ADD24R,0.650000X1.200000*%
%ADD25C,1.980000*%
%ADD26R,7.340000X6.350000*%
%ADD27R,1.400000X0.400000*%
%ADD28O,1.900000X1.050000*%
%ADD29R,1.450000X1.150000*%
%ADD30R,1.900000X1.750000*%
%ADD31R,0.600000X1.600000*%
%ADD32R,0.600000X1.550000*%
%ADD33R,1.300000X0.900000*%
%ADD34FreePoly0,0.000000*%
%ADD35R,1.200000X1.200000*%
%ADD36C,1.200000*%
%ADD37R,1.475000X0.450000*%
%ADD38R,0.930000X0.870000*%
%ADD39R,1.500000X0.400000*%
%ADD40R,1.020000X0.790000*%
G04 APERTURE END LIST*
D10*
%TO.C,R4*%
X138730000Y-79000000D03*
X138730000Y-77900000D03*
%TD*%
D11*
%TO.C,D3*%
X166630000Y-117920000D03*
X166630000Y-119020000D03*
%TD*%
D12*
%TO.C,J7*%
X171577000Y-73451000D03*
X172847000Y-73451000D03*
X174117000Y-73451000D03*
X175387000Y-73451000D03*
X175387000Y-68027000D03*
X174117000Y-68027000D03*
X172847000Y-68027000D03*
X171577000Y-68027000D03*
D13*
X173482000Y-70739000D03*
%TD*%
D14*
%TO.C,J14*%
X176330000Y-112085000D03*
D15*
X176330000Y-109545000D03*
%TD*%
D16*
%TO.C,TP9*%
X132969000Y-115189000D03*
%TD*%
D17*
%TO.C,C10*%
X90380000Y-115640000D03*
X90380000Y-116560000D03*
%TD*%
D14*
%TO.C,J8*%
X181229000Y-92969000D03*
D15*
X181229000Y-90429000D03*
%TD*%
D11*
%TO.C,D4*%
X166970000Y-112820000D03*
X166970000Y-111720000D03*
%TD*%
D16*
%TO.C,TP11*%
X97028000Y-108585000D03*
%TD*%
D18*
%TO.C,R6*%
X165330000Y-123430000D03*
X165330000Y-125330000D03*
%TD*%
D19*
%TO.C,C2*%
X176953000Y-76962000D03*
X178393000Y-76962000D03*
%TD*%
D16*
%TO.C,TP5*%
X154940000Y-132080000D03*
%TD*%
D20*
%TO.C,R3*%
X173651000Y-76708000D03*
X172551000Y-76708000D03*
%TD*%
D10*
%TO.C,R1*%
X174730000Y-64150000D03*
X174730000Y-65250000D03*
%TD*%
%TO.C,R2*%
X172720000Y-64093000D03*
X172720000Y-65193000D03*
%TD*%
D21*
%TO.C,D2*%
X169530000Y-64010000D03*
X168430000Y-64010000D03*
%TD*%
%TO.C,D1*%
X174150000Y-61640000D03*
X173050000Y-61640000D03*
%TD*%
D14*
%TO.C,J4*%
X103595000Y-83810000D03*
D15*
X106135000Y-83810000D03*
X108675000Y-83810000D03*
X111215000Y-83810000D03*
X113755000Y-83810000D03*
X116295000Y-83810000D03*
X118835000Y-83810000D03*
X121375000Y-83810000D03*
X123915000Y-83810000D03*
X126455000Y-83810000D03*
%TD*%
D22*
%TO.C,R5*%
X134160000Y-72700000D03*
X135760000Y-72700000D03*
%TD*%
D10*
%TO.C,R12*%
X171270000Y-112740000D03*
X171270000Y-111640000D03*
%TD*%
D14*
%TO.C,J3*%
X168275000Y-149733000D03*
D15*
X165735000Y-149733000D03*
X163195000Y-149733000D03*
X160655000Y-149733000D03*
X158115000Y-149733000D03*
X155575000Y-149733000D03*
X153035000Y-149733000D03*
X150495000Y-149733000D03*
X147955000Y-149733000D03*
X145415000Y-149733000D03*
X142875000Y-149733000D03*
X140335000Y-149733000D03*
X137795000Y-149733000D03*
X135255000Y-149733000D03*
X132715000Y-149733000D03*
X130175000Y-149733000D03*
X127635000Y-149733000D03*
X125095000Y-149733000D03*
X122555000Y-149733000D03*
X120015000Y-149733000D03*
X117475000Y-149733000D03*
X114935000Y-149733000D03*
X112395000Y-149733000D03*
X109855000Y-149733000D03*
X107315000Y-149733000D03*
X104775000Y-149733000D03*
X102235000Y-149733000D03*
X99695000Y-149733000D03*
X97155000Y-149733000D03*
X94615000Y-149733000D03*
X92075000Y-149733000D03*
X89535000Y-149733000D03*
X86995000Y-149733000D03*
%TD*%
D14*
%TO.C,J1*%
X168133000Y-100863000D03*
D15*
X165593000Y-100863000D03*
X163053000Y-100863000D03*
X160513000Y-100863000D03*
X157973000Y-100863000D03*
X155433000Y-100863000D03*
X152893000Y-100863000D03*
X150353000Y-100863000D03*
X147813000Y-100863000D03*
X145273000Y-100863000D03*
X142733000Y-100863000D03*
X140193000Y-100863000D03*
X137653000Y-100863000D03*
X135113000Y-100863000D03*
X132573000Y-100863000D03*
X130033000Y-100863000D03*
X127493000Y-100863000D03*
X124953000Y-100863000D03*
X122413000Y-100863000D03*
X119873000Y-100863000D03*
X117333000Y-100863000D03*
X114793000Y-100863000D03*
X112253000Y-100863000D03*
X109713000Y-100863000D03*
X107173000Y-100863000D03*
X104633000Y-100863000D03*
X102093000Y-100863000D03*
X99553000Y-100863000D03*
X97013000Y-100863000D03*
X94473000Y-100863000D03*
X91933000Y-100863000D03*
X89393000Y-100863000D03*
X86853000Y-100863000D03*
%TD*%
D17*
%TO.C,C7*%
X148717000Y-121999000D03*
X148717000Y-121079000D03*
%TD*%
D23*
%TO.C,IC2*%
X160177400Y-127746736D03*
X160177400Y-128246736D03*
X160177400Y-128746736D03*
X161853400Y-128746736D03*
X161853400Y-128246736D03*
X161853400Y-127746736D03*
%TD*%
D16*
%TO.C,TP10*%
X100965000Y-108712000D03*
%TD*%
%TO.C,TP6*%
X160888400Y-132080000D03*
%TD*%
D19*
%TO.C,C3*%
X161400000Y-84670000D03*
X159960000Y-84670000D03*
%TD*%
D10*
%TO.C,R11*%
X171560000Y-117940000D03*
X171560000Y-119040000D03*
%TD*%
D18*
%TO.C,R9*%
X151257000Y-82616000D03*
X151257000Y-84516000D03*
%TD*%
D16*
%TO.C,TP7*%
X142890000Y-74570000D03*
%TD*%
D24*
%TO.C,IC1*%
X133270000Y-78090000D03*
X134220000Y-78090000D03*
X135170000Y-78090000D03*
X135170000Y-75590000D03*
X134220000Y-75590000D03*
X133270000Y-75590000D03*
%TD*%
D17*
%TO.C,C6*%
X168440000Y-127890000D03*
X168440000Y-126970000D03*
%TD*%
D25*
%TO.C,U2*%
X147342000Y-67944000D03*
D26*
X151012000Y-61214000D03*
X88802000Y-61214000D03*
%TD*%
D27*
%TO.C,J6*%
X176180000Y-122790000D03*
X176180000Y-122140000D03*
X176180000Y-121490000D03*
X176180000Y-120840000D03*
X176180000Y-120190000D03*
D28*
X178830000Y-125065000D03*
D29*
X176600000Y-123810000D03*
D28*
X178830000Y-117915000D03*
D30*
X178830000Y-122615000D03*
D29*
X176600000Y-119170000D03*
D30*
X178830000Y-120365000D03*
%TD*%
D16*
%TO.C,TP1*%
X178790000Y-128710000D03*
%TD*%
D19*
%TO.C,C5*%
X140190000Y-71310000D03*
X138750000Y-71310000D03*
%TD*%
D16*
%TO.C,TP4*%
X167110000Y-132360000D03*
%TD*%
D31*
%TO.C,U4*%
X95504000Y-121064000D03*
D32*
X96774000Y-121064000D03*
X98044000Y-121064000D03*
X99314000Y-121064000D03*
X99314000Y-115664000D03*
X98044000Y-115664000D03*
X96774000Y-115664000D03*
X95504000Y-115664000D03*
%TD*%
D19*
%TO.C,C1*%
X159030000Y-74140000D03*
X160470000Y-74140000D03*
%TD*%
D14*
%TO.C,J5*%
X168260000Y-139344000D03*
D15*
X165720000Y-139344000D03*
X163180000Y-139344000D03*
X160640000Y-139344000D03*
X158100000Y-139344000D03*
X155560000Y-139344000D03*
X153020000Y-139344000D03*
X150480000Y-139344000D03*
X147940000Y-139344000D03*
X145400000Y-139344000D03*
X142860000Y-139344000D03*
X140320000Y-139344000D03*
X137780000Y-139344000D03*
X135240000Y-139344000D03*
X132700000Y-139344000D03*
X130160000Y-139344000D03*
X127620000Y-139344000D03*
X125080000Y-139344000D03*
X122540000Y-139344000D03*
X120000000Y-139344000D03*
X117460000Y-139344000D03*
X114920000Y-139344000D03*
X112380000Y-139344000D03*
X109840000Y-139344000D03*
X107300000Y-139344000D03*
X104760000Y-139344000D03*
X102220000Y-139344000D03*
X99680000Y-139344000D03*
X97140000Y-139344000D03*
X94600000Y-139344000D03*
X92060000Y-139344000D03*
X89520000Y-139344000D03*
X86980000Y-139344000D03*
%TD*%
D16*
%TO.C,TP2*%
X181220000Y-99760000D03*
%TD*%
%TO.C,TP8*%
X130429000Y-117856000D03*
%TD*%
D33*
%TO.C,U1*%
X161340000Y-77930000D03*
D34*
X161427500Y-79430000D03*
D33*
X161340000Y-80930000D03*
%TD*%
D18*
%TO.C,R8*%
X160507400Y-121920000D03*
X160507400Y-123820000D03*
%TD*%
D14*
%TO.C,J2*%
X168006000Y-89306000D03*
D15*
X165466000Y-89306000D03*
X162926000Y-89306000D03*
X160386000Y-89306000D03*
X157846000Y-89306000D03*
X155306000Y-89306000D03*
X152766000Y-89306000D03*
X150226000Y-89306000D03*
X147686000Y-89306000D03*
X145146000Y-89306000D03*
X142606000Y-89306000D03*
X140066000Y-89306000D03*
X137526000Y-89306000D03*
X134986000Y-89306000D03*
X132446000Y-89306000D03*
X129906000Y-89306000D03*
X127366000Y-89306000D03*
X124826000Y-89306000D03*
X122286000Y-89306000D03*
X119746000Y-89306000D03*
X117206000Y-89306000D03*
X114666000Y-89306000D03*
X112126000Y-89306000D03*
X109586000Y-89306000D03*
X107046000Y-89306000D03*
X104506000Y-89306000D03*
X101966000Y-89306000D03*
X99426000Y-89306000D03*
X96886000Y-89306000D03*
X94346000Y-89306000D03*
X91806000Y-89306000D03*
X89266000Y-89306000D03*
X86726000Y-89306000D03*
%TD*%
D35*
%TO.C,R10*%
X144423000Y-82169000D03*
D36*
X147423000Y-82169000D03*
%TD*%
D37*
%TO.C,Q1*%
X138698000Y-82995000D03*
X138698000Y-82345000D03*
X138698000Y-81695000D03*
X138698000Y-81045000D03*
X132822000Y-81045000D03*
X132822000Y-81695000D03*
X132822000Y-82345000D03*
X132822000Y-82995000D03*
%TD*%
D14*
%TO.C,J9*%
X149860000Y-73914000D03*
D15*
X152400000Y-73914000D03*
%TD*%
D38*
%TO.C,C8*%
X153289000Y-120251000D03*
X153289000Y-121811000D03*
%TD*%
D17*
%TO.C,C9*%
X151257000Y-120317000D03*
X151257000Y-121237000D03*
%TD*%
D16*
%TO.C,TP3*%
X171200000Y-84450000D03*
%TD*%
D18*
%TO.C,R7*%
X154940000Y-126050000D03*
X154940000Y-127950000D03*
%TD*%
D14*
%TO.C,J12*%
X180470000Y-136660000D03*
D15*
X180470000Y-139200000D03*
%TD*%
D39*
%TO.C,U3*%
X139123000Y-115155000D03*
X139123000Y-115805000D03*
X139123000Y-116455000D03*
X139123000Y-117105000D03*
X139123000Y-117755000D03*
X139123000Y-118405000D03*
X139123000Y-119055000D03*
X139123000Y-119705000D03*
X139123000Y-120355000D03*
X139123000Y-121005000D03*
X139123000Y-121655000D03*
X139123000Y-122305000D03*
X139123000Y-122955000D03*
X139123000Y-123605000D03*
X146373000Y-123605000D03*
X146373000Y-122955000D03*
X146373000Y-122305000D03*
X146373000Y-121655000D03*
X146373000Y-121005000D03*
X146373000Y-120355000D03*
X146373000Y-119705000D03*
X146373000Y-119055000D03*
X146373000Y-118405000D03*
X146373000Y-117755000D03*
X146373000Y-117105000D03*
X146373000Y-116455000D03*
X146373000Y-115805000D03*
X146373000Y-115155000D03*
%TD*%
D14*
%TO.C,J15*%
X174390000Y-101550000D03*
D15*
X174390000Y-99010000D03*
%TD*%
D40*
%TO.C,C4*%
X178320000Y-69600000D03*
X178320000Y-68160000D03*
%TD*%
M02*
