M48
; DRILL file {KiCad (6.0.2)} date Mon Apr 18 04:53:36 2022
; FORMAT={-:-/ absolute / inch / decimal}
; #@! TF.CreationDate,2022-04-18T04:53:36+02:00
; #@! TF.GenerationSoftware,Kicad,Pcbnew,(6.0.2)
; #@! TF.FileFunction,Plated,1,2,PTH
FMAT,2
INCH
; #@! TA.AperFunction,Plated,PTH,ViaDrill
T1C0.0157
; #@! TA.AperFunction,Plated,PTH,ComponentDrill
T2C0.0177
; #@! TA.AperFunction,Plated,PTH,ComponentDrill
T3C0.0276
; #@! TA.AperFunction,Plated,PTH,ComponentDrill
T4C0.0394
%
G90
G05
T1
X3.637Y-3.4332
X3.6984Y-3.3748
X3.8764Y-4.4394
X3.9752Y-4.3244
X4.102Y-3.1902
X4.3937Y-4.6106
X4.5453Y-3.4332
X4.5594Y-3.3762
X4.8394Y-3.4106
X4.9299Y-3.4106
X5.2051Y-4.0898
X5.2579Y-4.9008
X5.3138Y-4.8386
X5.5181Y-4.811
X5.5976Y-4.7764
X5.7169Y-4.8559
X5.7343Y-5.3697
X5.7598Y-4.9465
X5.8669Y-4.9224
X5.8728Y-5.3799
X6.0067Y-4.9039
X6.1169Y-4.7811
X6.2272Y-5.0811
X6.2307Y-3.3087
X6.3043Y-4.8116
X6.3461Y-3.2488
X6.3654Y-5.2205
X6.4413Y-3.4256
X6.4587Y-3.2728
X6.4717Y-5.2874
X6.6177Y-2.6161
X6.6382Y-3.065
X6.6508Y-3.2717
X6.6854Y-2.6827
X6.7949Y-5.4866
X6.8079Y-4.8512
X6.8535Y-4.7303
X6.8709Y-5.0043
X6.9Y-2.6283
X6.9059Y-2.9539
X6.9232Y-4.5315
X6.9417Y-3.5752
X7.0031Y-3.3248
X7.0035Y-3.1154
X7.0224Y-3.9858
X7.0331Y-3.661
T3
X5.6859Y-3.235
X5.8041Y-3.235
T4
X3.4144Y-3.516
X3.4194Y-3.971
X3.4244Y-5.486
X3.425Y-5.895
X3.5144Y-3.516
X3.5194Y-3.971
X3.5244Y-5.486
X3.525Y-5.895
X3.6144Y-3.516
X3.6194Y-3.971
X3.6244Y-5.486
X3.625Y-5.895
X3.7144Y-3.516
X3.7194Y-3.971
X3.7244Y-5.486
X3.725Y-5.895
X3.8144Y-3.516
X3.8194Y-3.971
X3.8244Y-5.486
X3.825Y-5.895
X3.9144Y-3.516
X3.9194Y-3.971
X3.9244Y-5.486
X3.925Y-5.895
X4.0144Y-3.516
X4.0194Y-3.971
X4.0244Y-5.486
X4.025Y-5.895
X4.0785Y-3.2996
X4.1144Y-3.516
X4.1194Y-3.971
X4.1244Y-5.486
X4.125Y-5.895
X4.1785Y-3.2996
X4.2144Y-3.516
X4.2194Y-3.971
X4.2244Y-5.486
X4.225Y-5.895
X4.2785Y-3.2996
X4.3144Y-3.516
X4.3194Y-3.971
X4.3244Y-5.486
X4.325Y-5.895
X4.3785Y-3.2996
X4.4144Y-3.516
X4.4194Y-3.971
X4.4244Y-5.486
X4.425Y-5.895
X4.4785Y-3.2996
X4.5144Y-3.516
X4.5194Y-3.971
X4.5244Y-5.486
X4.525Y-5.895
X4.5785Y-3.2996
X4.6144Y-3.516
X4.6194Y-3.971
X4.6244Y-5.486
X4.625Y-5.895
X4.6785Y-3.2996
X4.7144Y-3.516
X4.7194Y-3.971
X4.7244Y-5.486
X4.725Y-5.895
X4.7785Y-3.2996
X4.8144Y-3.516
X4.8194Y-3.971
X4.8244Y-5.486
X4.825Y-5.895
X4.8785Y-3.2996
X4.9144Y-3.516
X4.9194Y-3.971
X4.9244Y-5.486
X4.925Y-5.895
X4.9785Y-3.2996
X5.0144Y-3.516
X5.0194Y-3.971
X5.0244Y-5.486
X5.025Y-5.895
X5.1144Y-3.516
X5.1194Y-3.971
X5.1244Y-5.486
X5.125Y-5.895
X5.2144Y-3.516
X5.2194Y-3.971
X5.2244Y-5.486
X5.225Y-5.895
X5.3144Y-3.516
X5.3194Y-3.971
X5.3244Y-5.486
X5.325Y-5.895
X5.4144Y-3.516
X5.4194Y-3.971
X5.4244Y-5.486
X5.425Y-5.895
X5.5144Y-3.516
X5.5194Y-3.971
X5.5244Y-5.486
X5.525Y-5.895
X5.6144Y-3.516
X5.6194Y-3.971
X5.6244Y-5.486
X5.625Y-5.895
X5.7144Y-3.516
X5.7194Y-3.971
X5.7244Y-5.486
X5.725Y-5.895
X5.8144Y-3.516
X5.8194Y-3.971
X5.8244Y-5.486
X5.825Y-5.895
X5.9144Y-3.516
X5.9194Y-3.971
X5.9244Y-5.486
X5.925Y-5.895
X6.0144Y-3.516
X6.0194Y-3.971
X6.0244Y-5.486
X6.025Y-5.895
X6.1144Y-3.516
X6.1194Y-3.971
X6.1244Y-5.486
X6.125Y-5.895
X6.2144Y-3.516
X6.2194Y-3.971
X6.2244Y-5.486
X6.225Y-5.895
X6.3144Y-3.516
X6.3194Y-3.971
X6.3244Y-5.486
X6.325Y-5.895
X6.4144Y-3.516
X6.4194Y-3.971
X6.4244Y-5.486
X6.425Y-5.895
X6.5144Y-3.516
X6.5194Y-3.971
X6.5244Y-5.486
X6.525Y-5.895
X6.6144Y-3.516
X6.6194Y-3.971
X6.6244Y-5.486
X6.625Y-5.895
X7.0957Y-4.1366
X7.0957Y-4.2366
X7.1272Y-3.4854
X7.1272Y-3.5854
X7.1272Y-5.3734
X7.1272Y-5.4734
X7.1283Y-3.2191
X7.1283Y-3.3191
T2
G00X7.0165Y-4.6415
M15
G01X7.048Y-4.6415
M16
G05
G00X7.048Y-4.923
M15
G01X7.0165Y-4.923
M16
G05
T0
M30
