%TF.GenerationSoftware,KiCad,Pcbnew,(6.0.2)*%
%TF.CreationDate,2022-04-18T04:53:36+02:00*%
%TF.ProjectId,main,6d61696e-2e6b-4696-9361-645f70636258,rev?*%
%TF.SameCoordinates,Original*%
%TF.FileFunction,Soldermask,Top*%
%TF.FilePolarity,Negative*%
%FSLAX46Y46*%
G04 Gerber Fmt 4.6, Leading zero omitted, Abs format (unit mm)*
G04 Created by KiCad (PCBNEW (6.0.2)) date 2022-04-18 04:53:36*
%MOMM*%
%LPD*%
G01*
G04 APERTURE LIST*
G04 Aperture macros list*
%AMRoundRect*
0 Rectangle with rounded corners*
0 $1 Rounding radius*
0 $2 $3 $4 $5 $6 $7 $8 $9 X,Y pos of 4 corners*
0 Add a 4 corners polygon primitive as box body*
4,1,4,$2,$3,$4,$5,$6,$7,$8,$9,$2,$3,0*
0 Add four circle primitives for the rounded corners*
1,1,$1+$1,$2,$3*
1,1,$1+$1,$4,$5*
1,1,$1+$1,$6,$7*
1,1,$1+$1,$8,$9*
0 Add four rect primitives between the rounded corners*
20,1,$1+$1,$2,$3,$4,$5,0*
20,1,$1+$1,$4,$5,$6,$7,0*
20,1,$1+$1,$6,$7,$8,$9,0*
20,1,$1+$1,$8,$9,$2,$3,0*%
%AMFreePoly0*
4,1,9,3.862500,-0.866500,0.737500,-0.866500,0.737500,-0.450000,-0.737500,-0.450000,-0.737500,0.450000,0.737500,0.450000,0.737500,0.866500,3.862500,0.866500,3.862500,-0.866500,3.862500,-0.866500,$1*%
G04 Aperture macros list end*
%ADD10R,0.600000X0.750000*%
%ADD11R,1.700000X1.700000*%
%ADD12O,1.700000X1.700000*%
%ADD13R,0.700000X1.525000*%
%ADD14R,3.402000X2.513000*%
%ADD15R,1.000000X1.400000*%
%ADD16R,0.600000X0.620000*%
%ADD17R,0.620000X0.600000*%
%ADD18R,1.000000X1.000000*%
%ADD19RoundRect,0.049600X-0.605400X-0.260400X0.605400X-0.260400X0.605400X0.260400X-0.605400X0.260400X0*%
%ADD20R,0.790000X1.020000*%
%ADD21R,0.750000X0.600000*%
%ADD22R,0.700000X0.650000*%
%ADD23R,0.800000X1.000000*%
%ADD24R,1.400000X1.000000*%
%ADD25R,1.400000X0.400000*%
%ADD26R,1.450000X1.150000*%
%ADD27R,1.900000X1.750000*%
%ADD28O,1.900000X1.050000*%
%ADD29R,0.900000X1.300000*%
%ADD30FreePoly0,90.000000*%
%ADD31R,0.650000X1.200000*%
%ADD32C,1.980000*%
%ADD33R,7.340000X6.350000*%
%ADD34R,0.600000X1.600000*%
%ADD35R,0.600000X1.550000*%
%ADD36R,1.020000X0.790000*%
%ADD37R,1.200000X1.200000*%
%ADD38C,1.200000*%
%ADD39R,1.475000X0.450000*%
%ADD40R,0.700000X1.550000*%
G04 APERTURE END LIST*
D10*
%TO.C,R4*%
X138730000Y-79000000D03*
X138730000Y-77900000D03*
%TD*%
D11*
%TO.C,J9*%
X180230000Y-105070000D03*
D12*
X180230000Y-107610000D03*
%TD*%
D13*
%TO.C,J10*%
X171577000Y-73451000D03*
X172847000Y-73451000D03*
X174117000Y-73451000D03*
X175387000Y-73451000D03*
X175387000Y-68027000D03*
X174117000Y-68027000D03*
X172847000Y-68027000D03*
X171577000Y-68027000D03*
D14*
X173482000Y-70739000D03*
%TD*%
D15*
%TO.C,R7*%
X151370000Y-117950000D03*
X149470000Y-117950000D03*
%TD*%
D16*
%TO.C,C7*%
X146710000Y-108800000D03*
X147630000Y-108800000D03*
%TD*%
D17*
%TO.C,C8*%
X90380000Y-115640000D03*
X90380000Y-116560000D03*
%TD*%
D11*
%TO.C,J8*%
X181030000Y-88530000D03*
D12*
X181030000Y-91070000D03*
%TD*%
D18*
%TO.C,TP11*%
X97028000Y-108585000D03*
%TD*%
D19*
%TO.C,U3*%
X136860000Y-108815000D03*
X136860000Y-110085000D03*
X136860000Y-111355000D03*
X136860000Y-112625000D03*
X136860000Y-113895000D03*
X136860000Y-115165000D03*
X136860000Y-116435000D03*
X136860000Y-117705000D03*
X142360000Y-117705000D03*
X142360000Y-116435000D03*
X142360000Y-115165000D03*
X142360000Y-113895000D03*
X142360000Y-112625000D03*
X142360000Y-111355000D03*
X142360000Y-110085000D03*
X142360000Y-108815000D03*
%TD*%
D18*
%TO.C,TP4*%
X147410000Y-132900000D03*
%TD*%
D20*
%TO.C,C2*%
X179140000Y-76580000D03*
X177700000Y-76580000D03*
%TD*%
D21*
%TO.C,R3*%
X172450000Y-76610000D03*
X171350000Y-76610000D03*
%TD*%
D10*
%TO.C,R1*%
X174730000Y-64150000D03*
X174730000Y-65250000D03*
%TD*%
D18*
%TO.C,TP6*%
X154510000Y-132720000D03*
%TD*%
D10*
%TO.C,R2*%
X172720000Y-64093000D03*
X172720000Y-65193000D03*
%TD*%
D22*
%TO.C,D2*%
X169530000Y-64010000D03*
X168430000Y-64010000D03*
%TD*%
%TO.C,D1*%
X174150000Y-61640000D03*
X173050000Y-61640000D03*
%TD*%
D11*
%TO.C,J4*%
X103595000Y-83810000D03*
D12*
X106135000Y-83810000D03*
X108675000Y-83810000D03*
X111215000Y-83810000D03*
X113755000Y-83810000D03*
X116295000Y-83810000D03*
X118835000Y-83810000D03*
X121375000Y-83810000D03*
X123915000Y-83810000D03*
X126455000Y-83810000D03*
%TD*%
D23*
%TO.C,R5*%
X134160000Y-72700000D03*
X135760000Y-72700000D03*
%TD*%
D11*
%TO.C,J3*%
X168275000Y-149733000D03*
D12*
X165735000Y-149733000D03*
X163195000Y-149733000D03*
X160655000Y-149733000D03*
X158115000Y-149733000D03*
X155575000Y-149733000D03*
X153035000Y-149733000D03*
X150495000Y-149733000D03*
X147955000Y-149733000D03*
X145415000Y-149733000D03*
X142875000Y-149733000D03*
X140335000Y-149733000D03*
X137795000Y-149733000D03*
X135255000Y-149733000D03*
X132715000Y-149733000D03*
X130175000Y-149733000D03*
X127635000Y-149733000D03*
X125095000Y-149733000D03*
X122555000Y-149733000D03*
X120015000Y-149733000D03*
X117475000Y-149733000D03*
X114935000Y-149733000D03*
X112395000Y-149733000D03*
X109855000Y-149733000D03*
X107315000Y-149733000D03*
X104775000Y-149733000D03*
X102235000Y-149733000D03*
X99695000Y-149733000D03*
X97155000Y-149733000D03*
X94615000Y-149733000D03*
X92075000Y-149733000D03*
X89535000Y-149733000D03*
X86995000Y-149733000D03*
%TD*%
D24*
%TO.C,R6*%
X141770000Y-127670000D03*
X141770000Y-129570000D03*
%TD*%
%TO.C,R8*%
X154640000Y-126240000D03*
X154640000Y-128140000D03*
%TD*%
D11*
%TO.C,J1*%
X168133000Y-100863000D03*
D12*
X165593000Y-100863000D03*
X163053000Y-100863000D03*
X160513000Y-100863000D03*
X157973000Y-100863000D03*
X155433000Y-100863000D03*
X152893000Y-100863000D03*
X150353000Y-100863000D03*
X147813000Y-100863000D03*
X145273000Y-100863000D03*
X142733000Y-100863000D03*
X140193000Y-100863000D03*
X137653000Y-100863000D03*
X135113000Y-100863000D03*
X132573000Y-100863000D03*
X130033000Y-100863000D03*
X127493000Y-100863000D03*
X124953000Y-100863000D03*
X122413000Y-100863000D03*
X119873000Y-100863000D03*
X117333000Y-100863000D03*
X114793000Y-100863000D03*
X112253000Y-100863000D03*
X109713000Y-100863000D03*
X107173000Y-100863000D03*
X104633000Y-100863000D03*
X102093000Y-100863000D03*
X99553000Y-100863000D03*
X97013000Y-100863000D03*
X94473000Y-100863000D03*
X91933000Y-100863000D03*
X89393000Y-100863000D03*
X86853000Y-100863000D03*
%TD*%
D18*
%TO.C,TP10*%
X100965000Y-108712000D03*
%TD*%
D17*
%TO.C,C6*%
X160140000Y-127340000D03*
X160140000Y-126420000D03*
%TD*%
D20*
%TO.C,C3*%
X161400000Y-84670000D03*
X159960000Y-84670000D03*
%TD*%
D18*
%TO.C,TP8*%
X129570000Y-109270000D03*
%TD*%
D25*
%TO.C,J6*%
X175970000Y-122770000D03*
X175970000Y-122120000D03*
X175970000Y-121470000D03*
X175970000Y-120820000D03*
X175970000Y-120170000D03*
D26*
X176390000Y-119150000D03*
D27*
X178620000Y-120345000D03*
D26*
X176390000Y-123790000D03*
D28*
X178620000Y-117895000D03*
D27*
X178620000Y-122595000D03*
D28*
X178620000Y-125045000D03*
%TD*%
D24*
%TO.C,R9*%
X151257000Y-82616000D03*
X151257000Y-84516000D03*
%TD*%
D29*
%TO.C,U1*%
X159660000Y-80610000D03*
D30*
X161160000Y-80522500D03*
D29*
X162660000Y-80610000D03*
%TD*%
D18*
%TO.C,TP7*%
X142890000Y-74570000D03*
%TD*%
D31*
%TO.C,IC1*%
X133270000Y-78090000D03*
X134220000Y-78090000D03*
X135170000Y-78090000D03*
X135170000Y-75590000D03*
X134220000Y-75590000D03*
X133270000Y-75590000D03*
%TD*%
D32*
%TO.C,U2*%
X147342000Y-67944000D03*
D33*
X151012000Y-61214000D03*
X88802000Y-61214000D03*
%TD*%
D18*
%TO.C,TP1*%
X178790000Y-128710000D03*
%TD*%
D20*
%TO.C,C5*%
X140190000Y-71310000D03*
X138750000Y-71310000D03*
%TD*%
D34*
%TO.C,U4*%
X95504000Y-121064000D03*
D35*
X96774000Y-121064000D03*
X98044000Y-121064000D03*
X99314000Y-121064000D03*
X99314000Y-115664000D03*
X98044000Y-115664000D03*
X96774000Y-115664000D03*
X95504000Y-115664000D03*
%TD*%
D18*
%TO.C,TP9*%
X126060000Y-111030000D03*
%TD*%
D36*
%TO.C,C1*%
X159750000Y-73460000D03*
X159750000Y-74900000D03*
%TD*%
D11*
%TO.C,J5*%
X168260000Y-139344000D03*
D12*
X165720000Y-139344000D03*
X163180000Y-139344000D03*
X160640000Y-139344000D03*
X158100000Y-139344000D03*
X155560000Y-139344000D03*
X153020000Y-139344000D03*
X150480000Y-139344000D03*
X147940000Y-139344000D03*
X145400000Y-139344000D03*
X142860000Y-139344000D03*
X140320000Y-139344000D03*
X137780000Y-139344000D03*
X135240000Y-139344000D03*
X132700000Y-139344000D03*
X130160000Y-139344000D03*
X127620000Y-139344000D03*
X125080000Y-139344000D03*
X122540000Y-139344000D03*
X120000000Y-139344000D03*
X117460000Y-139344000D03*
X114920000Y-139344000D03*
X112380000Y-139344000D03*
X109840000Y-139344000D03*
X107300000Y-139344000D03*
X104760000Y-139344000D03*
X102220000Y-139344000D03*
X99680000Y-139344000D03*
X97140000Y-139344000D03*
X94600000Y-139344000D03*
X92060000Y-139344000D03*
X89520000Y-139344000D03*
X86980000Y-139344000D03*
%TD*%
D18*
%TO.C,TP2*%
X175950000Y-112320000D03*
%TD*%
D11*
%TO.C,J2*%
X168006000Y-89306000D03*
D12*
X165466000Y-89306000D03*
X162926000Y-89306000D03*
X160386000Y-89306000D03*
X157846000Y-89306000D03*
X155306000Y-89306000D03*
X152766000Y-89306000D03*
X150226000Y-89306000D03*
X147686000Y-89306000D03*
X145146000Y-89306000D03*
X142606000Y-89306000D03*
X140066000Y-89306000D03*
X137526000Y-89306000D03*
X134986000Y-89306000D03*
X132446000Y-89306000D03*
X129906000Y-89306000D03*
X127366000Y-89306000D03*
X124826000Y-89306000D03*
X122286000Y-89306000D03*
X119746000Y-89306000D03*
X117206000Y-89306000D03*
X114666000Y-89306000D03*
X112126000Y-89306000D03*
X109586000Y-89306000D03*
X107046000Y-89306000D03*
X104506000Y-89306000D03*
X101966000Y-89306000D03*
X99426000Y-89306000D03*
X96886000Y-89306000D03*
X94346000Y-89306000D03*
X91806000Y-89306000D03*
X89266000Y-89306000D03*
X86726000Y-89306000D03*
%TD*%
D37*
%TO.C,R10*%
X144423000Y-82169000D03*
D38*
X147423000Y-82169000D03*
%TD*%
D18*
%TO.C,TP5*%
X150810000Y-132740000D03*
%TD*%
D39*
%TO.C,Q1*%
X138698000Y-82995000D03*
X138698000Y-82345000D03*
X138698000Y-81695000D03*
X138698000Y-81045000D03*
X132822000Y-81045000D03*
X132822000Y-81695000D03*
X132822000Y-82345000D03*
X132822000Y-82995000D03*
%TD*%
D18*
%TO.C,TP3*%
X171200000Y-84450000D03*
%TD*%
D11*
%TO.C,J7*%
X181060000Y-81765000D03*
D12*
X181060000Y-84305000D03*
%TD*%
D40*
%TO.C,IC2*%
X150195000Y-121925000D03*
X148925000Y-121925000D03*
X147655000Y-121925000D03*
X146385000Y-121925000D03*
X146385000Y-127375000D03*
X147655000Y-127375000D03*
X148925000Y-127375000D03*
X150195000Y-127375000D03*
%TD*%
D11*
%TO.C,J11*%
X181030000Y-139025000D03*
D12*
X181030000Y-136485000D03*
%TD*%
D36*
%TO.C,C4*%
X178360000Y-66740000D03*
X178360000Y-68180000D03*
%TD*%
M02*
