M48
; DRILL file {KiCad (6.0.2)} date Sun Mar 20 22:54:07 2022
; FORMAT={-:-/ absolute / inch / decimal}
; #@! TF.CreationDate,2022-03-20T22:54:07+02:00
; #@! TF.GenerationSoftware,Kicad,Pcbnew,(6.0.2)
; #@! TF.FileFunction,Plated,1,2,PTH
FMAT,2
INCH
; #@! TA.AperFunction,Plated,PTH,ViaDrill
T1C0.0157
; #@! TA.AperFunction,Plated,PTH,ComponentDrill
T2C0.0276
; #@! TA.AperFunction,Plated,PTH,ComponentDrill
T3C0.0394
; #@! TA.AperFunction,Plated,PTH,ComponentDrill
T4C0.0512
%
G90
G05
T1
X3.535Y-5.235
X3.635Y-4.475
X3.643Y-4.2997
X3.84Y-4.2787
X3.84Y-4.365
X5.4773Y-4.5278
X5.57Y-4.755
X5.6959Y-4.8459
X5.7Y-4.7669
X5.7028Y-4.7099
X5.705Y-3.74
X5.7627Y-4.8722
X5.825Y-3.5826
X6.08Y-5.105
X6.085Y-4.585
X6.0878Y-5.2909
X6.0975Y-5.3655
X6.14Y-5.3495
X6.1455Y-5.2905
X6.3Y-5.33
X6.44Y-3.38
X6.44Y-3.485
X6.6222Y-3.3146
X6.775Y-3.46
X6.805Y-3.875
X6.805Y-3.965
X6.9803Y-5.3997
X7.0052Y-5.4648
X7.025Y-4.74
X7.08Y-4.8355
X7.13Y-5.02
T2
X5.5559Y-3.565
X5.6741Y-3.565
X6.976Y-4.6895
X6.976Y-4.8805
T3
X3.425Y-4.23
X3.425Y-4.33
X3.425Y-4.43
X3.425Y-4.53
X3.425Y-5.0148
X3.425Y-5.1148
X3.425Y-5.2148
X3.425Y-5.3148
X3.425Y-5.4148
X3.605Y-4.025
X3.605Y-5.625
X3.705Y-4.025
X3.705Y-5.625
X3.805Y-4.025
X3.805Y-5.625
X3.905Y-4.025
X3.905Y-5.625
X4.005Y-4.025
X4.005Y-5.625
X4.105Y-4.025
X4.105Y-5.625
X4.205Y-4.025
X4.205Y-5.625
X4.305Y-4.025
X4.305Y-5.625
X4.405Y-4.025
X4.405Y-5.625
X4.505Y-4.025
X4.505Y-5.625
X4.605Y-4.025
X4.605Y-5.625
X4.705Y-4.025
X4.705Y-5.625
X4.805Y-4.025
X4.805Y-5.625
X4.905Y-4.025
X4.905Y-5.625
X5.005Y-4.025
X5.005Y-5.625
X5.105Y-4.025
X5.105Y-5.625
X5.205Y-4.025
X5.205Y-5.625
X5.305Y-4.025
X5.305Y-5.625
X5.405Y-4.025
X5.405Y-5.625
X5.505Y-4.025
X5.505Y-5.625
X5.605Y-4.025
X5.605Y-5.625
X5.705Y-4.025
X5.705Y-5.625
X5.77Y-3.24
X5.805Y-4.025
X5.805Y-5.625
X5.87Y-3.24
X5.905Y-4.025
X5.905Y-5.625
X6.005Y-4.025
X6.005Y-5.625
X6.105Y-4.025
X6.105Y-5.625
X6.205Y-4.025
X6.205Y-5.625
X6.305Y-4.025
X6.305Y-5.625
X6.405Y-4.025
X6.405Y-5.625
X6.505Y-4.025
X6.505Y-5.625
X6.605Y-4.025
X6.605Y-5.625
X6.705Y-4.025
X6.705Y-5.625
X6.805Y-4.025
X6.805Y-5.625
X6.995Y-3.8306
X6.995Y-3.9306
X6.995Y-4.0306
X7.115Y-5.215
X7.115Y-5.315
X7.115Y-5.415
X7.115Y-5.515
X7.115Y-5.615
X7.115Y-5.715
X7.165Y-3.8502
X7.165Y-3.9502
T4
X7.0811Y-4.6433
X7.0811Y-4.9267
T0
M30
