%TF.GenerationSoftware,KiCad,Pcbnew,(6.0.2)*%
%TF.CreationDate,2022-04-18T04:53:36+02:00*%
%TF.ProjectId,main,6d61696e-2e6b-4696-9361-645f70636258,rev?*%
%TF.SameCoordinates,Original*%
%TF.FileFunction,Legend,Top*%
%TF.FilePolarity,Positive*%
%FSLAX46Y46*%
G04 Gerber Fmt 4.6, Leading zero omitted, Abs format (unit mm)*
G04 Created by KiCad (PCBNEW (6.0.2)) date 2022-04-18 04:53:36*
%MOMM*%
%LPD*%
G01*
G04 APERTURE LIST*
%ADD10C,0.100000*%
%ADD11C,0.300000*%
%ADD12C,0.254000*%
%ADD13C,0.150000*%
%ADD14C,0.120000*%
%ADD15C,0.200000*%
%ADD16C,0.127000*%
G04 APERTURE END LIST*
D10*
X172720000Y-116590000D02*
X182880000Y-116590000D01*
X182880000Y-116590000D02*
X182880000Y-126750000D01*
X182880000Y-126750000D02*
X172720000Y-126750000D01*
X172720000Y-126750000D02*
X172720000Y-116590000D01*
D11*
X178374761Y-116123809D02*
X179993809Y-116123809D01*
X180184285Y-116028571D01*
X180279523Y-115933333D01*
X180374761Y-115742857D01*
X180374761Y-115361904D01*
X180279523Y-115171428D01*
X180184285Y-115076190D01*
X179993809Y-114980952D01*
X178374761Y-114980952D01*
X180279523Y-114123809D02*
X180374761Y-113838095D01*
X180374761Y-113361904D01*
X180279523Y-113171428D01*
X180184285Y-113076190D01*
X179993809Y-112980952D01*
X179803333Y-112980952D01*
X179612857Y-113076190D01*
X179517619Y-113171428D01*
X179422380Y-113361904D01*
X179327142Y-113742857D01*
X179231904Y-113933333D01*
X179136666Y-114028571D01*
X178946190Y-114123809D01*
X178755714Y-114123809D01*
X178565238Y-114028571D01*
X178470000Y-113933333D01*
X178374761Y-113742857D01*
X178374761Y-113266666D01*
X178470000Y-112980952D01*
X179327142Y-111457142D02*
X179422380Y-111171428D01*
X179517619Y-111076190D01*
X179708095Y-110980952D01*
X179993809Y-110980952D01*
X180184285Y-111076190D01*
X180279523Y-111171428D01*
X180374761Y-111361904D01*
X180374761Y-112123809D01*
X178374761Y-112123809D01*
X178374761Y-111457142D01*
X178470000Y-111266666D01*
X178565238Y-111171428D01*
X178755714Y-111076190D01*
X178946190Y-111076190D01*
X179136666Y-111171428D01*
X179231904Y-111266666D01*
X179327142Y-111457142D01*
X179327142Y-112123809D01*
D12*
%TO.C,R4*%
X140924523Y-78531666D02*
X140319761Y-78955000D01*
X140924523Y-79257380D02*
X139654523Y-79257380D01*
X139654523Y-78773571D01*
X139715000Y-78652619D01*
X139775476Y-78592142D01*
X139896428Y-78531666D01*
X140077857Y-78531666D01*
X140198809Y-78592142D01*
X140259285Y-78652619D01*
X140319761Y-78773571D01*
X140319761Y-79257380D01*
X140077857Y-77443095D02*
X140924523Y-77443095D01*
X139594047Y-77745476D02*
X140501190Y-78047857D01*
X140501190Y-77261666D01*
D13*
%TO.C,J9*%
X177096666Y-104412380D02*
X177096666Y-105126666D01*
X177049047Y-105269523D01*
X176953809Y-105364761D01*
X176810952Y-105412380D01*
X176715714Y-105412380D01*
X177620476Y-105412380D02*
X177810952Y-105412380D01*
X177906190Y-105364761D01*
X177953809Y-105317142D01*
X178049047Y-105174285D01*
X178096666Y-104983809D01*
X178096666Y-104602857D01*
X178049047Y-104507619D01*
X178001428Y-104460000D01*
X177906190Y-104412380D01*
X177715714Y-104412380D01*
X177620476Y-104460000D01*
X177572857Y-104507619D01*
X177525238Y-104602857D01*
X177525238Y-104840952D01*
X177572857Y-104936190D01*
X177620476Y-104983809D01*
X177715714Y-105031428D01*
X177906190Y-105031428D01*
X178001428Y-104983809D01*
X178049047Y-104936190D01*
X178096666Y-104840952D01*
D12*
%TO.C,J10*%
X169074523Y-72678095D02*
X169981666Y-72678095D01*
X170163095Y-72738571D01*
X170284047Y-72859523D01*
X170344523Y-73040952D01*
X170344523Y-73161904D01*
X170344523Y-71408095D02*
X170344523Y-72133809D01*
X170344523Y-71770952D02*
X169074523Y-71770952D01*
X169255952Y-71891904D01*
X169376904Y-72012857D01*
X169437380Y-72133809D01*
X169074523Y-70621904D02*
X169074523Y-70500952D01*
X169135000Y-70380000D01*
X169195476Y-70319523D01*
X169316428Y-70259047D01*
X169558333Y-70198571D01*
X169860714Y-70198571D01*
X170102619Y-70259047D01*
X170223571Y-70319523D01*
X170284047Y-70380000D01*
X170344523Y-70500952D01*
X170344523Y-70621904D01*
X170284047Y-70742857D01*
X170223571Y-70803333D01*
X170102619Y-70863809D01*
X169860714Y-70924285D01*
X169558333Y-70924285D01*
X169316428Y-70863809D01*
X169195476Y-70803333D01*
X169135000Y-70742857D01*
X169074523Y-70621904D01*
%TO.C,R7*%
X148318333Y-116004523D02*
X147895000Y-115399761D01*
X147592619Y-116004523D02*
X147592619Y-114734523D01*
X148076428Y-114734523D01*
X148197380Y-114795000D01*
X148257857Y-114855476D01*
X148318333Y-114976428D01*
X148318333Y-115157857D01*
X148257857Y-115278809D01*
X148197380Y-115339285D01*
X148076428Y-115399761D01*
X147592619Y-115399761D01*
X148741666Y-114734523D02*
X149588333Y-114734523D01*
X149044047Y-116004523D01*
%TO.C,C7*%
X149448333Y-109273571D02*
X149387857Y-109334047D01*
X149206428Y-109394523D01*
X149085476Y-109394523D01*
X148904047Y-109334047D01*
X148783095Y-109213095D01*
X148722619Y-109092142D01*
X148662142Y-108850238D01*
X148662142Y-108668809D01*
X148722619Y-108426904D01*
X148783095Y-108305952D01*
X148904047Y-108185000D01*
X149085476Y-108124523D01*
X149206428Y-108124523D01*
X149387857Y-108185000D01*
X149448333Y-108245476D01*
X149871666Y-108124523D02*
X150718333Y-108124523D01*
X150174047Y-109394523D01*
%TO.C,C8*%
X89488333Y-114363571D02*
X89427857Y-114424047D01*
X89246428Y-114484523D01*
X89125476Y-114484523D01*
X88944047Y-114424047D01*
X88823095Y-114303095D01*
X88762619Y-114182142D01*
X88702142Y-113940238D01*
X88702142Y-113758809D01*
X88762619Y-113516904D01*
X88823095Y-113395952D01*
X88944047Y-113275000D01*
X89125476Y-113214523D01*
X89246428Y-113214523D01*
X89427857Y-113275000D01*
X89488333Y-113335476D01*
X90214047Y-113758809D02*
X90093095Y-113698333D01*
X90032619Y-113637857D01*
X89972142Y-113516904D01*
X89972142Y-113456428D01*
X90032619Y-113335476D01*
X90093095Y-113275000D01*
X90214047Y-113214523D01*
X90455952Y-113214523D01*
X90576904Y-113275000D01*
X90637380Y-113335476D01*
X90697857Y-113456428D01*
X90697857Y-113516904D01*
X90637380Y-113637857D01*
X90576904Y-113698333D01*
X90455952Y-113758809D01*
X90214047Y-113758809D01*
X90093095Y-113819285D01*
X90032619Y-113879761D01*
X89972142Y-114000714D01*
X89972142Y-114242619D01*
X90032619Y-114363571D01*
X90093095Y-114424047D01*
X90214047Y-114484523D01*
X90455952Y-114484523D01*
X90576904Y-114424047D01*
X90637380Y-114363571D01*
X90697857Y-114242619D01*
X90697857Y-114000714D01*
X90637380Y-113879761D01*
X90576904Y-113819285D01*
X90455952Y-113758809D01*
D13*
%TO.C,J8*%
X180652380Y-94353333D02*
X181366666Y-94353333D01*
X181509523Y-94400952D01*
X181604761Y-94496190D01*
X181652380Y-94639047D01*
X181652380Y-94734285D01*
X181080952Y-93734285D02*
X181033333Y-93829523D01*
X180985714Y-93877142D01*
X180890476Y-93924761D01*
X180842857Y-93924761D01*
X180747619Y-93877142D01*
X180700000Y-93829523D01*
X180652380Y-93734285D01*
X180652380Y-93543809D01*
X180700000Y-93448571D01*
X180747619Y-93400952D01*
X180842857Y-93353333D01*
X180890476Y-93353333D01*
X180985714Y-93400952D01*
X181033333Y-93448571D01*
X181080952Y-93543809D01*
X181080952Y-93734285D01*
X181128571Y-93829523D01*
X181176190Y-93877142D01*
X181271428Y-93924761D01*
X181461904Y-93924761D01*
X181557142Y-93877142D01*
X181604761Y-93829523D01*
X181652380Y-93734285D01*
X181652380Y-93543809D01*
X181604761Y-93448571D01*
X181557142Y-93400952D01*
X181461904Y-93353333D01*
X181271428Y-93353333D01*
X181176190Y-93400952D01*
X181128571Y-93448571D01*
X181080952Y-93543809D01*
%TO.C,TP11*%
X95461904Y-105742380D02*
X96033333Y-105742380D01*
X95747619Y-106742380D02*
X95747619Y-105742380D01*
X96366666Y-106742380D02*
X96366666Y-105742380D01*
X96747619Y-105742380D01*
X96842857Y-105790000D01*
X96890476Y-105837619D01*
X96938095Y-105932857D01*
X96938095Y-106075714D01*
X96890476Y-106170952D01*
X96842857Y-106218571D01*
X96747619Y-106266190D01*
X96366666Y-106266190D01*
X97890476Y-106742380D02*
X97319047Y-106742380D01*
X97604761Y-106742380D02*
X97604761Y-105742380D01*
X97509523Y-105885238D01*
X97414285Y-105980476D01*
X97319047Y-106028095D01*
X98842857Y-106742380D02*
X98271428Y-106742380D01*
X98557142Y-106742380D02*
X98557142Y-105742380D01*
X98461904Y-105885238D01*
X98366666Y-105980476D01*
X98271428Y-106028095D01*
%TO.C,U3*%
X138368095Y-105827380D02*
X138368095Y-106636904D01*
X138415714Y-106732142D01*
X138463333Y-106779761D01*
X138558571Y-106827380D01*
X138749047Y-106827380D01*
X138844285Y-106779761D01*
X138891904Y-106732142D01*
X138939523Y-106636904D01*
X138939523Y-105827380D01*
X139320476Y-105827380D02*
X139939523Y-105827380D01*
X139606190Y-106208333D01*
X139749047Y-106208333D01*
X139844285Y-106255952D01*
X139891904Y-106303571D01*
X139939523Y-106398809D01*
X139939523Y-106636904D01*
X139891904Y-106732142D01*
X139844285Y-106779761D01*
X139749047Y-106827380D01*
X139463333Y-106827380D01*
X139368095Y-106779761D01*
X139320476Y-106732142D01*
%TO.C,TP4*%
X145278095Y-130722380D02*
X145849523Y-130722380D01*
X145563809Y-131722380D02*
X145563809Y-130722380D01*
X146182857Y-131722380D02*
X146182857Y-130722380D01*
X146563809Y-130722380D01*
X146659047Y-130770000D01*
X146706666Y-130817619D01*
X146754285Y-130912857D01*
X146754285Y-131055714D01*
X146706666Y-131150952D01*
X146659047Y-131198571D01*
X146563809Y-131246190D01*
X146182857Y-131246190D01*
X147611428Y-131055714D02*
X147611428Y-131722380D01*
X147373333Y-130674761D02*
X147135238Y-131389047D01*
X147754285Y-131389047D01*
D12*
%TO.C,C2*%
X178808333Y-74583571D02*
X178747857Y-74644047D01*
X178566428Y-74704523D01*
X178445476Y-74704523D01*
X178264047Y-74644047D01*
X178143095Y-74523095D01*
X178082619Y-74402142D01*
X178022142Y-74160238D01*
X178022142Y-73978809D01*
X178082619Y-73736904D01*
X178143095Y-73615952D01*
X178264047Y-73495000D01*
X178445476Y-73434523D01*
X178566428Y-73434523D01*
X178747857Y-73495000D01*
X178808333Y-73555476D01*
X179292142Y-73555476D02*
X179352619Y-73495000D01*
X179473571Y-73434523D01*
X179775952Y-73434523D01*
X179896904Y-73495000D01*
X179957380Y-73555476D01*
X180017857Y-73676428D01*
X180017857Y-73797380D01*
X179957380Y-73978809D01*
X179231666Y-74704523D01*
X180017857Y-74704523D01*
%TO.C,R3*%
X169208333Y-75804523D02*
X168785000Y-75199761D01*
X168482619Y-75804523D02*
X168482619Y-74534523D01*
X168966428Y-74534523D01*
X169087380Y-74595000D01*
X169147857Y-74655476D01*
X169208333Y-74776428D01*
X169208333Y-74957857D01*
X169147857Y-75078809D01*
X169087380Y-75139285D01*
X168966428Y-75199761D01*
X168482619Y-75199761D01*
X169631666Y-74534523D02*
X170417857Y-74534523D01*
X169994523Y-75018333D01*
X170175952Y-75018333D01*
X170296904Y-75078809D01*
X170357380Y-75139285D01*
X170417857Y-75260238D01*
X170417857Y-75562619D01*
X170357380Y-75683571D01*
X170296904Y-75744047D01*
X170175952Y-75804523D01*
X169813095Y-75804523D01*
X169692142Y-75744047D01*
X169631666Y-75683571D01*
%TO.C,R1*%
X177133523Y-64728666D02*
X176528761Y-65152000D01*
X177133523Y-65454380D02*
X175863523Y-65454380D01*
X175863523Y-64970571D01*
X175924000Y-64849619D01*
X175984476Y-64789142D01*
X176105428Y-64728666D01*
X176286857Y-64728666D01*
X176407809Y-64789142D01*
X176468285Y-64849619D01*
X176528761Y-64970571D01*
X176528761Y-65454380D01*
X177133523Y-63519142D02*
X177133523Y-64244857D01*
X177133523Y-63882000D02*
X175863523Y-63882000D01*
X176044952Y-64002952D01*
X176165904Y-64123904D01*
X176226380Y-64244857D01*
D13*
%TO.C,TP6*%
X155798095Y-132262380D02*
X156369523Y-132262380D01*
X156083809Y-133262380D02*
X156083809Y-132262380D01*
X156702857Y-133262380D02*
X156702857Y-132262380D01*
X157083809Y-132262380D01*
X157179047Y-132310000D01*
X157226666Y-132357619D01*
X157274285Y-132452857D01*
X157274285Y-132595714D01*
X157226666Y-132690952D01*
X157179047Y-132738571D01*
X157083809Y-132786190D01*
X156702857Y-132786190D01*
X158131428Y-132262380D02*
X157940952Y-132262380D01*
X157845714Y-132310000D01*
X157798095Y-132357619D01*
X157702857Y-132500476D01*
X157655238Y-132690952D01*
X157655238Y-133071904D01*
X157702857Y-133167142D01*
X157750476Y-133214761D01*
X157845714Y-133262380D01*
X158036190Y-133262380D01*
X158131428Y-133214761D01*
X158179047Y-133167142D01*
X158226666Y-133071904D01*
X158226666Y-132833809D01*
X158179047Y-132738571D01*
X158131428Y-132690952D01*
X158036190Y-132643333D01*
X157845714Y-132643333D01*
X157750476Y-132690952D01*
X157702857Y-132738571D01*
X157655238Y-132833809D01*
D12*
%TO.C,R2*%
X171864523Y-65881666D02*
X171259761Y-66305000D01*
X171864523Y-66607380D02*
X170594523Y-66607380D01*
X170594523Y-66123571D01*
X170655000Y-66002619D01*
X170715476Y-65942142D01*
X170836428Y-65881666D01*
X171017857Y-65881666D01*
X171138809Y-65942142D01*
X171199285Y-66002619D01*
X171259761Y-66123571D01*
X171259761Y-66607380D01*
X170715476Y-65397857D02*
X170655000Y-65337380D01*
X170594523Y-65216428D01*
X170594523Y-64914047D01*
X170655000Y-64793095D01*
X170715476Y-64732619D01*
X170836428Y-64672142D01*
X170957380Y-64672142D01*
X171138809Y-64732619D01*
X171864523Y-65458333D01*
X171864523Y-64672142D01*
%TO.C,D2*%
X165462619Y-64564523D02*
X165462619Y-63294523D01*
X165765000Y-63294523D01*
X165946428Y-63355000D01*
X166067380Y-63475952D01*
X166127857Y-63596904D01*
X166188333Y-63838809D01*
X166188333Y-64020238D01*
X166127857Y-64262142D01*
X166067380Y-64383095D01*
X165946428Y-64504047D01*
X165765000Y-64564523D01*
X165462619Y-64564523D01*
X166672142Y-63415476D02*
X166732619Y-63355000D01*
X166853571Y-63294523D01*
X167155952Y-63294523D01*
X167276904Y-63355000D01*
X167337380Y-63415476D01*
X167397857Y-63536428D01*
X167397857Y-63657380D01*
X167337380Y-63838809D01*
X166611666Y-64564523D01*
X167397857Y-64564523D01*
%TO.C,D1*%
X175563619Y-62237523D02*
X175563619Y-60967523D01*
X175866000Y-60967523D01*
X176047428Y-61028000D01*
X176168380Y-61148952D01*
X176228857Y-61269904D01*
X176289333Y-61511809D01*
X176289333Y-61693238D01*
X176228857Y-61935142D01*
X176168380Y-62056095D01*
X176047428Y-62177047D01*
X175866000Y-62237523D01*
X175563619Y-62237523D01*
X177498857Y-62237523D02*
X176773142Y-62237523D01*
X177136000Y-62237523D02*
X177136000Y-60967523D01*
X177015047Y-61148952D01*
X176894095Y-61269904D01*
X176773142Y-61330380D01*
D13*
%TO.C,J4*%
X103231666Y-85722380D02*
X103231666Y-86436666D01*
X103184047Y-86579523D01*
X103088809Y-86674761D01*
X102945952Y-86722380D01*
X102850714Y-86722380D01*
X104136428Y-86055714D02*
X104136428Y-86722380D01*
X103898333Y-85674761D02*
X103660238Y-86389047D01*
X104279285Y-86389047D01*
D12*
%TO.C,R5*%
X137528333Y-74484523D02*
X137105000Y-73879761D01*
X136802619Y-74484523D02*
X136802619Y-73214523D01*
X137286428Y-73214523D01*
X137407380Y-73275000D01*
X137467857Y-73335476D01*
X137528333Y-73456428D01*
X137528333Y-73637857D01*
X137467857Y-73758809D01*
X137407380Y-73819285D01*
X137286428Y-73879761D01*
X136802619Y-73879761D01*
X138677380Y-73214523D02*
X138072619Y-73214523D01*
X138012142Y-73819285D01*
X138072619Y-73758809D01*
X138193571Y-73698333D01*
X138495952Y-73698333D01*
X138616904Y-73758809D01*
X138677380Y-73819285D01*
X138737857Y-73940238D01*
X138737857Y-74242619D01*
X138677380Y-74363571D01*
X138616904Y-74424047D01*
X138495952Y-74484523D01*
X138193571Y-74484523D01*
X138072619Y-74424047D01*
X138012142Y-74363571D01*
D13*
%TO.C,J3*%
X170497380Y-150066333D02*
X171211666Y-150066333D01*
X171354523Y-150113952D01*
X171449761Y-150209190D01*
X171497380Y-150352047D01*
X171497380Y-150447285D01*
X170497380Y-149685380D02*
X170497380Y-149066333D01*
X170878333Y-149399666D01*
X170878333Y-149256809D01*
X170925952Y-149161571D01*
X170973571Y-149113952D01*
X171068809Y-149066333D01*
X171306904Y-149066333D01*
X171402142Y-149113952D01*
X171449761Y-149161571D01*
X171497380Y-149256809D01*
X171497380Y-149542523D01*
X171449761Y-149637761D01*
X171402142Y-149685380D01*
D12*
%TO.C,R6*%
X139674523Y-128771666D02*
X139069761Y-129195000D01*
X139674523Y-129497380D02*
X138404523Y-129497380D01*
X138404523Y-129013571D01*
X138465000Y-128892619D01*
X138525476Y-128832142D01*
X138646428Y-128771666D01*
X138827857Y-128771666D01*
X138948809Y-128832142D01*
X139009285Y-128892619D01*
X139069761Y-129013571D01*
X139069761Y-129497380D01*
X138404523Y-127683095D02*
X138404523Y-127925000D01*
X138465000Y-128045952D01*
X138525476Y-128106428D01*
X138706904Y-128227380D01*
X138948809Y-128287857D01*
X139432619Y-128287857D01*
X139553571Y-128227380D01*
X139614047Y-128166904D01*
X139674523Y-128045952D01*
X139674523Y-127804047D01*
X139614047Y-127683095D01*
X139553571Y-127622619D01*
X139432619Y-127562142D01*
X139130238Y-127562142D01*
X139009285Y-127622619D01*
X138948809Y-127683095D01*
X138888333Y-127804047D01*
X138888333Y-128045952D01*
X138948809Y-128166904D01*
X139009285Y-128227380D01*
X139130238Y-128287857D01*
%TO.C,R8*%
X157074523Y-124331666D02*
X156469761Y-124755000D01*
X157074523Y-125057380D02*
X155804523Y-125057380D01*
X155804523Y-124573571D01*
X155865000Y-124452619D01*
X155925476Y-124392142D01*
X156046428Y-124331666D01*
X156227857Y-124331666D01*
X156348809Y-124392142D01*
X156409285Y-124452619D01*
X156469761Y-124573571D01*
X156469761Y-125057380D01*
X156348809Y-123605952D02*
X156288333Y-123726904D01*
X156227857Y-123787380D01*
X156106904Y-123847857D01*
X156046428Y-123847857D01*
X155925476Y-123787380D01*
X155865000Y-123726904D01*
X155804523Y-123605952D01*
X155804523Y-123364047D01*
X155865000Y-123243095D01*
X155925476Y-123182619D01*
X156046428Y-123122142D01*
X156106904Y-123122142D01*
X156227857Y-123182619D01*
X156288333Y-123243095D01*
X156348809Y-123364047D01*
X156348809Y-123605952D01*
X156409285Y-123726904D01*
X156469761Y-123787380D01*
X156590714Y-123847857D01*
X156832619Y-123847857D01*
X156953571Y-123787380D01*
X157014047Y-123726904D01*
X157074523Y-123605952D01*
X157074523Y-123364047D01*
X157014047Y-123243095D01*
X156953571Y-123182619D01*
X156832619Y-123122142D01*
X156590714Y-123122142D01*
X156469761Y-123182619D01*
X156409285Y-123243095D01*
X156348809Y-123364047D01*
D13*
%TO.C,J1*%
X168986666Y-97792380D02*
X168986666Y-98506666D01*
X168939047Y-98649523D01*
X168843809Y-98744761D01*
X168700952Y-98792380D01*
X168605714Y-98792380D01*
X169986666Y-98792380D02*
X169415238Y-98792380D01*
X169700952Y-98792380D02*
X169700952Y-97792380D01*
X169605714Y-97935238D01*
X169510476Y-98030476D01*
X169415238Y-98078095D01*
%TO.C,TP10*%
X102401904Y-108291380D02*
X102973333Y-108291380D01*
X102687619Y-109291380D02*
X102687619Y-108291380D01*
X103306666Y-109291380D02*
X103306666Y-108291380D01*
X103687619Y-108291380D01*
X103782857Y-108339000D01*
X103830476Y-108386619D01*
X103878095Y-108481857D01*
X103878095Y-108624714D01*
X103830476Y-108719952D01*
X103782857Y-108767571D01*
X103687619Y-108815190D01*
X103306666Y-108815190D01*
X104830476Y-109291380D02*
X104259047Y-109291380D01*
X104544761Y-109291380D02*
X104544761Y-108291380D01*
X104449523Y-108434238D01*
X104354285Y-108529476D01*
X104259047Y-108577095D01*
X105449523Y-108291380D02*
X105544761Y-108291380D01*
X105640000Y-108339000D01*
X105687619Y-108386619D01*
X105735238Y-108481857D01*
X105782857Y-108672333D01*
X105782857Y-108910428D01*
X105735238Y-109100904D01*
X105687619Y-109196142D01*
X105640000Y-109243761D01*
X105544761Y-109291380D01*
X105449523Y-109291380D01*
X105354285Y-109243761D01*
X105306666Y-109196142D01*
X105259047Y-109100904D01*
X105211428Y-108910428D01*
X105211428Y-108672333D01*
X105259047Y-108481857D01*
X105306666Y-108386619D01*
X105354285Y-108339000D01*
X105449523Y-108291380D01*
D12*
%TO.C,C6*%
X162283571Y-127231666D02*
X162344047Y-127292142D01*
X162404523Y-127473571D01*
X162404523Y-127594523D01*
X162344047Y-127775952D01*
X162223095Y-127896904D01*
X162102142Y-127957380D01*
X161860238Y-128017857D01*
X161678809Y-128017857D01*
X161436904Y-127957380D01*
X161315952Y-127896904D01*
X161195000Y-127775952D01*
X161134523Y-127594523D01*
X161134523Y-127473571D01*
X161195000Y-127292142D01*
X161255476Y-127231666D01*
X161134523Y-126143095D02*
X161134523Y-126385000D01*
X161195000Y-126505952D01*
X161255476Y-126566428D01*
X161436904Y-126687380D01*
X161678809Y-126747857D01*
X162162619Y-126747857D01*
X162283571Y-126687380D01*
X162344047Y-126626904D01*
X162404523Y-126505952D01*
X162404523Y-126264047D01*
X162344047Y-126143095D01*
X162283571Y-126082619D01*
X162162619Y-126022142D01*
X161860238Y-126022142D01*
X161739285Y-126082619D01*
X161678809Y-126143095D01*
X161618333Y-126264047D01*
X161618333Y-126505952D01*
X161678809Y-126626904D01*
X161739285Y-126687380D01*
X161860238Y-126747857D01*
%TO.C,C3*%
X158478333Y-83343571D02*
X158417857Y-83404047D01*
X158236428Y-83464523D01*
X158115476Y-83464523D01*
X157934047Y-83404047D01*
X157813095Y-83283095D01*
X157752619Y-83162142D01*
X157692142Y-82920238D01*
X157692142Y-82738809D01*
X157752619Y-82496904D01*
X157813095Y-82375952D01*
X157934047Y-82255000D01*
X158115476Y-82194523D01*
X158236428Y-82194523D01*
X158417857Y-82255000D01*
X158478333Y-82315476D01*
X158901666Y-82194523D02*
X159687857Y-82194523D01*
X159264523Y-82678333D01*
X159445952Y-82678333D01*
X159566904Y-82738809D01*
X159627380Y-82799285D01*
X159687857Y-82920238D01*
X159687857Y-83222619D01*
X159627380Y-83343571D01*
X159566904Y-83404047D01*
X159445952Y-83464523D01*
X159083095Y-83464523D01*
X158962142Y-83404047D01*
X158901666Y-83343571D01*
D13*
%TO.C,TP8*%
X129278095Y-107012380D02*
X129849523Y-107012380D01*
X129563809Y-108012380D02*
X129563809Y-107012380D01*
X130182857Y-108012380D02*
X130182857Y-107012380D01*
X130563809Y-107012380D01*
X130659047Y-107060000D01*
X130706666Y-107107619D01*
X130754285Y-107202857D01*
X130754285Y-107345714D01*
X130706666Y-107440952D01*
X130659047Y-107488571D01*
X130563809Y-107536190D01*
X130182857Y-107536190D01*
X131325714Y-107440952D02*
X131230476Y-107393333D01*
X131182857Y-107345714D01*
X131135238Y-107250476D01*
X131135238Y-107202857D01*
X131182857Y-107107619D01*
X131230476Y-107060000D01*
X131325714Y-107012380D01*
X131516190Y-107012380D01*
X131611428Y-107060000D01*
X131659047Y-107107619D01*
X131706666Y-107202857D01*
X131706666Y-107250476D01*
X131659047Y-107345714D01*
X131611428Y-107393333D01*
X131516190Y-107440952D01*
X131325714Y-107440952D01*
X131230476Y-107488571D01*
X131182857Y-107536190D01*
X131135238Y-107631428D01*
X131135238Y-107821904D01*
X131182857Y-107917142D01*
X131230476Y-107964761D01*
X131325714Y-108012380D01*
X131516190Y-108012380D01*
X131611428Y-107964761D01*
X131659047Y-107917142D01*
X131706666Y-107821904D01*
X131706666Y-107631428D01*
X131659047Y-107536190D01*
X131611428Y-107488571D01*
X131516190Y-107440952D01*
%TO.C,J6*%
X173572380Y-121803333D02*
X174286666Y-121803333D01*
X174429523Y-121850952D01*
X174524761Y-121946190D01*
X174572380Y-122089047D01*
X174572380Y-122184285D01*
X173572380Y-120898571D02*
X173572380Y-121089047D01*
X173620000Y-121184285D01*
X173667619Y-121231904D01*
X173810476Y-121327142D01*
X174000952Y-121374761D01*
X174381904Y-121374761D01*
X174477142Y-121327142D01*
X174524761Y-121279523D01*
X174572380Y-121184285D01*
X174572380Y-120993809D01*
X174524761Y-120898571D01*
X174477142Y-120850952D01*
X174381904Y-120803333D01*
X174143809Y-120803333D01*
X174048571Y-120850952D01*
X174000952Y-120898571D01*
X173953333Y-120993809D01*
X173953333Y-121184285D01*
X174000952Y-121279523D01*
X174048571Y-121327142D01*
X174143809Y-121374761D01*
D12*
%TO.C,R9*%
X153609523Y-77681666D02*
X153004761Y-78105000D01*
X153609523Y-78407380D02*
X152339523Y-78407380D01*
X152339523Y-77923571D01*
X152400000Y-77802619D01*
X152460476Y-77742142D01*
X152581428Y-77681666D01*
X152762857Y-77681666D01*
X152883809Y-77742142D01*
X152944285Y-77802619D01*
X153004761Y-77923571D01*
X153004761Y-78407380D01*
X153609523Y-77076904D02*
X153609523Y-76835000D01*
X153549047Y-76714047D01*
X153488571Y-76653571D01*
X153307142Y-76532619D01*
X153065238Y-76472142D01*
X152581428Y-76472142D01*
X152460476Y-76532619D01*
X152400000Y-76593095D01*
X152339523Y-76714047D01*
X152339523Y-76955952D01*
X152400000Y-77076904D01*
X152460476Y-77137380D01*
X152581428Y-77197857D01*
X152883809Y-77197857D01*
X153004761Y-77137380D01*
X153065238Y-77076904D01*
X153125714Y-76955952D01*
X153125714Y-76714047D01*
X153065238Y-76593095D01*
X153004761Y-76532619D01*
X152883809Y-76472142D01*
D13*
%TO.C,U1*%
X157112380Y-79421904D02*
X157921904Y-79421904D01*
X158017142Y-79374285D01*
X158064761Y-79326666D01*
X158112380Y-79231428D01*
X158112380Y-79040952D01*
X158064761Y-78945714D01*
X158017142Y-78898095D01*
X157921904Y-78850476D01*
X157112380Y-78850476D01*
X158112380Y-77850476D02*
X158112380Y-78421904D01*
X158112380Y-78136190D02*
X157112380Y-78136190D01*
X157255238Y-78231428D01*
X157350476Y-78326666D01*
X157398095Y-78421904D01*
%TO.C,TP7*%
X144103095Y-74172380D02*
X144674523Y-74172380D01*
X144388809Y-75172380D02*
X144388809Y-74172380D01*
X145007857Y-75172380D02*
X145007857Y-74172380D01*
X145388809Y-74172380D01*
X145484047Y-74220000D01*
X145531666Y-74267619D01*
X145579285Y-74362857D01*
X145579285Y-74505714D01*
X145531666Y-74600952D01*
X145484047Y-74648571D01*
X145388809Y-74696190D01*
X145007857Y-74696190D01*
X145912619Y-74172380D02*
X146579285Y-74172380D01*
X146150714Y-75172380D01*
D12*
%TO.C,IC1*%
X131144523Y-78089761D02*
X129874523Y-78089761D01*
X131023571Y-76759285D02*
X131084047Y-76819761D01*
X131144523Y-77001190D01*
X131144523Y-77122142D01*
X131084047Y-77303571D01*
X130963095Y-77424523D01*
X130842142Y-77485000D01*
X130600238Y-77545476D01*
X130418809Y-77545476D01*
X130176904Y-77485000D01*
X130055952Y-77424523D01*
X129935000Y-77303571D01*
X129874523Y-77122142D01*
X129874523Y-77001190D01*
X129935000Y-76819761D01*
X129995476Y-76759285D01*
X131144523Y-75549761D02*
X131144523Y-76275476D01*
X131144523Y-75912619D02*
X129874523Y-75912619D01*
X130055952Y-76033571D01*
X130176904Y-76154523D01*
X130237380Y-76275476D01*
%TO.C,U2*%
X157655380Y-52771523D02*
X157655380Y-53799619D01*
X157715857Y-53920571D01*
X157776333Y-53981047D01*
X157897285Y-54041523D01*
X158139190Y-54041523D01*
X158260142Y-53981047D01*
X158320619Y-53920571D01*
X158381095Y-53799619D01*
X158381095Y-52771523D01*
X158925380Y-52892476D02*
X158985857Y-52832000D01*
X159106809Y-52771523D01*
X159409190Y-52771523D01*
X159530142Y-52832000D01*
X159590619Y-52892476D01*
X159651095Y-53013428D01*
X159651095Y-53134380D01*
X159590619Y-53315809D01*
X158864904Y-54041523D01*
X159651095Y-54041523D01*
D13*
%TO.C,TP1*%
X175298095Y-129182380D02*
X175869523Y-129182380D01*
X175583809Y-130182380D02*
X175583809Y-129182380D01*
X176202857Y-130182380D02*
X176202857Y-129182380D01*
X176583809Y-129182380D01*
X176679047Y-129230000D01*
X176726666Y-129277619D01*
X176774285Y-129372857D01*
X176774285Y-129515714D01*
X176726666Y-129610952D01*
X176679047Y-129658571D01*
X176583809Y-129706190D01*
X176202857Y-129706190D01*
X177726666Y-130182380D02*
X177155238Y-130182380D01*
X177440952Y-130182380D02*
X177440952Y-129182380D01*
X177345714Y-129325238D01*
X177250476Y-129420476D01*
X177155238Y-129468095D01*
D12*
%TO.C,C5*%
X141933333Y-71934571D02*
X141872857Y-71995047D01*
X141691428Y-72055523D01*
X141570476Y-72055523D01*
X141389047Y-71995047D01*
X141268095Y-71874095D01*
X141207619Y-71753142D01*
X141147142Y-71511238D01*
X141147142Y-71329809D01*
X141207619Y-71087904D01*
X141268095Y-70966952D01*
X141389047Y-70846000D01*
X141570476Y-70785523D01*
X141691428Y-70785523D01*
X141872857Y-70846000D01*
X141933333Y-70906476D01*
X143082380Y-70785523D02*
X142477619Y-70785523D01*
X142417142Y-71390285D01*
X142477619Y-71329809D01*
X142598571Y-71269333D01*
X142900952Y-71269333D01*
X143021904Y-71329809D01*
X143082380Y-71390285D01*
X143142857Y-71511238D01*
X143142857Y-71813619D01*
X143082380Y-71934571D01*
X143021904Y-71995047D01*
X142900952Y-72055523D01*
X142598571Y-72055523D01*
X142477619Y-71995047D01*
X142417142Y-71934571D01*
D13*
%TO.C,U4*%
X93370962Y-119943878D02*
X94182583Y-119943878D01*
X94278068Y-119896136D01*
X94325810Y-119848394D01*
X94373553Y-119752909D01*
X94373553Y-119561939D01*
X94325810Y-119466454D01*
X94278068Y-119418712D01*
X94182583Y-119370969D01*
X93370962Y-119370969D01*
X93705159Y-118463863D02*
X94373553Y-118463863D01*
X93323219Y-118702575D02*
X94039356Y-118941287D01*
X94039356Y-118320636D01*
%TO.C,TP9*%
X122248095Y-110662380D02*
X122819523Y-110662380D01*
X122533809Y-111662380D02*
X122533809Y-110662380D01*
X123152857Y-111662380D02*
X123152857Y-110662380D01*
X123533809Y-110662380D01*
X123629047Y-110710000D01*
X123676666Y-110757619D01*
X123724285Y-110852857D01*
X123724285Y-110995714D01*
X123676666Y-111090952D01*
X123629047Y-111138571D01*
X123533809Y-111186190D01*
X123152857Y-111186190D01*
X124200476Y-111662380D02*
X124390952Y-111662380D01*
X124486190Y-111614761D01*
X124533809Y-111567142D01*
X124629047Y-111424285D01*
X124676666Y-111233809D01*
X124676666Y-110852857D01*
X124629047Y-110757619D01*
X124581428Y-110710000D01*
X124486190Y-110662380D01*
X124295714Y-110662380D01*
X124200476Y-110710000D01*
X124152857Y-110757619D01*
X124105238Y-110852857D01*
X124105238Y-111090952D01*
X124152857Y-111186190D01*
X124200476Y-111233809D01*
X124295714Y-111281428D01*
X124486190Y-111281428D01*
X124581428Y-111233809D01*
X124629047Y-111186190D01*
X124676666Y-111090952D01*
D12*
%TO.C,C1*%
X162323571Y-73621666D02*
X162384047Y-73682142D01*
X162444523Y-73863571D01*
X162444523Y-73984523D01*
X162384047Y-74165952D01*
X162263095Y-74286904D01*
X162142142Y-74347380D01*
X161900238Y-74407857D01*
X161718809Y-74407857D01*
X161476904Y-74347380D01*
X161355952Y-74286904D01*
X161235000Y-74165952D01*
X161174523Y-73984523D01*
X161174523Y-73863571D01*
X161235000Y-73682142D01*
X161295476Y-73621666D01*
X162444523Y-72412142D02*
X162444523Y-73137857D01*
X162444523Y-72775000D02*
X161174523Y-72775000D01*
X161355952Y-72895952D01*
X161476904Y-73016904D01*
X161537380Y-73137857D01*
D13*
%TO.C,J5*%
X168327380Y-137137333D02*
X169041666Y-137137333D01*
X169184523Y-137184952D01*
X169279761Y-137280190D01*
X169327380Y-137423047D01*
X169327380Y-137518285D01*
X168327380Y-136184952D02*
X168327380Y-136661142D01*
X168803571Y-136708761D01*
X168755952Y-136661142D01*
X168708333Y-136565904D01*
X168708333Y-136327809D01*
X168755952Y-136232571D01*
X168803571Y-136184952D01*
X168898809Y-136137333D01*
X169136904Y-136137333D01*
X169232142Y-136184952D01*
X169279761Y-136232571D01*
X169327380Y-136327809D01*
X169327380Y-136565904D01*
X169279761Y-136661142D01*
X169232142Y-136708761D01*
%TO.C,TP2*%
X173688095Y-110012380D02*
X174259523Y-110012380D01*
X173973809Y-111012380D02*
X173973809Y-110012380D01*
X174592857Y-111012380D02*
X174592857Y-110012380D01*
X174973809Y-110012380D01*
X175069047Y-110060000D01*
X175116666Y-110107619D01*
X175164285Y-110202857D01*
X175164285Y-110345714D01*
X175116666Y-110440952D01*
X175069047Y-110488571D01*
X174973809Y-110536190D01*
X174592857Y-110536190D01*
X175545238Y-110107619D02*
X175592857Y-110060000D01*
X175688095Y-110012380D01*
X175926190Y-110012380D01*
X176021428Y-110060000D01*
X176069047Y-110107619D01*
X176116666Y-110202857D01*
X176116666Y-110298095D01*
X176069047Y-110440952D01*
X175497619Y-111012380D01*
X176116666Y-111012380D01*
%TO.C,J2*%
X170228380Y-89639333D02*
X170942666Y-89639333D01*
X171085523Y-89686952D01*
X171180761Y-89782190D01*
X171228380Y-89925047D01*
X171228380Y-90020285D01*
X170323619Y-89210761D02*
X170276000Y-89163142D01*
X170228380Y-89067904D01*
X170228380Y-88829809D01*
X170276000Y-88734571D01*
X170323619Y-88686952D01*
X170418857Y-88639333D01*
X170514095Y-88639333D01*
X170656952Y-88686952D01*
X171228380Y-89258380D01*
X171228380Y-88639333D01*
D12*
%TO.C,R10*%
X146503571Y-78552523D02*
X146080238Y-77947761D01*
X145777857Y-78552523D02*
X145777857Y-77282523D01*
X146261666Y-77282523D01*
X146382619Y-77343000D01*
X146443095Y-77403476D01*
X146503571Y-77524428D01*
X146503571Y-77705857D01*
X146443095Y-77826809D01*
X146382619Y-77887285D01*
X146261666Y-77947761D01*
X145777857Y-77947761D01*
X147713095Y-78552523D02*
X146987380Y-78552523D01*
X147350238Y-78552523D02*
X147350238Y-77282523D01*
X147229285Y-77463952D01*
X147108333Y-77584904D01*
X146987380Y-77645380D01*
X148499285Y-77282523D02*
X148620238Y-77282523D01*
X148741190Y-77343000D01*
X148801666Y-77403476D01*
X148862142Y-77524428D01*
X148922619Y-77766333D01*
X148922619Y-78068714D01*
X148862142Y-78310619D01*
X148801666Y-78431571D01*
X148741190Y-78492047D01*
X148620238Y-78552523D01*
X148499285Y-78552523D01*
X148378333Y-78492047D01*
X148317857Y-78431571D01*
X148257380Y-78310619D01*
X148196904Y-78068714D01*
X148196904Y-77766333D01*
X148257380Y-77524428D01*
X148317857Y-77403476D01*
X148378333Y-77343000D01*
X148499285Y-77282523D01*
D13*
%TO.C,TP5*%
X148768095Y-130442380D02*
X149339523Y-130442380D01*
X149053809Y-131442380D02*
X149053809Y-130442380D01*
X149672857Y-131442380D02*
X149672857Y-130442380D01*
X150053809Y-130442380D01*
X150149047Y-130490000D01*
X150196666Y-130537619D01*
X150244285Y-130632857D01*
X150244285Y-130775714D01*
X150196666Y-130870952D01*
X150149047Y-130918571D01*
X150053809Y-130966190D01*
X149672857Y-130966190D01*
X151149047Y-130442380D02*
X150672857Y-130442380D01*
X150625238Y-130918571D01*
X150672857Y-130870952D01*
X150768095Y-130823333D01*
X151006190Y-130823333D01*
X151101428Y-130870952D01*
X151149047Y-130918571D01*
X151196666Y-131013809D01*
X151196666Y-131251904D01*
X151149047Y-131347142D01*
X151101428Y-131394761D01*
X151006190Y-131442380D01*
X150768095Y-131442380D01*
X150672857Y-131394761D01*
X150625238Y-131347142D01*
D12*
%TO.C,Q1*%
X135639047Y-85636476D02*
X135518095Y-85576000D01*
X135397142Y-85455047D01*
X135215714Y-85273619D01*
X135094761Y-85213142D01*
X134973809Y-85213142D01*
X135034285Y-85515523D02*
X134913333Y-85455047D01*
X134792380Y-85334095D01*
X134731904Y-85092190D01*
X134731904Y-84668857D01*
X134792380Y-84426952D01*
X134913333Y-84306000D01*
X135034285Y-84245523D01*
X135276190Y-84245523D01*
X135397142Y-84306000D01*
X135518095Y-84426952D01*
X135578571Y-84668857D01*
X135578571Y-85092190D01*
X135518095Y-85334095D01*
X135397142Y-85455047D01*
X135276190Y-85515523D01*
X135034285Y-85515523D01*
X136788095Y-85515523D02*
X136062380Y-85515523D01*
X136425238Y-85515523D02*
X136425238Y-84245523D01*
X136304285Y-84426952D01*
X136183333Y-84547904D01*
X136062380Y-84608380D01*
D13*
%TO.C,TP3*%
X168148095Y-81492380D02*
X168719523Y-81492380D01*
X168433809Y-82492380D02*
X168433809Y-81492380D01*
X169052857Y-82492380D02*
X169052857Y-81492380D01*
X169433809Y-81492380D01*
X169529047Y-81540000D01*
X169576666Y-81587619D01*
X169624285Y-81682857D01*
X169624285Y-81825714D01*
X169576666Y-81920952D01*
X169529047Y-81968571D01*
X169433809Y-82016190D01*
X169052857Y-82016190D01*
X169957619Y-81492380D02*
X170576666Y-81492380D01*
X170243333Y-81873333D01*
X170386190Y-81873333D01*
X170481428Y-81920952D01*
X170529047Y-81968571D01*
X170576666Y-82063809D01*
X170576666Y-82301904D01*
X170529047Y-82397142D01*
X170481428Y-82444761D01*
X170386190Y-82492380D01*
X170100476Y-82492380D01*
X170005238Y-82444761D01*
X169957619Y-82397142D01*
%TO.C,J7*%
X179646666Y-78762380D02*
X179646666Y-79476666D01*
X179599047Y-79619523D01*
X179503809Y-79714761D01*
X179360952Y-79762380D01*
X179265714Y-79762380D01*
X180027619Y-78762380D02*
X180694285Y-78762380D01*
X180265714Y-79762380D01*
D12*
%TO.C,IC2*%
X141860238Y-124124523D02*
X141860238Y-122854523D01*
X143190714Y-124003571D02*
X143130238Y-124064047D01*
X142948809Y-124124523D01*
X142827857Y-124124523D01*
X142646428Y-124064047D01*
X142525476Y-123943095D01*
X142465000Y-123822142D01*
X142404523Y-123580238D01*
X142404523Y-123398809D01*
X142465000Y-123156904D01*
X142525476Y-123035952D01*
X142646428Y-122915000D01*
X142827857Y-122854523D01*
X142948809Y-122854523D01*
X143130238Y-122915000D01*
X143190714Y-122975476D01*
X143674523Y-122975476D02*
X143735000Y-122915000D01*
X143855952Y-122854523D01*
X144158333Y-122854523D01*
X144279285Y-122915000D01*
X144339761Y-122975476D01*
X144400238Y-123096428D01*
X144400238Y-123217380D01*
X144339761Y-123398809D01*
X143614047Y-124124523D01*
X144400238Y-124124523D01*
D13*
%TO.C,J11*%
X180220476Y-133037380D02*
X180220476Y-133751666D01*
X180172857Y-133894523D01*
X180077619Y-133989761D01*
X179934761Y-134037380D01*
X179839523Y-134037380D01*
X181220476Y-134037380D02*
X180649047Y-134037380D01*
X180934761Y-134037380D02*
X180934761Y-133037380D01*
X180839523Y-133180238D01*
X180744285Y-133275476D01*
X180649047Y-133323095D01*
X182172857Y-134037380D02*
X181601428Y-134037380D01*
X181887142Y-134037380D02*
X181887142Y-133037380D01*
X181791904Y-133180238D01*
X181696666Y-133275476D01*
X181601428Y-133323095D01*
D12*
%TO.C,C4*%
X181033571Y-67421666D02*
X181094047Y-67482142D01*
X181154523Y-67663571D01*
X181154523Y-67784523D01*
X181094047Y-67965952D01*
X180973095Y-68086904D01*
X180852142Y-68147380D01*
X180610238Y-68207857D01*
X180428809Y-68207857D01*
X180186904Y-68147380D01*
X180065952Y-68086904D01*
X179945000Y-67965952D01*
X179884523Y-67784523D01*
X179884523Y-67663571D01*
X179945000Y-67482142D01*
X180005476Y-67421666D01*
X180307857Y-66333095D02*
X181154523Y-66333095D01*
X179824047Y-66635476D02*
X180731190Y-66937857D01*
X180731190Y-66151666D01*
D14*
%TO.C,J9*%
X178900000Y-103740000D02*
X180230000Y-103740000D01*
X178900000Y-105070000D02*
X178900000Y-103740000D01*
X181560000Y-106340000D02*
X181560000Y-108940000D01*
X178900000Y-108940000D02*
X181560000Y-108940000D01*
X178900000Y-106340000D02*
X178900000Y-108940000D01*
X178900000Y-106340000D02*
X181560000Y-106340000D01*
D15*
%TO.C,J10*%
X170877000Y-74214000D02*
X170877000Y-72689000D01*
%TO.C,R7*%
X150420000Y-118475000D02*
X150420000Y-117425000D01*
D14*
%TO.C,J8*%
X179700000Y-92400000D02*
X182360000Y-92400000D01*
X179700000Y-87200000D02*
X181030000Y-87200000D01*
X179700000Y-88530000D02*
X179700000Y-87200000D01*
X182360000Y-89800000D02*
X182360000Y-92400000D01*
X179700000Y-89800000D02*
X179700000Y-92400000D01*
X179700000Y-89800000D02*
X182360000Y-89800000D01*
%TO.C,TP11*%
X96328000Y-109285000D02*
X96328000Y-107885000D01*
X97728000Y-109285000D02*
X96328000Y-109285000D01*
X96328000Y-107885000D02*
X97728000Y-107885000D01*
X97728000Y-107885000D02*
X97728000Y-109285000D01*
D16*
%TO.C,U3*%
X137835000Y-108260000D02*
X141385000Y-108260000D01*
X137835000Y-118260000D02*
X141385000Y-118260000D01*
X137835000Y-118260000D02*
X141385000Y-118260000D01*
X137835000Y-108260000D02*
X141385000Y-108260000D01*
D15*
X136960000Y-107505000D02*
G75*
G03*
X136960000Y-107505000I-100000J0D01*
G01*
D14*
%TO.C,TP4*%
X148110000Y-132200000D02*
X148110000Y-133600000D01*
X146710000Y-133600000D02*
X146710000Y-132200000D01*
X148110000Y-133600000D02*
X146710000Y-133600000D01*
X146710000Y-132200000D02*
X148110000Y-132200000D01*
%TO.C,TP6*%
X153810000Y-133420000D02*
X153810000Y-132020000D01*
X155210000Y-132020000D02*
X155210000Y-133420000D01*
X153810000Y-132020000D02*
X155210000Y-132020000D01*
X155210000Y-133420000D02*
X153810000Y-133420000D01*
D15*
%TO.C,D2*%
X168430000Y-64710000D02*
X170205000Y-64710000D01*
X170205000Y-63310000D02*
X168430000Y-63310000D01*
X170205000Y-64710000D02*
X170205000Y-63310000D01*
%TO.C,D1*%
X174825000Y-62340000D02*
X174825000Y-60940000D01*
X174825000Y-60940000D02*
X173050000Y-60940000D01*
X173050000Y-62340000D02*
X174825000Y-62340000D01*
D14*
%TO.C,J4*%
X127785000Y-85140000D02*
X127785000Y-82480000D01*
X104865000Y-85140000D02*
X127785000Y-85140000D01*
X102265000Y-85140000D02*
X102265000Y-83810000D01*
X103595000Y-85140000D02*
X102265000Y-85140000D01*
X104865000Y-82480000D02*
X127785000Y-82480000D01*
X104865000Y-85140000D02*
X104865000Y-82480000D01*
D15*
%TO.C,R5*%
X134960000Y-72375000D02*
X134960000Y-73025000D01*
D14*
%TO.C,J3*%
X85665000Y-148403000D02*
X85665000Y-151063000D01*
X167005000Y-148403000D02*
X167005000Y-151063000D01*
X167005000Y-148403000D02*
X85665000Y-148403000D01*
X169605000Y-151063000D02*
X168275000Y-151063000D01*
X167005000Y-151063000D02*
X85665000Y-151063000D01*
X169605000Y-149733000D02*
X169605000Y-151063000D01*
D15*
%TO.C,R6*%
X142295000Y-128620000D02*
X141245000Y-128620000D01*
%TO.C,R8*%
X155165000Y-127190000D02*
X154115000Y-127190000D01*
D14*
%TO.C,J1*%
X169463000Y-102193000D02*
X168133000Y-102193000D01*
X166863000Y-99533000D02*
X85523000Y-99533000D01*
X166863000Y-99533000D02*
X166863000Y-102193000D01*
X85523000Y-99533000D02*
X85523000Y-102193000D01*
X169463000Y-100863000D02*
X169463000Y-102193000D01*
X166863000Y-102193000D02*
X85523000Y-102193000D01*
%TO.C,TP10*%
X100265000Y-108012000D02*
X101665000Y-108012000D01*
X101665000Y-108012000D02*
X101665000Y-109412000D01*
X101665000Y-109412000D02*
X100265000Y-109412000D01*
X100265000Y-109412000D02*
X100265000Y-108012000D01*
%TO.C,TP8*%
X130270000Y-108570000D02*
X130270000Y-109970000D01*
X128870000Y-109970000D02*
X128870000Y-108570000D01*
X130270000Y-109970000D02*
X128870000Y-109970000D01*
X128870000Y-108570000D02*
X130270000Y-108570000D01*
%TO.C,J6*%
X175710000Y-117660000D02*
X175710000Y-118310000D01*
X175010000Y-123230000D02*
X175400000Y-123230000D01*
X177440000Y-125280000D02*
X175710000Y-125280000D01*
X180010000Y-117660000D02*
X179800000Y-117660000D01*
X175010000Y-123230000D02*
X175010000Y-122780000D01*
X175710000Y-125280000D02*
X175710000Y-124620000D01*
X180010000Y-125280000D02*
X179800000Y-125280000D01*
X177440000Y-117660000D02*
X175710000Y-117660000D01*
D15*
%TO.C,R9*%
X151782000Y-83566000D02*
X150732000Y-83566000D01*
D14*
%TO.C,U1*%
X158800000Y-80020000D02*
X159030000Y-80020000D01*
X163520000Y-77300000D02*
X163520000Y-80020000D01*
X158800000Y-77300000D02*
X160110000Y-77300000D01*
X158800000Y-80020000D02*
X158800000Y-77300000D01*
X163520000Y-80020000D02*
X163290000Y-80020000D01*
X159030000Y-81160000D02*
X159030000Y-80020000D01*
X162210000Y-77300000D02*
X163520000Y-77300000D01*
%TO.C,TP7*%
X143590000Y-75270000D02*
X142190000Y-75270000D01*
X143590000Y-73870000D02*
X143590000Y-75270000D01*
X142190000Y-75270000D02*
X142190000Y-73870000D01*
X142190000Y-73870000D02*
X143590000Y-73870000D01*
D15*
%TO.C,IC1*%
X132595000Y-78690000D02*
X132595000Y-77490000D01*
X132795000Y-77140000D02*
X132795000Y-76540000D01*
X135645000Y-77140000D02*
X132795000Y-77140000D01*
X132795000Y-76540000D02*
X135645000Y-76540000D01*
X135645000Y-76540000D02*
X135645000Y-77140000D01*
D10*
%TO.C,U2*%
X89942000Y-68984000D02*
X145307000Y-68984000D01*
X149872000Y-56134000D02*
X149872000Y-53444000D01*
X149872000Y-53444000D02*
X89942000Y-53444000D01*
X89942000Y-66294000D02*
X89942000Y-68984000D01*
X149872000Y-68984000D02*
X149872000Y-66294000D01*
X89942000Y-53444000D02*
X89942000Y-56134000D01*
D15*
X155307000Y-61014000D02*
X155307000Y-61014000D01*
X155307000Y-61214000D02*
X155307000Y-61214000D01*
X155307000Y-61014000D02*
G75*
G03*
X155307000Y-61214000I0J-100000D01*
G01*
X155307000Y-61214000D02*
G75*
G03*
X155307000Y-61014000I0J100000D01*
G01*
D14*
%TO.C,TP1*%
X179490000Y-129410000D02*
X178090000Y-129410000D01*
X178090000Y-129410000D02*
X178090000Y-128010000D01*
X179490000Y-128010000D02*
X179490000Y-129410000D01*
X178090000Y-128010000D02*
X179490000Y-128010000D01*
D15*
%TO.C,U4*%
X99859000Y-120314000D02*
X99859000Y-116414000D01*
X94959000Y-120314000D02*
X94959000Y-116414000D01*
D16*
X94972500Y-121864000D02*
G75*
G03*
X94972500Y-121864000I-63500J0D01*
G01*
D14*
%TO.C,TP9*%
X125360000Y-110330000D02*
X126760000Y-110330000D01*
X125360000Y-111730000D02*
X125360000Y-110330000D01*
X126760000Y-110330000D02*
X126760000Y-111730000D01*
X126760000Y-111730000D02*
X125360000Y-111730000D01*
%TO.C,J5*%
X166990000Y-138014000D02*
X166990000Y-140674000D01*
X169590000Y-140674000D02*
X168260000Y-140674000D01*
X85650000Y-138014000D02*
X85650000Y-140674000D01*
X166990000Y-138014000D02*
X85650000Y-138014000D01*
X166990000Y-140674000D02*
X85650000Y-140674000D01*
X169590000Y-139344000D02*
X169590000Y-140674000D01*
%TO.C,TP2*%
X176650000Y-113020000D02*
X175250000Y-113020000D01*
X176650000Y-111620000D02*
X176650000Y-113020000D01*
X175250000Y-113020000D02*
X175250000Y-111620000D01*
X175250000Y-111620000D02*
X176650000Y-111620000D01*
%TO.C,J2*%
X169336000Y-89306000D02*
X169336000Y-90636000D01*
X166736000Y-90636000D02*
X85396000Y-90636000D01*
X166736000Y-87976000D02*
X166736000Y-90636000D01*
X166736000Y-87976000D02*
X85396000Y-87976000D01*
X85396000Y-87976000D02*
X85396000Y-90636000D01*
X169336000Y-90636000D02*
X168006000Y-90636000D01*
D15*
%TO.C,R10*%
X146423000Y-80069000D02*
X145423000Y-80069000D01*
X145423000Y-80069000D02*
X145423000Y-80069000D01*
X146423000Y-84269000D02*
X146423000Y-84269000D01*
X145423000Y-84269000D02*
X146423000Y-84269000D01*
X146423000Y-84269000D02*
G75*
G03*
X146423000Y-80069000I0J2100000D01*
G01*
X145423000Y-80069000D02*
G75*
G03*
X145423000Y-84269000I0J-2100000D01*
G01*
D14*
%TO.C,TP5*%
X151510000Y-132040000D02*
X151510000Y-133440000D01*
X150110000Y-133440000D02*
X150110000Y-132040000D01*
X151510000Y-133440000D02*
X150110000Y-133440000D01*
X150110000Y-132040000D02*
X151510000Y-132040000D01*
D15*
%TO.C,Q1*%
X139435000Y-83570000D02*
X137960000Y-83570000D01*
X137610000Y-80555000D02*
X137610000Y-83485000D01*
X137610000Y-83485000D02*
X133910000Y-83485000D01*
X133910000Y-83485000D02*
X133910000Y-80555000D01*
X133910000Y-80555000D02*
X137610000Y-80555000D01*
D14*
%TO.C,TP3*%
X170500000Y-83750000D02*
X171900000Y-83750000D01*
X171900000Y-83750000D02*
X171900000Y-85150000D01*
X170500000Y-85150000D02*
X170500000Y-83750000D01*
X171900000Y-85150000D02*
X170500000Y-85150000D01*
%TO.C,J7*%
X179730000Y-81765000D02*
X179730000Y-80435000D01*
X179730000Y-85635000D02*
X182390000Y-85635000D01*
X179730000Y-83035000D02*
X182390000Y-83035000D01*
X182390000Y-83035000D02*
X182390000Y-85635000D01*
X179730000Y-83035000D02*
X179730000Y-85635000D01*
X179730000Y-80435000D02*
X181060000Y-80435000D01*
D15*
%TO.C,IC2*%
X150895000Y-121150000D02*
X150895000Y-122700000D01*
X150740000Y-123050000D02*
X150740000Y-126250000D01*
X145840000Y-123050000D02*
X150740000Y-123050000D01*
X150740000Y-126250000D02*
X145840000Y-126250000D01*
X145840000Y-126250000D02*
X145840000Y-123050000D01*
D14*
%TO.C,J11*%
X182360000Y-137755000D02*
X182360000Y-135155000D01*
X182360000Y-140355000D02*
X181030000Y-140355000D01*
X182360000Y-139025000D02*
X182360000Y-140355000D01*
X182360000Y-135155000D02*
X179700000Y-135155000D01*
X179700000Y-137755000D02*
X179700000Y-135155000D01*
X182360000Y-137755000D02*
X179700000Y-137755000D01*
%TD*%
M02*
