%TF.GenerationSoftware,KiCad,Pcbnew,(6.0.2)*%
%TF.CreationDate,2022-03-20T22:54:28+02:00*%
%TF.ProjectId,main,6d61696e-2e6b-4696-9361-645f70636258,rev?*%
%TF.SameCoordinates,Original*%
%TF.FileFunction,Legend,Top*%
%TF.FilePolarity,Positive*%
%FSLAX46Y46*%
G04 Gerber Fmt 4.6, Leading zero omitted, Abs format (unit mm)*
G04 Created by KiCad (PCBNEW (6.0.2)) date 2022-03-20 22:54:28*
%MOMM*%
%LPD*%
G01*
G04 APERTURE LIST*
%ADD10C,0.100000*%
%ADD11C,0.300000*%
%ADD12C,0.150000*%
%ADD13C,0.254000*%
%ADD14C,0.098425*%
%ADD15C,0.120000*%
%ADD16C,0.200000*%
%ADD17C,0.127000*%
%ADD18C,0.203200*%
G04 APERTURE END LIST*
D10*
X173536000Y-116459000D02*
X183696000Y-116459000D01*
X183696000Y-116459000D02*
X183696000Y-126619000D01*
X183696000Y-126619000D02*
X173536000Y-126619000D01*
X173536000Y-126619000D02*
X173536000Y-116459000D01*
D11*
X175434761Y-133714809D02*
X177053809Y-133714809D01*
X177244285Y-133619571D01*
X177339523Y-133524333D01*
X177434761Y-133333857D01*
X177434761Y-132952904D01*
X177339523Y-132762428D01*
X177244285Y-132667190D01*
X177053809Y-132571952D01*
X175434761Y-132571952D01*
X177339523Y-131714809D02*
X177434761Y-131429095D01*
X177434761Y-130952904D01*
X177339523Y-130762428D01*
X177244285Y-130667190D01*
X177053809Y-130571952D01*
X176863333Y-130571952D01*
X176672857Y-130667190D01*
X176577619Y-130762428D01*
X176482380Y-130952904D01*
X176387142Y-131333857D01*
X176291904Y-131524333D01*
X176196666Y-131619571D01*
X176006190Y-131714809D01*
X175815714Y-131714809D01*
X175625238Y-131619571D01*
X175530000Y-131524333D01*
X175434761Y-131333857D01*
X175434761Y-130857666D01*
X175530000Y-130571952D01*
X176387142Y-129048142D02*
X176482380Y-128762428D01*
X176577619Y-128667190D01*
X176768095Y-128571952D01*
X177053809Y-128571952D01*
X177244285Y-128667190D01*
X177339523Y-128762428D01*
X177434761Y-128952904D01*
X177434761Y-129714809D01*
X175434761Y-129714809D01*
X175434761Y-129048142D01*
X175530000Y-128857666D01*
X175625238Y-128762428D01*
X175815714Y-128667190D01*
X176006190Y-128667190D01*
X176196666Y-128762428D01*
X176291904Y-128857666D01*
X176387142Y-129048142D01*
X176387142Y-129714809D01*
D12*
%TO.C,J6*%
X143430666Y-82002380D02*
X143430666Y-82716666D01*
X143383047Y-82859523D01*
X143287809Y-82954761D01*
X143144952Y-83002380D01*
X143049714Y-83002380D01*
X144335428Y-82002380D02*
X144144952Y-82002380D01*
X144049714Y-82050000D01*
X144002095Y-82097619D01*
X143906857Y-82240476D01*
X143859238Y-82430952D01*
X143859238Y-82811904D01*
X143906857Y-82907142D01*
X143954476Y-82954761D01*
X144049714Y-83002380D01*
X144240190Y-83002380D01*
X144335428Y-82954761D01*
X144383047Y-82907142D01*
X144430666Y-82811904D01*
X144430666Y-82573809D01*
X144383047Y-82478571D01*
X144335428Y-82430952D01*
X144240190Y-82383333D01*
X144049714Y-82383333D01*
X143954476Y-82430952D01*
X143906857Y-82478571D01*
X143859238Y-82573809D01*
D13*
%TO.C,U2*%
X157782380Y-54803523D02*
X157782380Y-55831619D01*
X157842857Y-55952571D01*
X157903333Y-56013047D01*
X158024285Y-56073523D01*
X158266190Y-56073523D01*
X158387142Y-56013047D01*
X158447619Y-55952571D01*
X158508095Y-55831619D01*
X158508095Y-54803523D01*
X159052380Y-54924476D02*
X159112857Y-54864000D01*
X159233809Y-54803523D01*
X159536190Y-54803523D01*
X159657142Y-54864000D01*
X159717619Y-54924476D01*
X159778095Y-55045428D01*
X159778095Y-55166380D01*
X159717619Y-55347809D01*
X158991904Y-56073523D01*
X159778095Y-56073523D01*
%TO.C,R4*%
X136440333Y-77790523D02*
X136017000Y-77185761D01*
X135714619Y-77790523D02*
X135714619Y-76520523D01*
X136198428Y-76520523D01*
X136319380Y-76581000D01*
X136379857Y-76641476D01*
X136440333Y-76762428D01*
X136440333Y-76943857D01*
X136379857Y-77064809D01*
X136319380Y-77125285D01*
X136198428Y-77185761D01*
X135714619Y-77185761D01*
X137528904Y-76943857D02*
X137528904Y-77790523D01*
X137226523Y-76460047D02*
X136924142Y-77367190D01*
X137710333Y-77367190D01*
%TO.C,D4*%
X165928523Y-117269380D02*
X164658523Y-117269380D01*
X164658523Y-116967000D01*
X164719000Y-116785571D01*
X164839952Y-116664619D01*
X164960904Y-116604142D01*
X165202809Y-116543666D01*
X165384238Y-116543666D01*
X165626142Y-116604142D01*
X165747095Y-116664619D01*
X165868047Y-116785571D01*
X165928523Y-116967000D01*
X165928523Y-117269380D01*
X165081857Y-115455095D02*
X165928523Y-115455095D01*
X164598047Y-115757476D02*
X165505190Y-116059857D01*
X165505190Y-115273666D01*
%TO.C,J4*%
X173421523Y-86910333D02*
X174328666Y-86910333D01*
X174510095Y-86970809D01*
X174631047Y-87091761D01*
X174691523Y-87273190D01*
X174691523Y-87394142D01*
X173844857Y-85761285D02*
X174691523Y-85761285D01*
X173361047Y-86063666D02*
X174268190Y-86366047D01*
X174268190Y-85579857D01*
D12*
%TO.C,TP9*%
X134374095Y-113117380D02*
X134945523Y-113117380D01*
X134659809Y-114117380D02*
X134659809Y-113117380D01*
X135278857Y-114117380D02*
X135278857Y-113117380D01*
X135659809Y-113117380D01*
X135755047Y-113165000D01*
X135802666Y-113212619D01*
X135850285Y-113307857D01*
X135850285Y-113450714D01*
X135802666Y-113545952D01*
X135755047Y-113593571D01*
X135659809Y-113641190D01*
X135278857Y-113641190D01*
X136326476Y-114117380D02*
X136516952Y-114117380D01*
X136612190Y-114069761D01*
X136659809Y-114022142D01*
X136755047Y-113879285D01*
X136802666Y-113688809D01*
X136802666Y-113307857D01*
X136755047Y-113212619D01*
X136707428Y-113165000D01*
X136612190Y-113117380D01*
X136421714Y-113117380D01*
X136326476Y-113165000D01*
X136278857Y-113212619D01*
X136231238Y-113307857D01*
X136231238Y-113545952D01*
X136278857Y-113641190D01*
X136326476Y-113688809D01*
X136421714Y-113736428D01*
X136612190Y-113736428D01*
X136707428Y-113688809D01*
X136755047Y-113641190D01*
X136802666Y-113545952D01*
D13*
%TO.C,C10*%
X91639571Y-105863571D02*
X91579095Y-105924047D01*
X91397666Y-105984523D01*
X91276714Y-105984523D01*
X91095285Y-105924047D01*
X90974333Y-105803095D01*
X90913857Y-105682142D01*
X90853380Y-105440238D01*
X90853380Y-105258809D01*
X90913857Y-105016904D01*
X90974333Y-104895952D01*
X91095285Y-104775000D01*
X91276714Y-104714523D01*
X91397666Y-104714523D01*
X91579095Y-104775000D01*
X91639571Y-104835476D01*
X92849095Y-105984523D02*
X92123380Y-105984523D01*
X92486238Y-105984523D02*
X92486238Y-104714523D01*
X92365285Y-104895952D01*
X92244333Y-105016904D01*
X92123380Y-105077380D01*
X93635285Y-104714523D02*
X93756238Y-104714523D01*
X93877190Y-104775000D01*
X93937666Y-104835476D01*
X93998142Y-104956428D01*
X94058619Y-105198333D01*
X94058619Y-105500714D01*
X93998142Y-105742619D01*
X93937666Y-105863571D01*
X93877190Y-105924047D01*
X93756238Y-105984523D01*
X93635285Y-105984523D01*
X93514333Y-105924047D01*
X93453857Y-105863571D01*
X93393380Y-105742619D01*
X93332904Y-105500714D01*
X93332904Y-105198333D01*
X93393380Y-104956428D01*
X93453857Y-104835476D01*
X93514333Y-104775000D01*
X93635285Y-104714523D01*
D12*
%TO.C,J5*%
X181697380Y-95075333D02*
X182411666Y-95075333D01*
X182554523Y-95122952D01*
X182649761Y-95218190D01*
X182697380Y-95361047D01*
X182697380Y-95456285D01*
X181697380Y-94122952D02*
X181697380Y-94599142D01*
X182173571Y-94646761D01*
X182125952Y-94599142D01*
X182078333Y-94503904D01*
X182078333Y-94265809D01*
X182125952Y-94170571D01*
X182173571Y-94122952D01*
X182268809Y-94075333D01*
X182506904Y-94075333D01*
X182602142Y-94122952D01*
X182649761Y-94170571D01*
X182697380Y-94265809D01*
X182697380Y-94503904D01*
X182649761Y-94599142D01*
X182602142Y-94646761D01*
D13*
%TO.C,D5*%
X170881523Y-112824380D02*
X169611523Y-112824380D01*
X169611523Y-112522000D01*
X169672000Y-112340571D01*
X169792952Y-112219619D01*
X169913904Y-112159142D01*
X170155809Y-112098666D01*
X170337238Y-112098666D01*
X170579142Y-112159142D01*
X170700095Y-112219619D01*
X170821047Y-112340571D01*
X170881523Y-112522000D01*
X170881523Y-112824380D01*
X169611523Y-110949619D02*
X169611523Y-111554380D01*
X170216285Y-111614857D01*
X170155809Y-111554380D01*
X170095333Y-111433428D01*
X170095333Y-111131047D01*
X170155809Y-111010095D01*
X170216285Y-110949619D01*
X170337238Y-110889142D01*
X170639619Y-110889142D01*
X170760571Y-110949619D01*
X170821047Y-111010095D01*
X170881523Y-111131047D01*
X170881523Y-111433428D01*
X170821047Y-111554380D01*
X170760571Y-111614857D01*
D12*
%TO.C,TP11*%
X100369904Y-107021380D02*
X100941333Y-107021380D01*
X100655619Y-108021380D02*
X100655619Y-107021380D01*
X101274666Y-108021380D02*
X101274666Y-107021380D01*
X101655619Y-107021380D01*
X101750857Y-107069000D01*
X101798476Y-107116619D01*
X101846095Y-107211857D01*
X101846095Y-107354714D01*
X101798476Y-107449952D01*
X101750857Y-107497571D01*
X101655619Y-107545190D01*
X101274666Y-107545190D01*
X102798476Y-108021380D02*
X102227047Y-108021380D01*
X102512761Y-108021380D02*
X102512761Y-107021380D01*
X102417523Y-107164238D01*
X102322285Y-107259476D01*
X102227047Y-107307095D01*
X103750857Y-108021380D02*
X103179428Y-108021380D01*
X103465142Y-108021380D02*
X103465142Y-107021380D01*
X103369904Y-107164238D01*
X103274666Y-107259476D01*
X103179428Y-107307095D01*
D13*
%TO.C,R6*%
X165039523Y-134323666D02*
X164434761Y-134747000D01*
X165039523Y-135049380D02*
X163769523Y-135049380D01*
X163769523Y-134565571D01*
X163830000Y-134444619D01*
X163890476Y-134384142D01*
X164011428Y-134323666D01*
X164192857Y-134323666D01*
X164313809Y-134384142D01*
X164374285Y-134444619D01*
X164434761Y-134565571D01*
X164434761Y-135049380D01*
X163769523Y-133235095D02*
X163769523Y-133477000D01*
X163830000Y-133597952D01*
X163890476Y-133658428D01*
X164071904Y-133779380D01*
X164313809Y-133839857D01*
X164797619Y-133839857D01*
X164918571Y-133779380D01*
X164979047Y-133718904D01*
X165039523Y-133597952D01*
X165039523Y-133356047D01*
X164979047Y-133235095D01*
X164918571Y-133174619D01*
X164797619Y-133114142D01*
X164495238Y-133114142D01*
X164374285Y-133174619D01*
X164313809Y-133235095D01*
X164253333Y-133356047D01*
X164253333Y-133597952D01*
X164313809Y-133718904D01*
X164374285Y-133779380D01*
X164495238Y-133839857D01*
%TO.C,C1*%
X175683333Y-91004571D02*
X175622857Y-91065047D01*
X175441428Y-91125523D01*
X175320476Y-91125523D01*
X175139047Y-91065047D01*
X175018095Y-90944095D01*
X174957619Y-90823142D01*
X174897142Y-90581238D01*
X174897142Y-90399809D01*
X174957619Y-90157904D01*
X175018095Y-90036952D01*
X175139047Y-89916000D01*
X175320476Y-89855523D01*
X175441428Y-89855523D01*
X175622857Y-89916000D01*
X175683333Y-89976476D01*
X176892857Y-91125523D02*
X176167142Y-91125523D01*
X176530000Y-91125523D02*
X176530000Y-89855523D01*
X176409047Y-90036952D01*
X176288095Y-90157904D01*
X176167142Y-90218380D01*
D12*
%TO.C,TP5*%
X148471095Y-139787380D02*
X149042523Y-139787380D01*
X148756809Y-140787380D02*
X148756809Y-139787380D01*
X149375857Y-140787380D02*
X149375857Y-139787380D01*
X149756809Y-139787380D01*
X149852047Y-139835000D01*
X149899666Y-139882619D01*
X149947285Y-139977857D01*
X149947285Y-140120714D01*
X149899666Y-140215952D01*
X149852047Y-140263571D01*
X149756809Y-140311190D01*
X149375857Y-140311190D01*
X150852047Y-139787380D02*
X150375857Y-139787380D01*
X150328238Y-140263571D01*
X150375857Y-140215952D01*
X150471095Y-140168333D01*
X150709190Y-140168333D01*
X150804428Y-140215952D01*
X150852047Y-140263571D01*
X150899666Y-140358809D01*
X150899666Y-140596904D01*
X150852047Y-140692142D01*
X150804428Y-140739761D01*
X150709190Y-140787380D01*
X150471095Y-140787380D01*
X150375857Y-140739761D01*
X150328238Y-140692142D01*
D13*
%TO.C,R3*%
X172659523Y-92159666D02*
X172054761Y-92583000D01*
X172659523Y-92885380D02*
X171389523Y-92885380D01*
X171389523Y-92401571D01*
X171450000Y-92280619D01*
X171510476Y-92220142D01*
X171631428Y-92159666D01*
X171812857Y-92159666D01*
X171933809Y-92220142D01*
X171994285Y-92280619D01*
X172054761Y-92401571D01*
X172054761Y-92885380D01*
X171389523Y-91736333D02*
X171389523Y-90950142D01*
X171873333Y-91373476D01*
X171873333Y-91192047D01*
X171933809Y-91071095D01*
X171994285Y-91010619D01*
X172115238Y-90950142D01*
X172417619Y-90950142D01*
X172538571Y-91010619D01*
X172599047Y-91071095D01*
X172659523Y-91192047D01*
X172659523Y-91554904D01*
X172599047Y-91675857D01*
X172538571Y-91736333D01*
%TO.C,R1*%
X174310523Y-80221666D02*
X173705761Y-80645000D01*
X174310523Y-80947380D02*
X173040523Y-80947380D01*
X173040523Y-80463571D01*
X173101000Y-80342619D01*
X173161476Y-80282142D01*
X173282428Y-80221666D01*
X173463857Y-80221666D01*
X173584809Y-80282142D01*
X173645285Y-80342619D01*
X173705761Y-80463571D01*
X173705761Y-80947380D01*
X174310523Y-79012142D02*
X174310523Y-79737857D01*
X174310523Y-79375000D02*
X173040523Y-79375000D01*
X173221952Y-79495952D01*
X173342904Y-79616904D01*
X173403380Y-79737857D01*
%TO.C,R2*%
X165801523Y-76665666D02*
X165196761Y-77089000D01*
X165801523Y-77391380D02*
X164531523Y-77391380D01*
X164531523Y-76907571D01*
X164592000Y-76786619D01*
X164652476Y-76726142D01*
X164773428Y-76665666D01*
X164954857Y-76665666D01*
X165075809Y-76726142D01*
X165136285Y-76786619D01*
X165196761Y-76907571D01*
X165196761Y-77391380D01*
X164652476Y-76181857D02*
X164592000Y-76121380D01*
X164531523Y-76000428D01*
X164531523Y-75698047D01*
X164592000Y-75577095D01*
X164652476Y-75516619D01*
X164773428Y-75456142D01*
X164894380Y-75456142D01*
X165075809Y-75516619D01*
X165801523Y-76242333D01*
X165801523Y-75456142D01*
%TO.C,D2*%
X164658523Y-80312380D02*
X163388523Y-80312380D01*
X163388523Y-80010000D01*
X163449000Y-79828571D01*
X163569952Y-79707619D01*
X163690904Y-79647142D01*
X163932809Y-79586666D01*
X164114238Y-79586666D01*
X164356142Y-79647142D01*
X164477095Y-79707619D01*
X164598047Y-79828571D01*
X164658523Y-80010000D01*
X164658523Y-80312380D01*
X163509476Y-79102857D02*
X163449000Y-79042380D01*
X163388523Y-78921428D01*
X163388523Y-78619047D01*
X163449000Y-78498095D01*
X163509476Y-78437619D01*
X163630428Y-78377142D01*
X163751380Y-78377142D01*
X163932809Y-78437619D01*
X164658523Y-79163333D01*
X164658523Y-78377142D01*
%TO.C,D1*%
X173052619Y-78171523D02*
X173052619Y-76901523D01*
X173355000Y-76901523D01*
X173536428Y-76962000D01*
X173657380Y-77082952D01*
X173717857Y-77203904D01*
X173778333Y-77445809D01*
X173778333Y-77627238D01*
X173717857Y-77869142D01*
X173657380Y-77990095D01*
X173536428Y-78111047D01*
X173355000Y-78171523D01*
X173052619Y-78171523D01*
X174987857Y-78171523D02*
X174262142Y-78171523D01*
X174625000Y-78171523D02*
X174625000Y-76901523D01*
X174504047Y-77082952D01*
X174383095Y-77203904D01*
X174262142Y-77264380D01*
%TO.C,R5*%
X136440333Y-79568523D02*
X136017000Y-78963761D01*
X135714619Y-79568523D02*
X135714619Y-78298523D01*
X136198428Y-78298523D01*
X136319380Y-78359000D01*
X136379857Y-78419476D01*
X136440333Y-78540428D01*
X136440333Y-78721857D01*
X136379857Y-78842809D01*
X136319380Y-78903285D01*
X136198428Y-78963761D01*
X135714619Y-78963761D01*
X137589380Y-78298523D02*
X136984619Y-78298523D01*
X136924142Y-78903285D01*
X136984619Y-78842809D01*
X137105571Y-78782333D01*
X137407952Y-78782333D01*
X137528904Y-78842809D01*
X137589380Y-78903285D01*
X137649857Y-79024238D01*
X137649857Y-79326619D01*
X137589380Y-79447571D01*
X137528904Y-79508047D01*
X137407952Y-79568523D01*
X137105571Y-79568523D01*
X136984619Y-79508047D01*
X136924142Y-79447571D01*
%TO.C,R12*%
X173040523Y-111687428D02*
X172435761Y-112110761D01*
X173040523Y-112413142D02*
X171770523Y-112413142D01*
X171770523Y-111929333D01*
X171831000Y-111808380D01*
X171891476Y-111747904D01*
X172012428Y-111687428D01*
X172193857Y-111687428D01*
X172314809Y-111747904D01*
X172375285Y-111808380D01*
X172435761Y-111929333D01*
X172435761Y-112413142D01*
X173040523Y-110477904D02*
X173040523Y-111203619D01*
X173040523Y-110840761D02*
X171770523Y-110840761D01*
X171951952Y-110961714D01*
X172072904Y-111082666D01*
X172133380Y-111203619D01*
X171891476Y-109994095D02*
X171831000Y-109933619D01*
X171770523Y-109812666D01*
X171770523Y-109510285D01*
X171831000Y-109389333D01*
X171891476Y-109328857D01*
X172012428Y-109268380D01*
X172133380Y-109268380D01*
X172314809Y-109328857D01*
X173040523Y-110054571D01*
X173040523Y-109268380D01*
D12*
%TO.C,J1*%
X173188380Y-105870333D02*
X173902666Y-105870333D01*
X174045523Y-105917952D01*
X174140761Y-106013190D01*
X174188380Y-106156047D01*
X174188380Y-106251285D01*
X174188380Y-104870333D02*
X174188380Y-105441761D01*
X174188380Y-105156047D02*
X173188380Y-105156047D01*
X173331238Y-105251285D01*
X173426476Y-105346523D01*
X173474095Y-105441761D01*
D13*
%TO.C,C7*%
X150313571Y-116670666D02*
X150374047Y-116731142D01*
X150434523Y-116912571D01*
X150434523Y-117033523D01*
X150374047Y-117214952D01*
X150253095Y-117335904D01*
X150132142Y-117396380D01*
X149890238Y-117456857D01*
X149708809Y-117456857D01*
X149466904Y-117396380D01*
X149345952Y-117335904D01*
X149225000Y-117214952D01*
X149164523Y-117033523D01*
X149164523Y-116912571D01*
X149225000Y-116731142D01*
X149285476Y-116670666D01*
X149164523Y-116247333D02*
X149164523Y-115400666D01*
X150434523Y-115944952D01*
%TO.C,IC2*%
X161574238Y-136972523D02*
X161574238Y-135702523D01*
X162904714Y-136851571D02*
X162844238Y-136912047D01*
X162662809Y-136972523D01*
X162541857Y-136972523D01*
X162360428Y-136912047D01*
X162239476Y-136791095D01*
X162179000Y-136670142D01*
X162118523Y-136428238D01*
X162118523Y-136246809D01*
X162179000Y-136004904D01*
X162239476Y-135883952D01*
X162360428Y-135763000D01*
X162541857Y-135702523D01*
X162662809Y-135702523D01*
X162844238Y-135763000D01*
X162904714Y-135823476D01*
X163388523Y-135823476D02*
X163449000Y-135763000D01*
X163569952Y-135702523D01*
X163872333Y-135702523D01*
X163993285Y-135763000D01*
X164053761Y-135823476D01*
X164114238Y-135944428D01*
X164114238Y-136065380D01*
X164053761Y-136246809D01*
X163328047Y-136972523D01*
X164114238Y-136972523D01*
D12*
%TO.C,TP10*%
X100369904Y-104735380D02*
X100941333Y-104735380D01*
X100655619Y-105735380D02*
X100655619Y-104735380D01*
X101274666Y-105735380D02*
X101274666Y-104735380D01*
X101655619Y-104735380D01*
X101750857Y-104783000D01*
X101798476Y-104830619D01*
X101846095Y-104925857D01*
X101846095Y-105068714D01*
X101798476Y-105163952D01*
X101750857Y-105211571D01*
X101655619Y-105259190D01*
X101274666Y-105259190D01*
X102798476Y-105735380D02*
X102227047Y-105735380D01*
X102512761Y-105735380D02*
X102512761Y-104735380D01*
X102417523Y-104878238D01*
X102322285Y-104973476D01*
X102227047Y-105021095D01*
X103417523Y-104735380D02*
X103512761Y-104735380D01*
X103608000Y-104783000D01*
X103655619Y-104830619D01*
X103703238Y-104925857D01*
X103750857Y-105116333D01*
X103750857Y-105354428D01*
X103703238Y-105544904D01*
X103655619Y-105640142D01*
X103608000Y-105687761D01*
X103512761Y-105735380D01*
X103417523Y-105735380D01*
X103322285Y-105687761D01*
X103274666Y-105640142D01*
X103227047Y-105544904D01*
X103179428Y-105354428D01*
X103179428Y-105116333D01*
X103227047Y-104925857D01*
X103274666Y-104830619D01*
X103322285Y-104783000D01*
X103417523Y-104735380D01*
%TO.C,J10*%
X88090476Y-104354380D02*
X88090476Y-105068666D01*
X88042857Y-105211523D01*
X87947619Y-105306761D01*
X87804761Y-105354380D01*
X87709523Y-105354380D01*
X89090476Y-105354380D02*
X88519047Y-105354380D01*
X88804761Y-105354380D02*
X88804761Y-104354380D01*
X88709523Y-104497238D01*
X88614285Y-104592476D01*
X88519047Y-104640095D01*
X89709523Y-104354380D02*
X89804761Y-104354380D01*
X89900000Y-104402000D01*
X89947619Y-104449619D01*
X89995238Y-104544857D01*
X90042857Y-104735333D01*
X90042857Y-104973428D01*
X89995238Y-105163904D01*
X89947619Y-105259142D01*
X89900000Y-105306761D01*
X89804761Y-105354380D01*
X89709523Y-105354380D01*
X89614285Y-105306761D01*
X89566666Y-105259142D01*
X89519047Y-105163904D01*
X89471428Y-104973428D01*
X89471428Y-104735333D01*
X89519047Y-104544857D01*
X89566666Y-104449619D01*
X89614285Y-104402000D01*
X89709523Y-104354380D01*
%TO.C,TP6*%
X158631095Y-139787380D02*
X159202523Y-139787380D01*
X158916809Y-140787380D02*
X158916809Y-139787380D01*
X159535857Y-140787380D02*
X159535857Y-139787380D01*
X159916809Y-139787380D01*
X160012047Y-139835000D01*
X160059666Y-139882619D01*
X160107285Y-139977857D01*
X160107285Y-140120714D01*
X160059666Y-140215952D01*
X160012047Y-140263571D01*
X159916809Y-140311190D01*
X159535857Y-140311190D01*
X160964428Y-139787380D02*
X160773952Y-139787380D01*
X160678714Y-139835000D01*
X160631095Y-139882619D01*
X160535857Y-140025476D01*
X160488238Y-140215952D01*
X160488238Y-140596904D01*
X160535857Y-140692142D01*
X160583476Y-140739761D01*
X160678714Y-140787380D01*
X160869190Y-140787380D01*
X160964428Y-140739761D01*
X161012047Y-140692142D01*
X161059666Y-140596904D01*
X161059666Y-140358809D01*
X161012047Y-140263571D01*
X160964428Y-140215952D01*
X160869190Y-140168333D01*
X160678714Y-140168333D01*
X160583476Y-140215952D01*
X160535857Y-140263571D01*
X160488238Y-140358809D01*
%TO.C,U1*%
X156464095Y-79208380D02*
X156464095Y-80017904D01*
X156511714Y-80113142D01*
X156559333Y-80160761D01*
X156654571Y-80208380D01*
X156845047Y-80208380D01*
X156940285Y-80160761D01*
X156987904Y-80113142D01*
X157035523Y-80017904D01*
X157035523Y-79208380D01*
X158035523Y-80208380D02*
X157464095Y-80208380D01*
X157749809Y-80208380D02*
X157749809Y-79208380D01*
X157654571Y-79351238D01*
X157559333Y-79446476D01*
X157464095Y-79494095D01*
D13*
%TO.C,C5*%
X150186571Y-88857666D02*
X150247047Y-88918142D01*
X150307523Y-89099571D01*
X150307523Y-89220523D01*
X150247047Y-89401952D01*
X150126095Y-89522904D01*
X150005142Y-89583380D01*
X149763238Y-89643857D01*
X149581809Y-89643857D01*
X149339904Y-89583380D01*
X149218952Y-89522904D01*
X149098000Y-89401952D01*
X149037523Y-89220523D01*
X149037523Y-89099571D01*
X149098000Y-88918142D01*
X149158476Y-88857666D01*
X149037523Y-87708619D02*
X149037523Y-88313380D01*
X149642285Y-88373857D01*
X149581809Y-88313380D01*
X149521333Y-88192428D01*
X149521333Y-87890047D01*
X149581809Y-87769095D01*
X149642285Y-87708619D01*
X149763238Y-87648142D01*
X150065619Y-87648142D01*
X150186571Y-87708619D01*
X150247047Y-87769095D01*
X150307523Y-87890047D01*
X150307523Y-88192428D01*
X150247047Y-88313380D01*
X150186571Y-88373857D01*
%TO.C,R11*%
X175453523Y-113211428D02*
X174848761Y-113634761D01*
X175453523Y-113937142D02*
X174183523Y-113937142D01*
X174183523Y-113453333D01*
X174244000Y-113332380D01*
X174304476Y-113271904D01*
X174425428Y-113211428D01*
X174606857Y-113211428D01*
X174727809Y-113271904D01*
X174788285Y-113332380D01*
X174848761Y-113453333D01*
X174848761Y-113937142D01*
X175453523Y-112001904D02*
X175453523Y-112727619D01*
X175453523Y-112364761D02*
X174183523Y-112364761D01*
X174364952Y-112485714D01*
X174485904Y-112606666D01*
X174546380Y-112727619D01*
X175453523Y-110792380D02*
X175453523Y-111518095D01*
X175453523Y-111155238D02*
X174183523Y-111155238D01*
X174364952Y-111276190D01*
X174485904Y-111397142D01*
X174546380Y-111518095D01*
%TO.C,R9*%
X150307523Y-86063666D02*
X149702761Y-86487000D01*
X150307523Y-86789380D02*
X149037523Y-86789380D01*
X149037523Y-86305571D01*
X149098000Y-86184619D01*
X149158476Y-86124142D01*
X149279428Y-86063666D01*
X149460857Y-86063666D01*
X149581809Y-86124142D01*
X149642285Y-86184619D01*
X149702761Y-86305571D01*
X149702761Y-86789380D01*
X150307523Y-85458904D02*
X150307523Y-85217000D01*
X150247047Y-85096047D01*
X150186571Y-85035571D01*
X150005142Y-84914619D01*
X149763238Y-84854142D01*
X149279428Y-84854142D01*
X149158476Y-84914619D01*
X149098000Y-84975095D01*
X149037523Y-85096047D01*
X149037523Y-85337952D01*
X149098000Y-85458904D01*
X149158476Y-85519380D01*
X149279428Y-85579857D01*
X149581809Y-85579857D01*
X149702761Y-85519380D01*
X149763238Y-85458904D01*
X149823714Y-85337952D01*
X149823714Y-85096047D01*
X149763238Y-84975095D01*
X149702761Y-84914619D01*
X149581809Y-84854142D01*
D12*
%TO.C,J7*%
X178101666Y-92289380D02*
X178101666Y-93003666D01*
X178054047Y-93146523D01*
X177958809Y-93241761D01*
X177815952Y-93289380D01*
X177720714Y-93289380D01*
X178482619Y-92289380D02*
X179149285Y-92289380D01*
X178720714Y-93289380D01*
%TO.C,TP7*%
X128532095Y-81113380D02*
X129103523Y-81113380D01*
X128817809Y-82113380D02*
X128817809Y-81113380D01*
X129436857Y-82113380D02*
X129436857Y-81113380D01*
X129817809Y-81113380D01*
X129913047Y-81161000D01*
X129960666Y-81208619D01*
X130008285Y-81303857D01*
X130008285Y-81446714D01*
X129960666Y-81541952D01*
X129913047Y-81589571D01*
X129817809Y-81637190D01*
X129436857Y-81637190D01*
X130341619Y-81113380D02*
X131008285Y-81113380D01*
X130579714Y-82113380D01*
D13*
%TO.C,IC1*%
X128082523Y-84805761D02*
X126812523Y-84805761D01*
X127961571Y-83475285D02*
X128022047Y-83535761D01*
X128082523Y-83717190D01*
X128082523Y-83838142D01*
X128022047Y-84019571D01*
X127901095Y-84140523D01*
X127780142Y-84201000D01*
X127538238Y-84261476D01*
X127356809Y-84261476D01*
X127114904Y-84201000D01*
X126993952Y-84140523D01*
X126873000Y-84019571D01*
X126812523Y-83838142D01*
X126812523Y-83717190D01*
X126873000Y-83535761D01*
X126933476Y-83475285D01*
X128082523Y-82265761D02*
X128082523Y-82991476D01*
X128082523Y-82628619D02*
X126812523Y-82628619D01*
X126993952Y-82749571D01*
X127114904Y-82870523D01*
X127175380Y-82991476D01*
%TO.C,C6*%
X163013571Y-134323666D02*
X163074047Y-134384142D01*
X163134523Y-134565571D01*
X163134523Y-134686523D01*
X163074047Y-134867952D01*
X162953095Y-134988904D01*
X162832142Y-135049380D01*
X162590238Y-135109857D01*
X162408809Y-135109857D01*
X162166904Y-135049380D01*
X162045952Y-134988904D01*
X161925000Y-134867952D01*
X161864523Y-134686523D01*
X161864523Y-134565571D01*
X161925000Y-134384142D01*
X161985476Y-134323666D01*
X161864523Y-133235095D02*
X161864523Y-133477000D01*
X161925000Y-133597952D01*
X161985476Y-133658428D01*
X162166904Y-133779380D01*
X162408809Y-133839857D01*
X162892619Y-133839857D01*
X163013571Y-133779380D01*
X163074047Y-133718904D01*
X163134523Y-133597952D01*
X163134523Y-133356047D01*
X163074047Y-133235095D01*
X163013571Y-133174619D01*
X162892619Y-133114142D01*
X162590238Y-133114142D01*
X162469285Y-133174619D01*
X162408809Y-133235095D01*
X162348333Y-133356047D01*
X162348333Y-133597952D01*
X162408809Y-133718904D01*
X162469285Y-133779380D01*
X162590238Y-133839857D01*
%TO.C,J3*%
X173929523Y-118152333D02*
X174836666Y-118152333D01*
X175018095Y-118212809D01*
X175139047Y-118333761D01*
X175199523Y-118515190D01*
X175199523Y-118636142D01*
X173929523Y-117668523D02*
X173929523Y-116882333D01*
X174413333Y-117305666D01*
X174413333Y-117124238D01*
X174473809Y-117003285D01*
X174534285Y-116942809D01*
X174655238Y-116882333D01*
X174957619Y-116882333D01*
X175078571Y-116942809D01*
X175139047Y-117003285D01*
X175199523Y-117124238D01*
X175199523Y-117487095D01*
X175139047Y-117608047D01*
X175078571Y-117668523D01*
D12*
%TO.C,J8*%
X86661666Y-139318380D02*
X86661666Y-140032666D01*
X86614047Y-140175523D01*
X86518809Y-140270761D01*
X86375952Y-140318380D01*
X86280714Y-140318380D01*
X87280714Y-139746952D02*
X87185476Y-139699333D01*
X87137857Y-139651714D01*
X87090238Y-139556476D01*
X87090238Y-139508857D01*
X87137857Y-139413619D01*
X87185476Y-139366000D01*
X87280714Y-139318380D01*
X87471190Y-139318380D01*
X87566428Y-139366000D01*
X87614047Y-139413619D01*
X87661666Y-139508857D01*
X87661666Y-139556476D01*
X87614047Y-139651714D01*
X87566428Y-139699333D01*
X87471190Y-139746952D01*
X87280714Y-139746952D01*
X87185476Y-139794571D01*
X87137857Y-139842190D01*
X87090238Y-139937428D01*
X87090238Y-140127904D01*
X87137857Y-140223142D01*
X87185476Y-140270761D01*
X87280714Y-140318380D01*
X87471190Y-140318380D01*
X87566428Y-140270761D01*
X87614047Y-140223142D01*
X87661666Y-140127904D01*
X87661666Y-139937428D01*
X87614047Y-139842190D01*
X87566428Y-139794571D01*
X87471190Y-139746952D01*
%TO.C,TP1*%
X177681095Y-128103380D02*
X178252523Y-128103380D01*
X177966809Y-129103380D02*
X177966809Y-128103380D01*
X178585857Y-129103380D02*
X178585857Y-128103380D01*
X178966809Y-128103380D01*
X179062047Y-128151000D01*
X179109666Y-128198619D01*
X179157285Y-128293857D01*
X179157285Y-128436714D01*
X179109666Y-128531952D01*
X179062047Y-128579571D01*
X178966809Y-128627190D01*
X178585857Y-128627190D01*
X180109666Y-129103380D02*
X179538238Y-129103380D01*
X179823952Y-129103380D02*
X179823952Y-128103380D01*
X179728714Y-128246238D01*
X179633476Y-128341476D01*
X179538238Y-128389095D01*
D13*
%TO.C,C4*%
X129582333Y-80209571D02*
X129521857Y-80270047D01*
X129340428Y-80330523D01*
X129219476Y-80330523D01*
X129038047Y-80270047D01*
X128917095Y-80149095D01*
X128856619Y-80028142D01*
X128796142Y-79786238D01*
X128796142Y-79604809D01*
X128856619Y-79362904D01*
X128917095Y-79241952D01*
X129038047Y-79121000D01*
X129219476Y-79060523D01*
X129340428Y-79060523D01*
X129521857Y-79121000D01*
X129582333Y-79181476D01*
X130670904Y-79483857D02*
X130670904Y-80330523D01*
X130368523Y-79000047D02*
X130066142Y-79907190D01*
X130852333Y-79907190D01*
D12*
%TO.C,TP4*%
X158885095Y-137628380D02*
X159456523Y-137628380D01*
X159170809Y-138628380D02*
X159170809Y-137628380D01*
X159789857Y-138628380D02*
X159789857Y-137628380D01*
X160170809Y-137628380D01*
X160266047Y-137676000D01*
X160313666Y-137723619D01*
X160361285Y-137818857D01*
X160361285Y-137961714D01*
X160313666Y-138056952D01*
X160266047Y-138104571D01*
X160170809Y-138152190D01*
X159789857Y-138152190D01*
X161218428Y-137961714D02*
X161218428Y-138628380D01*
X160980333Y-137580761D02*
X160742238Y-138295047D01*
X161361285Y-138295047D01*
%TO.C,U4*%
X91652962Y-116079878D02*
X92464583Y-116079878D01*
X92560068Y-116032136D01*
X92607810Y-115984394D01*
X92655553Y-115888909D01*
X92655553Y-115697939D01*
X92607810Y-115602454D01*
X92560068Y-115554712D01*
X92464583Y-115506969D01*
X91652962Y-115506969D01*
X91987159Y-114599863D02*
X92655553Y-114599863D01*
X91605219Y-114838575D02*
X92321356Y-115077287D01*
X92321356Y-114456636D01*
D13*
%TO.C,C3*%
X165934571Y-82888666D02*
X165995047Y-82949142D01*
X166055523Y-83130571D01*
X166055523Y-83251523D01*
X165995047Y-83432952D01*
X165874095Y-83553904D01*
X165753142Y-83614380D01*
X165511238Y-83674857D01*
X165329809Y-83674857D01*
X165087904Y-83614380D01*
X164966952Y-83553904D01*
X164846000Y-83432952D01*
X164785523Y-83251523D01*
X164785523Y-83130571D01*
X164846000Y-82949142D01*
X164906476Y-82888666D01*
X164785523Y-82465333D02*
X164785523Y-81679142D01*
X165269333Y-82102476D01*
X165269333Y-81921047D01*
X165329809Y-81800095D01*
X165390285Y-81739619D01*
X165511238Y-81679142D01*
X165813619Y-81679142D01*
X165934571Y-81739619D01*
X165995047Y-81800095D01*
X166055523Y-81921047D01*
X166055523Y-82283904D01*
X165995047Y-82404857D01*
X165934571Y-82465333D01*
D12*
%TO.C,J9*%
X178609666Y-129373380D02*
X178609666Y-130087666D01*
X178562047Y-130230523D01*
X178466809Y-130325761D01*
X178323952Y-130373380D01*
X178228714Y-130373380D01*
X179133476Y-130373380D02*
X179323952Y-130373380D01*
X179419190Y-130325761D01*
X179466809Y-130278142D01*
X179562047Y-130135285D01*
X179609666Y-129944809D01*
X179609666Y-129563857D01*
X179562047Y-129468619D01*
X179514428Y-129421000D01*
X179419190Y-129373380D01*
X179228714Y-129373380D01*
X179133476Y-129421000D01*
X179085857Y-129468619D01*
X179038238Y-129563857D01*
X179038238Y-129801952D01*
X179085857Y-129897190D01*
X179133476Y-129944809D01*
X179228714Y-129992428D01*
X179419190Y-129992428D01*
X179514428Y-129944809D01*
X179562047Y-129897190D01*
X179609666Y-129801952D01*
%TO.C,J2*%
X172914380Y-140668333D02*
X173628666Y-140668333D01*
X173771523Y-140715952D01*
X173866761Y-140811190D01*
X173914380Y-140954047D01*
X173914380Y-141049285D01*
X173009619Y-140239761D02*
X172962000Y-140192142D01*
X172914380Y-140096904D01*
X172914380Y-139858809D01*
X172962000Y-139763571D01*
X173009619Y-139715952D01*
X173104857Y-139668333D01*
X173200095Y-139668333D01*
X173342952Y-139715952D01*
X173914380Y-140287380D01*
X173914380Y-139668333D01*
%TO.C,TP2*%
X180983095Y-112812380D02*
X181554523Y-112812380D01*
X181268809Y-113812380D02*
X181268809Y-112812380D01*
X181887857Y-113812380D02*
X181887857Y-112812380D01*
X182268809Y-112812380D01*
X182364047Y-112860000D01*
X182411666Y-112907619D01*
X182459285Y-113002857D01*
X182459285Y-113145714D01*
X182411666Y-113240952D01*
X182364047Y-113288571D01*
X182268809Y-113336190D01*
X181887857Y-113336190D01*
X182840238Y-112907619D02*
X182887857Y-112860000D01*
X182983095Y-112812380D01*
X183221190Y-112812380D01*
X183316428Y-112860000D01*
X183364047Y-112907619D01*
X183411666Y-113002857D01*
X183411666Y-113098095D01*
X183364047Y-113240952D01*
X182792619Y-113812380D01*
X183411666Y-113812380D01*
%TO.C,TP8*%
X132342095Y-118959380D02*
X132913523Y-118959380D01*
X132627809Y-119959380D02*
X132627809Y-118959380D01*
X133246857Y-119959380D02*
X133246857Y-118959380D01*
X133627809Y-118959380D01*
X133723047Y-119007000D01*
X133770666Y-119054619D01*
X133818285Y-119149857D01*
X133818285Y-119292714D01*
X133770666Y-119387952D01*
X133723047Y-119435571D01*
X133627809Y-119483190D01*
X133246857Y-119483190D01*
X134389714Y-119387952D02*
X134294476Y-119340333D01*
X134246857Y-119292714D01*
X134199238Y-119197476D01*
X134199238Y-119149857D01*
X134246857Y-119054619D01*
X134294476Y-119007000D01*
X134389714Y-118959380D01*
X134580190Y-118959380D01*
X134675428Y-119007000D01*
X134723047Y-119054619D01*
X134770666Y-119149857D01*
X134770666Y-119197476D01*
X134723047Y-119292714D01*
X134675428Y-119340333D01*
X134580190Y-119387952D01*
X134389714Y-119387952D01*
X134294476Y-119435571D01*
X134246857Y-119483190D01*
X134199238Y-119578428D01*
X134199238Y-119768904D01*
X134246857Y-119864142D01*
X134294476Y-119911761D01*
X134389714Y-119959380D01*
X134580190Y-119959380D01*
X134675428Y-119911761D01*
X134723047Y-119864142D01*
X134770666Y-119768904D01*
X134770666Y-119578428D01*
X134723047Y-119483190D01*
X134675428Y-119435571D01*
X134580190Y-119387952D01*
D13*
%TO.C,R8*%
X141012333Y-131511523D02*
X140589000Y-130906761D01*
X140286619Y-131511523D02*
X140286619Y-130241523D01*
X140770428Y-130241523D01*
X140891380Y-130302000D01*
X140951857Y-130362476D01*
X141012333Y-130483428D01*
X141012333Y-130664857D01*
X140951857Y-130785809D01*
X140891380Y-130846285D01*
X140770428Y-130906761D01*
X140286619Y-130906761D01*
X141738047Y-130785809D02*
X141617095Y-130725333D01*
X141556619Y-130664857D01*
X141496142Y-130543904D01*
X141496142Y-130483428D01*
X141556619Y-130362476D01*
X141617095Y-130302000D01*
X141738047Y-130241523D01*
X141979952Y-130241523D01*
X142100904Y-130302000D01*
X142161380Y-130362476D01*
X142221857Y-130483428D01*
X142221857Y-130543904D01*
X142161380Y-130664857D01*
X142100904Y-130725333D01*
X141979952Y-130785809D01*
X141738047Y-130785809D01*
X141617095Y-130846285D01*
X141556619Y-130906761D01*
X141496142Y-131027714D01*
X141496142Y-131269619D01*
X141556619Y-131390571D01*
X141617095Y-131451047D01*
X141738047Y-131511523D01*
X141979952Y-131511523D01*
X142100904Y-131451047D01*
X142161380Y-131390571D01*
X142221857Y-131269619D01*
X142221857Y-131027714D01*
X142161380Y-130906761D01*
X142100904Y-130846285D01*
X141979952Y-130785809D01*
%TO.C,R10*%
X143201571Y-86934523D02*
X142778238Y-86329761D01*
X142475857Y-86934523D02*
X142475857Y-85664523D01*
X142959666Y-85664523D01*
X143080619Y-85725000D01*
X143141095Y-85785476D01*
X143201571Y-85906428D01*
X143201571Y-86087857D01*
X143141095Y-86208809D01*
X143080619Y-86269285D01*
X142959666Y-86329761D01*
X142475857Y-86329761D01*
X144411095Y-86934523D02*
X143685380Y-86934523D01*
X144048238Y-86934523D02*
X144048238Y-85664523D01*
X143927285Y-85845952D01*
X143806333Y-85966904D01*
X143685380Y-86027380D01*
X145197285Y-85664523D02*
X145318238Y-85664523D01*
X145439190Y-85725000D01*
X145499666Y-85785476D01*
X145560142Y-85906428D01*
X145620619Y-86148333D01*
X145620619Y-86450714D01*
X145560142Y-86692619D01*
X145499666Y-86813571D01*
X145439190Y-86874047D01*
X145318238Y-86934523D01*
X145197285Y-86934523D01*
X145076333Y-86874047D01*
X145015857Y-86813571D01*
X144955380Y-86692619D01*
X144894904Y-86450714D01*
X144894904Y-86148333D01*
X144955380Y-85906428D01*
X145015857Y-85785476D01*
X145076333Y-85725000D01*
X145197285Y-85664523D01*
%TO.C,Q1*%
X132848047Y-92770476D02*
X132727095Y-92710000D01*
X132606142Y-92589047D01*
X132424714Y-92407619D01*
X132303761Y-92347142D01*
X132182809Y-92347142D01*
X132243285Y-92649523D02*
X132122333Y-92589047D01*
X132001380Y-92468095D01*
X131940904Y-92226190D01*
X131940904Y-91802857D01*
X132001380Y-91560952D01*
X132122333Y-91440000D01*
X132243285Y-91379523D01*
X132485190Y-91379523D01*
X132606142Y-91440000D01*
X132727095Y-91560952D01*
X132787571Y-91802857D01*
X132787571Y-92226190D01*
X132727095Y-92468095D01*
X132606142Y-92589047D01*
X132485190Y-92649523D01*
X132243285Y-92649523D01*
X133997095Y-92649523D02*
X133271380Y-92649523D01*
X133634238Y-92649523D02*
X133634238Y-91379523D01*
X133513285Y-91560952D01*
X133392333Y-91681904D01*
X133271380Y-91742380D01*
D14*
%TO.C,C8*%
X156350607Y-122112616D02*
X156369355Y-122131364D01*
X156388102Y-122187607D01*
X156388102Y-122225102D01*
X156369355Y-122281345D01*
X156331859Y-122318841D01*
X156294364Y-122337588D01*
X156219373Y-122356336D01*
X156163130Y-122356336D01*
X156088140Y-122337588D01*
X156050644Y-122318841D01*
X156013149Y-122281345D01*
X155994401Y-122225102D01*
X155994401Y-122187607D01*
X156013149Y-122131364D01*
X156031897Y-122112616D01*
X156163130Y-121887644D02*
X156144383Y-121925140D01*
X156125635Y-121943887D01*
X156088140Y-121962635D01*
X156069392Y-121962635D01*
X156031897Y-121943887D01*
X156013149Y-121925140D01*
X155994401Y-121887644D01*
X155994401Y-121812654D01*
X156013149Y-121775158D01*
X156031897Y-121756411D01*
X156069392Y-121737663D01*
X156088140Y-121737663D01*
X156125635Y-121756411D01*
X156144383Y-121775158D01*
X156163130Y-121812654D01*
X156163130Y-121887644D01*
X156181878Y-121925140D01*
X156200626Y-121943887D01*
X156238121Y-121962635D01*
X156313112Y-121962635D01*
X156350607Y-121943887D01*
X156369355Y-121925140D01*
X156388102Y-121887644D01*
X156388102Y-121812654D01*
X156369355Y-121775158D01*
X156350607Y-121756411D01*
X156313112Y-121737663D01*
X156238121Y-121737663D01*
X156200626Y-121756411D01*
X156181878Y-121775158D01*
X156163130Y-121812654D01*
D13*
%TO.C,C9*%
X152091571Y-116416666D02*
X152152047Y-116477142D01*
X152212523Y-116658571D01*
X152212523Y-116779523D01*
X152152047Y-116960952D01*
X152031095Y-117081904D01*
X151910142Y-117142380D01*
X151668238Y-117202857D01*
X151486809Y-117202857D01*
X151244904Y-117142380D01*
X151123952Y-117081904D01*
X151003000Y-116960952D01*
X150942523Y-116779523D01*
X150942523Y-116658571D01*
X151003000Y-116477142D01*
X151063476Y-116416666D01*
X152212523Y-115811904D02*
X152212523Y-115570000D01*
X152152047Y-115449047D01*
X152091571Y-115388571D01*
X151910142Y-115267619D01*
X151668238Y-115207142D01*
X151184428Y-115207142D01*
X151063476Y-115267619D01*
X151003000Y-115328095D01*
X150942523Y-115449047D01*
X150942523Y-115690952D01*
X151003000Y-115811904D01*
X151063476Y-115872380D01*
X151184428Y-115932857D01*
X151486809Y-115932857D01*
X151607761Y-115872380D01*
X151668238Y-115811904D01*
X151728714Y-115690952D01*
X151728714Y-115449047D01*
X151668238Y-115328095D01*
X151607761Y-115267619D01*
X151486809Y-115207142D01*
D12*
%TO.C,TP3*%
X163203095Y-89114380D02*
X163774523Y-89114380D01*
X163488809Y-90114380D02*
X163488809Y-89114380D01*
X164107857Y-90114380D02*
X164107857Y-89114380D01*
X164488809Y-89114380D01*
X164584047Y-89162000D01*
X164631666Y-89209619D01*
X164679285Y-89304857D01*
X164679285Y-89447714D01*
X164631666Y-89542952D01*
X164584047Y-89590571D01*
X164488809Y-89638190D01*
X164107857Y-89638190D01*
X165012619Y-89114380D02*
X165631666Y-89114380D01*
X165298333Y-89495333D01*
X165441190Y-89495333D01*
X165536428Y-89542952D01*
X165584047Y-89590571D01*
X165631666Y-89685809D01*
X165631666Y-89923904D01*
X165584047Y-90019142D01*
X165536428Y-90066761D01*
X165441190Y-90114380D01*
X165155476Y-90114380D01*
X165060238Y-90066761D01*
X165012619Y-90019142D01*
D13*
%TO.C,R7*%
X150561523Y-136355666D02*
X149956761Y-136779000D01*
X150561523Y-137081380D02*
X149291523Y-137081380D01*
X149291523Y-136597571D01*
X149352000Y-136476619D01*
X149412476Y-136416142D01*
X149533428Y-136355666D01*
X149714857Y-136355666D01*
X149835809Y-136416142D01*
X149896285Y-136476619D01*
X149956761Y-136597571D01*
X149956761Y-137081380D01*
X149291523Y-135932333D02*
X149291523Y-135085666D01*
X150561523Y-135629952D01*
D12*
%TO.C,U3*%
X140327143Y-112509916D02*
X140327143Y-113320791D01*
X140374842Y-113416188D01*
X140422540Y-113463887D01*
X140517937Y-113511585D01*
X140708731Y-113511585D01*
X140804128Y-113463887D01*
X140851827Y-113416188D01*
X140899525Y-113320791D01*
X140899525Y-112509916D01*
X141281114Y-112509916D02*
X141901194Y-112509916D01*
X141567305Y-112891505D01*
X141710400Y-112891505D01*
X141805797Y-112939203D01*
X141853496Y-112986902D01*
X141901194Y-113082299D01*
X141901194Y-113320791D01*
X141853496Y-113416188D01*
X141805797Y-113463887D01*
X141710400Y-113511585D01*
X141424209Y-113511585D01*
X141328812Y-113463887D01*
X141281114Y-113416188D01*
D13*
%TO.C,C2*%
X176729571Y-83777666D02*
X176790047Y-83838142D01*
X176850523Y-84019571D01*
X176850523Y-84140523D01*
X176790047Y-84321952D01*
X176669095Y-84442904D01*
X176548142Y-84503380D01*
X176306238Y-84563857D01*
X176124809Y-84563857D01*
X175882904Y-84503380D01*
X175761952Y-84442904D01*
X175641000Y-84321952D01*
X175580523Y-84140523D01*
X175580523Y-84019571D01*
X175641000Y-83838142D01*
X175701476Y-83777666D01*
X175701476Y-83293857D02*
X175641000Y-83233380D01*
X175580523Y-83112428D01*
X175580523Y-82810047D01*
X175641000Y-82689095D01*
X175701476Y-82628619D01*
X175822428Y-82568142D01*
X175943380Y-82568142D01*
X176124809Y-82628619D01*
X176850523Y-83354333D01*
X176850523Y-82568142D01*
D15*
%TO.C,J6*%
X147828000Y-80966000D02*
X150428000Y-80966000D01*
X145228000Y-83626000D02*
X145228000Y-82296000D01*
X147828000Y-83626000D02*
X147828000Y-80966000D01*
X147828000Y-83626000D02*
X150428000Y-83626000D01*
X150428000Y-83626000D02*
X150428000Y-80966000D01*
X146558000Y-83626000D02*
X145228000Y-83626000D01*
D16*
%TO.C,U2*%
X155434000Y-63246000D02*
G75*
G03*
X155434000Y-63046000I0J100000D01*
G01*
X155434000Y-63046000D02*
G75*
G03*
X155434000Y-63246000I0J-100000D01*
G01*
X155434000Y-63046000D02*
X155434000Y-63046000D01*
X155434000Y-63246000D02*
X155434000Y-63246000D01*
D10*
X149999000Y-71016000D02*
X149999000Y-68326000D01*
X90069000Y-71016000D02*
X145434000Y-71016000D01*
X90069000Y-68326000D02*
X90069000Y-71016000D01*
X90069000Y-55476000D02*
X90069000Y-58166000D01*
X149999000Y-55476000D02*
X90069000Y-55476000D01*
X149999000Y-58166000D02*
X149999000Y-55476000D01*
D16*
%TO.C,D4*%
X171134000Y-118914000D02*
X171134000Y-117139000D01*
X169734000Y-117139000D02*
X169734000Y-118914000D01*
X171134000Y-117139000D02*
X169734000Y-117139000D01*
%TO.C,J4*%
X167575000Y-89454000D02*
X167575000Y-87929000D01*
D15*
%TO.C,TP9*%
X133669000Y-114489000D02*
X133669000Y-115889000D01*
X133669000Y-115889000D02*
X132269000Y-115889000D01*
X132269000Y-114489000D02*
X133669000Y-114489000D01*
X132269000Y-115889000D02*
X132269000Y-114489000D01*
%TO.C,J5*%
X183321000Y-96465000D02*
X180661000Y-96465000D01*
X183321000Y-101665000D02*
X181991000Y-101665000D01*
X183321000Y-100335000D02*
X183321000Y-101665000D01*
X180661000Y-99065000D02*
X180661000Y-96465000D01*
X183321000Y-99065000D02*
X183321000Y-96465000D01*
X183321000Y-99065000D02*
X180661000Y-99065000D01*
D16*
%TO.C,D5*%
X169607000Y-116033000D02*
X171007000Y-116033000D01*
X169607000Y-114258000D02*
X169607000Y-116033000D01*
X171007000Y-116033000D02*
X171007000Y-114258000D01*
D15*
%TO.C,TP11*%
X96074000Y-106110000D02*
X96074000Y-104710000D01*
X97474000Y-106110000D02*
X96074000Y-106110000D01*
X96074000Y-104710000D02*
X97474000Y-104710000D01*
X97474000Y-104710000D02*
X97474000Y-106110000D01*
D16*
%TO.C,R6*%
X158564000Y-134493000D02*
X157514000Y-134493000D01*
D15*
%TO.C,TP5*%
X153024000Y-137730000D02*
X153024000Y-139130000D01*
X153024000Y-139130000D02*
X151624000Y-139130000D01*
X151624000Y-139130000D02*
X151624000Y-137730000D01*
X151624000Y-137730000D02*
X153024000Y-137730000D01*
D16*
%TO.C,D2*%
X168086000Y-78912000D02*
X166686000Y-78912000D01*
X166686000Y-78912000D02*
X166686000Y-80687000D01*
X168086000Y-80687000D02*
X168086000Y-78912000D01*
%TO.C,D1*%
X169757000Y-78424000D02*
X171532000Y-78424000D01*
X171532000Y-77024000D02*
X169757000Y-77024000D01*
X171532000Y-78424000D02*
X171532000Y-77024000D01*
%TO.C,R5*%
X133858000Y-81082000D02*
X133858000Y-81732000D01*
D15*
%TO.C,J1*%
X171577000Y-103565000D02*
X90237000Y-103565000D01*
X174177000Y-102235000D02*
X174177000Y-103565000D01*
X90237000Y-100905000D02*
X90237000Y-103565000D01*
X171577000Y-100905000D02*
X171577000Y-103565000D01*
X171577000Y-100905000D02*
X90237000Y-100905000D01*
X174177000Y-103565000D02*
X172847000Y-103565000D01*
D16*
%TO.C,IC2*%
X154868000Y-135928000D02*
X154868000Y-134328000D01*
X155368000Y-135928000D02*
X154868000Y-135928000D01*
X154043000Y-134228000D02*
X154518000Y-134228000D01*
X155368000Y-134328000D02*
X155368000Y-135928000D01*
X154868000Y-134328000D02*
X155368000Y-134328000D01*
D15*
%TO.C,TP10*%
X98487000Y-104710000D02*
X99887000Y-104710000D01*
X99887000Y-104710000D02*
X99887000Y-106110000D01*
X99887000Y-106110000D02*
X98487000Y-106110000D01*
X98487000Y-106110000D02*
X98487000Y-104710000D01*
%TO.C,J10*%
X85665000Y-107442000D02*
X85665000Y-106112000D01*
X85665000Y-116392000D02*
X88325000Y-116392000D01*
X85665000Y-106112000D02*
X86995000Y-106112000D01*
X85665000Y-108712000D02*
X85665000Y-116392000D01*
X85665000Y-108712000D02*
X88325000Y-108712000D01*
X88325000Y-108712000D02*
X88325000Y-116392000D01*
%TO.C,TP6*%
X155691000Y-139003000D02*
X154291000Y-139003000D01*
X155691000Y-137603000D02*
X155691000Y-139003000D01*
X154291000Y-139003000D02*
X154291000Y-137603000D01*
X154291000Y-137603000D02*
X155691000Y-137603000D01*
%TO.C,U1*%
X159965000Y-82823000D02*
X156205000Y-82823000D01*
X156205000Y-82823000D02*
X156205000Y-84083000D01*
X156205000Y-89643000D02*
X156205000Y-88383000D01*
X162215000Y-89643000D02*
X156205000Y-89643000D01*
D16*
%TO.C,R9*%
X148480000Y-91948000D02*
X147430000Y-91948000D01*
D15*
%TO.C,J7*%
X176343000Y-98567000D02*
X179003000Y-98567000D01*
X179003000Y-98567000D02*
X179003000Y-103707000D01*
X176343000Y-98567000D02*
X176343000Y-103707000D01*
X176343000Y-97297000D02*
X176343000Y-95967000D01*
X176343000Y-95967000D02*
X177673000Y-95967000D01*
X176343000Y-103707000D02*
X179003000Y-103707000D01*
%TO.C,TP7*%
X138873000Y-81342000D02*
X140273000Y-81342000D01*
X138873000Y-82742000D02*
X138873000Y-81342000D01*
X140273000Y-81342000D02*
X140273000Y-82742000D01*
X140273000Y-82742000D02*
X138873000Y-82742000D01*
D16*
%TO.C,IC1*%
X134394000Y-84409000D02*
X134394000Y-85009000D01*
X131544000Y-84409000D02*
X134394000Y-84409000D01*
X134394000Y-85009000D02*
X131544000Y-85009000D01*
X131544000Y-85009000D02*
X131544000Y-84409000D01*
X131344000Y-86559000D02*
X131344000Y-85359000D01*
%TO.C,J3*%
X176091000Y-122739000D02*
G75*
G03*
X176091000Y-122939000I0J-100000D01*
G01*
X176091000Y-122939000D02*
G75*
G03*
X176091000Y-122739000I0J100000D01*
G01*
D10*
X178491000Y-117939000D02*
X176931000Y-117939000D01*
D16*
X176091000Y-122739000D02*
X176091000Y-122739000D01*
D10*
X176931000Y-117939000D02*
X176931000Y-117939000D01*
X181991000Y-125139000D02*
X181491000Y-125139000D01*
X176931000Y-125139000D02*
X176931000Y-125039000D01*
X181491000Y-117939000D02*
X181991000Y-117939000D01*
D16*
X176091000Y-122939000D02*
X176091000Y-122939000D01*
D10*
X181991000Y-117939000D02*
X181991000Y-125139000D01*
X176931000Y-117939000D02*
X176931000Y-118039000D01*
X178491000Y-125139000D02*
X176931000Y-125139000D01*
D15*
%TO.C,J8*%
X88325000Y-137536000D02*
X88325000Y-138866000D01*
X85665000Y-136266000D02*
X85665000Y-126046000D01*
X88325000Y-138866000D02*
X86995000Y-138866000D01*
X88325000Y-136266000D02*
X88325000Y-126046000D01*
X88325000Y-126046000D02*
X85665000Y-126046000D01*
X88325000Y-136266000D02*
X85665000Y-136266000D01*
%TO.C,TP1*%
X180656000Y-128205000D02*
X182056000Y-128205000D01*
X182056000Y-128205000D02*
X182056000Y-129605000D01*
X180656000Y-129605000D02*
X180656000Y-128205000D01*
X182056000Y-129605000D02*
X180656000Y-129605000D01*
%TO.C,TP4*%
X156958000Y-139130000D02*
X156958000Y-137730000D01*
X158358000Y-137730000D02*
X158358000Y-139130000D01*
X158358000Y-139130000D02*
X156958000Y-139130000D01*
X156958000Y-137730000D02*
X158358000Y-137730000D01*
%TO.C,U4*%
D17*
X93194500Y-114879000D02*
G75*
G03*
X93194500Y-114879000I-63500J0D01*
G01*
D16*
X93181000Y-113329000D02*
X93181000Y-109429000D01*
X98081000Y-113329000D02*
X98081000Y-109429000D01*
D15*
%TO.C,J9*%
X179391000Y-132461000D02*
X179391000Y-131131000D01*
X179391000Y-131131000D02*
X180721000Y-131131000D01*
X182051000Y-133731000D02*
X182051000Y-146491000D01*
X179391000Y-133731000D02*
X179391000Y-146491000D01*
X179391000Y-133731000D02*
X182051000Y-133731000D01*
X179391000Y-146491000D02*
X182051000Y-146491000D01*
%TO.C,J2*%
X174177000Y-142875000D02*
X174177000Y-144205000D01*
X171577000Y-144205000D02*
X90237000Y-144205000D01*
X171577000Y-141545000D02*
X90237000Y-141545000D01*
X90237000Y-141545000D02*
X90237000Y-144205000D01*
X174177000Y-144205000D02*
X172847000Y-144205000D01*
X171577000Y-141545000D02*
X171577000Y-144205000D01*
%TO.C,TP2*%
X181545000Y-114108000D02*
X182945000Y-114108000D01*
X181545000Y-115508000D02*
X181545000Y-114108000D01*
X182945000Y-114108000D02*
X182945000Y-115508000D01*
X182945000Y-115508000D02*
X181545000Y-115508000D01*
%TO.C,TP8*%
X129729000Y-118556000D02*
X129729000Y-117156000D01*
X131129000Y-117156000D02*
X131129000Y-118556000D01*
X129729000Y-117156000D02*
X131129000Y-117156000D01*
X131129000Y-118556000D02*
X129729000Y-118556000D01*
D16*
%TO.C,R8*%
X155135000Y-132080000D02*
X154085000Y-132080000D01*
%TO.C,R10*%
X142121000Y-88451000D02*
G75*
G03*
X142121000Y-92651000I0J-2100000D01*
G01*
X143121000Y-92651000D02*
G75*
G03*
X143121000Y-88451000I0J2100000D01*
G01*
X142121000Y-92651000D02*
X143121000Y-92651000D01*
X143121000Y-92651000D02*
X143121000Y-92651000D01*
X142121000Y-88451000D02*
X142121000Y-88451000D01*
X143121000Y-88451000D02*
X142121000Y-88451000D01*
%TO.C,Q1*%
X136644000Y-90704000D02*
X135169000Y-90704000D01*
X134819000Y-87689000D02*
X134819000Y-90619000D01*
X134819000Y-90619000D02*
X131119000Y-90619000D01*
X131119000Y-90619000D02*
X131119000Y-87689000D01*
X131119000Y-87689000D02*
X134819000Y-87689000D01*
D15*
%TO.C,TP3*%
X166308000Y-92140000D02*
X164908000Y-92140000D01*
X164908000Y-92140000D02*
X164908000Y-90740000D01*
X166308000Y-90740000D02*
X166308000Y-92140000D01*
X164908000Y-90740000D02*
X166308000Y-90740000D01*
D16*
%TO.C,R7*%
X152976000Y-134493000D02*
X151926000Y-134493000D01*
D17*
%TO.C,U3*%
X141508553Y-115180000D02*
G75*
G03*
X141508553Y-115180000I-360553J0D01*
G01*
D13*
X138775000Y-114380000D02*
G75*
G03*
X138775000Y-114380000I-127000J0D01*
G01*
D18*
X140148000Y-124480000D02*
X145348000Y-124480000D01*
X145348000Y-114280000D02*
X140148000Y-114280000D01*
X145348000Y-124480000D02*
X145348000Y-114280000D01*
X140148000Y-114280000D02*
X140148000Y-124480000D01*
%TD*%
M02*
